<svg width="99" height="90" viewBox="0 0 99 90" fill="none" xmlns="http://www.w3.org/2000/svg">
<path fill-rule="evenodd" clip-rule="evenodd" d="M56.2652 7.755C55.6259 7.95375 53.8604 9.495 43.3952 18.99L31.2677 29.9887L23.4302 30.0337C15.7 30.075 15.5845 30.0787 14.908 30.4087C14.0582 30.8212 13.1549 31.7625 12.8991 32.5087C12.4949 33.6712 12.2927 37.485 12.5114 39.8812C13.357 49.215 17.8244 57.2362 25.4927 63.1987C27.8069 64.9987 31.0986 66.9375 33.5365 67.9425C34.1511 68.1975 34.6502 68.4338 34.6502 68.4712C34.6502 68.505 34.279 69.9 33.8252 71.565C33.3715 73.23 33.0002 74.8087 33.0002 75.0712C33.0002 75.8925 33.4952 76.9237 34.2212 77.6025C35.5041 78.7987 34.84 78.75 49.4177 78.75C64.0491 78.75 63.451 78.795 64.7504 77.6137C65.5199 76.9065 65.9665 75.9606 66.0002 74.9662C66.0002 74.73 65.629 73.1925 65.1752 71.55C64.7215 69.9075 64.3502 68.5237 64.3502 68.4825C64.3502 68.4375 64.8494 68.1975 65.464 67.9425C67.5595 67.08 70.678 65.31 72.6827 63.84C74.6115 62.3232 76.4251 60.6894 78.1112 58.95C84.0842 52.4025 87.2027 43.6237 86.4974 35.3587C86.386 34.1025 86.2127 32.82 86.1014 32.5087C85.8456 31.7625 84.9422 30.8212 84.0925 30.4087C83.4119 30.075 83.3706 30.075 73.516 30.0337L63.6284 29.9925L72.8024 21.6337C81.6381 13.5825 81.9846 13.245 82.2362 12.4612C82.5662 11.4487 82.5662 11.055 82.2486 10.0875C81.7825 8.65875 80.0459 7.5 78.3752 7.5C78.0452 7.5 77.41 7.60875 76.9604 7.74375C76.222 7.96875 75.0587 8.9775 64.0161 18.9937L51.8845 30H42.991L52.1691 21.6375C61.0131 13.5825 61.3596 13.245 61.6112 12.4612C61.9412 11.4487 61.9412 11.055 61.6236 10.0875C60.9842 8.1225 58.5175 7.05375 56.2652 7.755ZM78.3134 39.1125C78.0564 42.7099 76.9924 46.2215 75.187 49.4311C73.3816 52.6408 70.8729 55.4808 67.8152 57.7762C65.2659 59.6444 62.4022 61.1272 59.3342 62.1675C57.412 62.7975 56.7767 63.1312 56.2199 63.795C55.7702 64.3312 55.2752 65.5125 55.2752 66.0487C55.2752 66.3337 56.2364 70.1287 56.5292 70.9875C56.6117 71.235 56.2034 71.25 49.5002 71.25C42.7971 71.25 42.3887 71.235 42.4712 70.9875C42.7641 70.1287 43.7252 66.3337 43.7252 66.0487C43.7252 65.5125 43.2302 64.3312 42.7806 63.795C42.2237 63.1312 41.5885 62.7975 39.6662 62.1675C36.4564 61.0874 33.4756 59.5118 30.8552 57.51C24.9482 53.0437 21.1821 46.23 20.6871 39.1125L20.5757 37.5H78.4247L78.3134 39.1125Z" fill="#EF7601"/>
</svg>
