<svg width="77" height="74" viewBox="0 0 77 74" fill="none" xmlns="http://www.w3.org/2000/svg">
<path fill-rule="evenodd" clip-rule="evenodd" d="M36.6911 2.25558C33.7653 3.02908 31.5831 5.90958 31.5831 9.00008C31.5831 11.2086 32.8731 13.6796 34.5919 14.7611C34.9585 14.9886 35.0415 15.1321 35.0415 15.5206V16.0001H29.4735C22.2007 16.0036 21.139 16.1576 18.3031 17.6241C15.1941 19.2341 12.6937 22.1986 11.5352 25.6461C11.2689 26.4371 10.923 28.3621 10.8055 29.7026C10.7674 30.1401 10.7121 30.1891 9.99967 30.4131C8.24955 30.9805 6.72039 32.0912 5.6291 33.5876C4.53782 35.0841 3.93982 36.8903 3.91992 38.7501C3.93982 40.6098 4.53782 42.4161 5.6291 43.9125C6.72039 45.409 8.24955 46.5197 9.99967 47.0871L10.764 47.3286L10.847 50.1076C10.9611 53.8351 11.2516 55.1406 12.5035 57.5801C14.0563 60.6076 17.0235 63.1381 20.3608 64.2896C22.3667 64.9791 22.8681 65.0001 38.4998 65.0001C54.1315 65.0001 54.6329 64.9791 56.6388 64.2896C59.9761 63.1381 62.9433 60.6076 64.4961 57.5801C65.748 55.1406 66.0385 53.8351 66.1526 50.1076L66.2356 47.3286L66.9999 47.0871C68.75 46.5197 70.2792 45.409 71.3705 43.9125C72.4618 42.4161 73.0598 40.6098 73.0797 38.7501C73.0598 36.8903 72.4618 35.0841 71.3705 33.5876C70.2792 32.0912 68.75 30.9805 66.9999 30.4131C66.2875 30.1891 66.2322 30.1401 66.1941 29.7026C66.0765 28.3621 65.7307 26.4371 65.4644 25.6461C64.3059 22.1986 61.8055 19.2341 58.6965 17.6241C55.8606 16.1576 54.7989 16.0036 47.526 16.0001H41.9581V15.5206C41.9581 15.1286 42.0411 14.9921 42.4354 14.7436C43.172 14.2851 44.251 13.0041 44.7179 12.0416C44.9634 11.5341 45.2055 10.7186 45.3023 10.0851C45.457 9.08972 45.3971 8.07226 45.1265 7.10258C44.856 6.13289 44.3812 5.23396 43.735 4.4675C43.0887 3.70104 42.2861 3.08522 41.3825 2.66233C40.4788 2.23943 39.4954 2.01948 38.4998 2.01758C38.0053 2.01758 37.1925 2.12608 36.6911 2.25558ZM54.0346 23.2101C55.2796 23.5356 56.1995 24.0851 57.1886 25.0861C58.2123 26.1186 58.738 27.0496 59.0423 28.3516C59.357 29.7061 59.3501 51.4831 59.0319 52.7186C58.6999 54.0206 58.1915 54.8991 57.1886 55.9141C56.1995 56.9151 55.2796 57.4646 54.0346 57.7901C52.8484 58.1051 24.1512 58.1051 22.965 57.7901C21.72 57.4646 20.8 56.9151 19.811 55.9141C18.8219 54.9131 18.2789 53.9821 17.9573 52.7221C17.6495 51.5251 17.6495 29.4751 17.9573 28.2781C18.2789 27.0181 18.8219 26.0871 19.811 25.0861C20.7793 24.1061 21.713 23.5391 22.9062 23.2171C24.0198 22.9126 52.8865 22.9056 54.0346 23.2101ZM26.9939 33.7206C26.1501 33.9831 25.1852 34.9491 24.8878 35.8311C24.5627 36.8006 24.5627 44.1996 24.8878 45.1691C25.3166 46.4396 26.7864 47.5001 28.1248 47.5001C28.9444 47.5001 29.9024 47.0801 30.5353 46.4396C31.514 45.4491 31.5831 45.0606 31.5831 40.5001C31.5831 35.9396 31.514 35.5511 30.5353 34.5606C29.5704 33.5841 28.3565 33.2971 26.9939 33.7206ZM47.7439 33.7206C46.9001 33.9831 45.9352 34.9491 45.6378 35.8311C45.3127 36.8006 45.3127 44.1996 45.6378 45.1691C46.0666 46.4396 47.5364 47.5001 48.8748 47.5001C49.6944 47.5001 50.6524 47.0801 51.2853 46.4396C52.264 45.4491 52.3331 45.0606 52.3331 40.5001C52.3331 35.9396 52.264 35.5511 51.2853 34.5606C50.3204 33.5841 49.1065 33.2971 47.7439 33.7206Z" fill="#E7795D"/>
</svg>
