<svg width="79" height="137" viewBox="0 0 79 137" fill="none" xmlns="http://www.w3.org/2000/svg">
<path fill-rule="evenodd" clip-rule="evenodd" d="M77.543 5.96293C76.9714 4.72223 76.1579 3.60828 75.1502 2.68648C74.1425 1.76469 72.9608 1.05362 71.6746 0.595051C70.3884 0.136476 69.0236 -0.0603731 67.6604 0.0160666C66.2971 0.0925063 64.9629 0.440694 63.7359 1.04018C62.1779 1.81962 54.7362 9.03965 31.5092 32.3202C2.22432 61.6618 1.28131 62.6566 0.656041 64.8103C0.297284 66.041 2.75658e-05 67.5281 2.75398e-05 68.1229C2.75138e-05 68.7177 0.297284 70.2048 0.656041 71.4355C1.28131 73.5892 2.22432 74.584 31.5092 103.926C54.7362 127.206 62.1779 134.426 63.7359 135.206C64.9628 135.805 66.2971 136.153 67.6604 136.23C69.0236 136.306 70.3884 136.109 71.6746 135.651C72.9608 135.192 74.1424 134.481 75.1502 133.559C76.1579 132.638 76.9714 131.524 77.543 130.283C78.568 128.027 78.5372 124.242 77.461 121.863C76.8255 120.448 70.5831 113.956 50.7284 94.0699L24.8158 68.1229L50.7284 42.1759C70.5831 22.2901 76.8255 15.7982 77.461 14.3829C78.5372 12.0036 78.568 8.21919 77.543 5.96293Z" fill="#10161F"/>
</svg>
