<svg width="502" height="122" viewBox="0 0 502 122" fill="none" xmlns="http://www.w3.org/2000/svg">
<rect x="1" y="1" width="500" height="120" rx="60" fill="#F8E7FF" stroke="#AF67D0" stroke-width="2"/>
<path d="M128.617 75.0039H122.664V66.0742H128.617V75.0039ZM127.352 51.9648C127.352 54.3867 126.898 56.6367 125.992 58.7148C125.102 60.793 123.766 62.5898 121.984 64.1055C120.203 65.6055 117.992 66.6992 115.352 67.3867L112.562 62.8633C114.797 62.2852 116.656 61.4414 118.141 60.332C119.625 59.2227 120.727 57.957 121.445 56.5352C122.18 55.0977 122.547 53.5742 122.547 51.9648V50.8867H127.352V51.9648ZM128.688 51.9648C128.688 53.4805 129.055 54.9336 129.789 56.3242C130.523 57.6992 131.641 58.9258 133.141 60.0039C134.641 61.082 136.508 61.9023 138.742 62.4648L136.047 67.0586C133.391 66.3711 131.148 65.2852 129.32 63.8008C127.492 62.3164 126.109 60.5586 125.172 58.5273C124.25 56.4961 123.789 54.3086 123.789 51.9648V50.8867H128.688V51.9648ZM137.453 52.832H113.898V48.0273H137.453V52.832ZM128.617 50.1836H122.664V43.3867H128.617V50.1836ZM147.344 85.7852H141.414V42.9648H147.344V85.7852ZM111.695 72.8945C115.133 72.8789 118.25 72.8398 121.047 72.7773C123.859 72.7148 126.844 72.582 130 72.3789C133.172 72.1602 136.172 71.8477 139 71.4414L139.422 75.8242C136.531 76.3867 133.516 76.8086 130.375 77.0898C127.234 77.3711 124.281 77.5508 121.516 77.6289C118.766 77.6914 115.727 77.7227 112.398 77.7227L111.695 72.8945ZM189.128 51.4258H161.8V46.6914H189.128V51.4258ZM196.722 80.4414H157.816V75.5898H196.722V80.4414ZM177.667 78.0742H171.737V60.918H177.667V78.0742ZM192.925 50.7461C192.925 53.2461 192.894 55.3789 192.831 57.1445C192.769 58.8945 192.62 60.9727 192.386 63.3789C192.152 65.7695 191.777 68.3633 191.261 71.1602L185.191 70.5273C185.737 67.918 186.136 65.457 186.386 63.1445C186.636 60.8164 186.784 58.7617 186.831 56.9805C186.894 55.1836 186.925 53.1055 186.925 50.7461V46.6914H192.925V50.7461ZM217.905 45.8477C220.139 45.8477 222.155 46.3008 223.952 47.207C225.748 48.0977 227.155 49.3398 228.17 50.9336C229.202 52.5117 229.717 54.3086 229.717 56.3242C229.717 58.3398 229.202 60.1445 228.17 61.7383C227.155 63.3164 225.748 64.5586 223.952 65.4648C222.17 66.3555 220.155 66.8008 217.905 66.8008C215.686 66.8008 213.67 66.3555 211.858 65.4648C210.045 64.5586 208.623 63.3164 207.592 61.7383C206.561 60.1445 206.045 58.3398 206.045 56.3242C206.045 54.3086 206.561 52.5117 207.592 50.9336C208.623 49.3398 210.045 48.0977 211.858 47.207C213.67 46.3008 215.686 45.8477 217.905 45.8477ZM217.905 51.0039C216.764 51.0039 215.748 51.2148 214.858 51.6367C213.967 52.0586 213.264 52.6758 212.748 53.4883C212.233 54.2852 211.975 55.2305 211.975 56.3242C211.975 57.4336 212.233 58.3867 212.748 59.1836C213.264 59.9648 213.967 60.5742 214.858 61.0117C215.748 61.4336 216.764 61.6445 217.905 61.6445C219.045 61.6445 220.069 61.4336 220.975 61.0117C221.897 60.5742 222.608 59.9648 223.108 59.1836C223.623 58.3867 223.881 57.4336 223.881 56.3242C223.881 55.2305 223.623 54.2852 223.108 53.4883C222.608 52.6758 221.897 52.0586 220.975 51.6367C220.069 51.2148 219.045 51.0039 217.905 51.0039ZM239.912 85.7852H233.983V42.9648H239.912V85.7852ZM204.264 72.1914C207.702 72.1758 210.827 72.1367 213.639 72.0742C216.452 72.0117 219.436 71.8867 222.592 71.6992C225.764 71.4961 228.756 71.207 231.569 70.832L231.991 75.1211C229.1 75.6836 226.084 76.1055 222.944 76.3867C219.803 76.668 216.85 76.8477 214.084 76.9258C211.334 77.0039 208.295 77.043 204.967 77.043L204.264 72.1914ZM305.2 72.2617H266.294V67.6211H305.2V72.2617ZM288.7 69.4727H282.7V63.5195H288.7V69.4727ZM300.77 84.9414H270.981V80.207H300.77V84.9414ZM276.958 83.1602H270.981V74.2773H276.958V83.1602ZM303.137 51.0273H268.122V46.5273H303.137V51.0273ZM285.723 52.2461C290.317 52.2461 293.848 52.793 296.317 53.8867C298.802 54.9805 300.044 56.582 300.044 58.6914C300.044 60.0977 299.489 61.293 298.38 62.2773C297.27 63.2617 295.645 64.0117 293.505 64.5273C291.364 65.043 288.77 65.3008 285.723 65.3008C282.677 65.3008 280.083 65.043 277.942 64.5273C275.802 64.0117 274.169 63.2617 273.044 62.2773C271.919 61.293 271.356 60.0977 271.356 58.6914C271.356 56.582 272.598 54.9805 275.083 53.8867C277.567 52.793 281.114 52.2461 285.723 52.2461ZM285.723 56.418C283.77 56.418 282.192 56.4961 280.989 56.6523C279.786 56.793 278.895 57.0352 278.317 57.3789C277.755 57.7227 277.473 58.1602 277.473 58.6914C277.473 59.2539 277.755 59.707 278.317 60.0508C278.895 60.3789 279.786 60.6289 280.989 60.8008C282.192 60.957 283.77 61.0352 285.723 61.0352C287.661 61.0352 289.223 60.957 290.411 60.8008C291.598 60.6289 292.481 60.3789 293.059 60.0508C293.653 59.707 293.95 59.2539 293.95 58.6914C293.95 58.1602 293.653 57.7227 293.059 57.3789C292.481 57.0352 291.598 56.793 290.411 56.6523C289.223 56.4961 287.661 56.418 285.723 56.418ZM288.7 49.4336H282.7V42.7773H288.7V49.4336ZM346.398 66.3789H340.422V42.9648H346.398V66.3789ZM352.164 56.9805H344.711V52.0117H352.164V56.9805ZM319.75 50.3008H328.492V45.168H334.492V64.8555H313.82V45.168H319.75V50.3008ZM328.492 60.1445V54.918H319.75V60.1445H328.492ZM324.344 72.0977H340.422V68.207H346.398V85.1992H318.391V68.207H324.344V72.0977ZM340.422 80.3945V76.7148H324.344V80.3945H340.422ZM408.873 76.3164H402.85V42.9648H408.873V76.3164ZM414.334 61.9492H406.741V57.0273H414.334V61.9492ZM410.327 84.9414H380.256V80.1133H410.327V84.9414ZM386.303 81.543H380.256V74.1133H386.303V81.543ZM390.592 69.7305H384.639V63.4727H390.592V69.7305ZM374.303 67.5273C379.225 67.5273 383.913 67.4336 388.366 67.2461C392.819 67.043 396.991 66.6602 400.881 66.0977L401.327 70.1992C398.577 70.7148 395.67 71.1133 392.608 71.3945C389.561 71.6758 386.756 71.8555 384.194 71.9336C381.647 72.0117 378.545 72.082 374.889 72.1445L374.303 67.5273ZM399.803 50.7695H375.381V46.457H399.803V50.7695ZM387.592 51.9414C389.686 51.9414 391.514 52.207 393.077 52.7383C394.655 53.2539 395.873 54.0195 396.733 55.0352C397.608 56.0352 398.045 57.2305 398.045 58.6211C398.045 59.9336 397.608 61.082 396.733 62.0664C395.873 63.0352 394.655 63.793 393.077 64.3398C391.514 64.8711 389.686 65.1367 387.592 65.1367C385.514 65.1367 383.678 64.8711 382.084 64.3398C380.506 63.793 379.28 63.0352 378.405 62.0664C377.545 61.082 377.116 59.9336 377.116 58.6211C377.116 57.2305 377.545 56.0352 378.405 55.0352C379.28 54.0352 380.498 53.2695 382.061 52.7383C383.639 52.207 385.483 51.9414 387.592 51.9414ZM387.592 55.9492C386.577 55.9492 385.717 56.043 385.014 56.2305C384.311 56.418 383.772 56.7148 383.397 57.1211C383.022 57.5117 382.834 58.0117 382.834 58.6211C382.834 59.1367 383.022 59.5898 383.397 59.9805C383.772 60.3555 384.311 60.6445 385.014 60.8477C385.717 61.0352 386.577 61.1289 387.592 61.1289C388.608 61.1289 389.459 61.0352 390.147 60.8477C390.85 60.6445 391.381 60.3555 391.741 59.9805C392.116 59.5898 392.303 59.1367 392.303 58.6211C392.303 58.0117 392.123 57.5117 391.764 57.1211C391.405 56.7148 390.873 56.418 390.17 56.2305C389.467 56.043 388.608 55.9492 387.592 55.9492ZM390.592 48.3789H384.639V42.8477H390.592V48.3789ZM451.994 54.6133H441.752V49.9023H451.994V54.6133ZM451.642 63.4727H441.447V58.668H451.642V63.4727ZM456.986 67.6211H451.033V43.0586H456.986V67.6211ZM443.369 45.8945C443.369 49.7383 442.634 53.1445 441.166 56.1133C439.697 59.082 437.509 61.5977 434.603 63.6602C431.697 65.7227 428.08 67.3477 423.752 68.5352L421.408 63.8242C424.97 62.8867 427.908 61.6758 430.22 60.1914C432.533 58.707 434.236 57.0039 435.33 55.082C436.439 53.1602 436.994 51.0664 436.994 48.8008V45.8945H443.369ZM441.142 50.7227H423.681V45.8945H441.142V50.7227ZM442.759 68.1367C445.65 68.1367 448.189 68.4961 450.377 69.2148C452.58 69.918 454.283 70.918 455.486 72.2148C456.689 73.4961 457.291 75.0195 457.291 76.7852C457.291 78.5352 456.689 80.0664 455.486 81.3789C454.283 82.707 452.58 83.7227 450.377 84.4258C448.189 85.1289 445.65 85.4805 442.759 85.4805C439.869 85.4805 437.322 85.1289 435.119 84.4258C432.931 83.7227 431.228 82.707 430.009 81.3789C428.806 80.0664 428.205 78.5352 428.205 76.7852C428.205 75.0195 428.806 73.4961 430.009 72.2148C431.228 70.918 432.931 69.918 435.119 69.2148C437.322 68.4961 439.869 68.1367 442.759 68.1367ZM442.759 72.8008C440.978 72.7695 439.439 72.9102 438.142 73.2227C436.845 73.5195 435.861 73.9727 435.189 74.582C434.517 75.1758 434.181 75.9102 434.181 76.7852C434.181 77.6445 434.517 78.3711 435.189 78.9648C435.861 79.5586 436.837 80.0039 438.119 80.3008C439.4 80.5977 440.947 80.7461 442.759 80.7461C444.556 80.7461 446.087 80.5977 447.353 80.3008C448.634 80.0039 449.611 79.5586 450.283 78.9648C450.97 78.3711 451.314 77.6445 451.314 76.7852C451.314 75.9102 450.97 75.1758 450.283 74.582C449.611 73.9727 448.634 73.5195 447.353 73.2227C446.087 72.9102 444.556 72.7695 442.759 72.8008Z" fill="#AF67D0"/>
<g clip-path="url(#clip0_942_22)">
<path fill-rule="evenodd" clip-rule="evenodd" d="M53.5129 44.2982C52.4737 44.6022 51.5345 45.4145 50.9374 46.5331C50.3445 47.6375 50.3742 46.7587 50.3785 63.1913C50.3849 79.7 50.3466 78.6312 50.9714 79.7902C51.3262 80.4481 52.0466 81.2176 52.6501 81.5833C53.3471 82.0061 54.042 82.1225 55.878 82.1225C56.779 82.1248 57.5142 82.1415 57.5142 82.1628C57.5142 82.1842 57.3612 82.5595 57.1742 82.9941C56.9872 83.4311 56.8109 83.9845 56.7832 84.2243C56.7152 84.7872 56.9192 85.5805 57.2465 86.0198C57.7671 86.7228 58.7552 87.0292 59.5479 86.7347C60.2746 86.464 60.5402 86.0863 61.4752 84.0011L62.3167 82.1248H69.4992H76.6817L77.5232 84.0011C78.4582 86.0863 78.7239 86.464 79.4506 86.7347C80.2432 87.0292 81.2314 86.7228 81.752 86.0198C82.0792 85.5805 82.2832 84.7872 82.2152 84.2243C82.1876 83.9845 82.0112 83.4311 81.8242 82.9941C81.6372 82.5595 81.4842 82.1842 81.4842 82.1628C81.4842 82.1415 82.2216 82.1248 83.1205 82.1225C85.6025 82.1201 86.2867 81.8897 87.3514 80.7022C88.0059 79.9683 88.3331 79.3271 88.4989 78.446C88.6816 77.4841 88.6816 48.7656 88.4989 47.8037C88.1886 46.1673 86.9497 44.7257 85.4856 44.2982C84.9671 44.1486 83.809 44.1367 69.4992 44.1367C55.1895 44.1367 54.0314 44.1486 53.5129 44.2982ZM84.3742 51.2498V53.6248H69.4992H54.6242V51.2498V48.8748H69.4992H84.3742V51.2498ZM67.3742 67.8748V77.3748H60.9992H54.6242V67.8748V58.3748H60.9992H67.3742V67.8748ZM84.3742 67.8748V77.3748H77.9992H71.6242V67.8748V58.3748H77.9992H84.3742V67.8748ZM62.4294 63.2745C61.9109 63.4526 61.318 64.1081 61.1352 64.7066C60.9355 65.3645 60.9355 70.3852 61.1352 71.0431C61.3987 71.9052 62.3019 72.6248 63.1242 72.6248C63.6279 72.6248 64.2165 72.3398 64.6054 71.9052C65.2067 71.2331 65.2492 70.9695 65.2492 67.8748C65.2492 64.7802 65.2067 64.5166 64.6054 63.8445C64.0125 63.1818 63.2666 62.9871 62.4294 63.2745ZM75.1794 63.2745C74.6609 63.4526 74.068 64.1081 73.8852 64.7066C73.6855 65.3645 73.6855 70.3852 73.8852 71.0431C74.1487 71.9052 75.0519 72.6248 75.8742 72.6248C76.3779 72.6248 76.9665 72.3398 77.3554 71.9052C77.9567 71.2331 77.9992 70.9695 77.9992 67.8748C77.9992 64.7802 77.9567 64.5166 77.3554 63.8445C76.7625 63.1818 76.0166 62.9871 75.1794 63.2745Z" fill="#AF67D0"/>
</g>
<defs>
<clipPath id="clip0_942_22">
<rect width="45.3711" height="45.3744" fill="white" transform="translate(49.2422 42.3555)"/>
</clipPath>
</defs>
</svg>
