<svg width="407" height="122" viewBox="0 0 407 122" fill="none" xmlns="http://www.w3.org/2000/svg">
<rect x="1" y="1" width="404.969" height="119.652" rx="59.8261" fill="#F5E0E0" stroke="#E07A7A" stroke-width="2"/>
<path fill-rule="evenodd" clip-rule="evenodd" d="M121.322 39.7679C120.987 39.8188 114.284 41.692 106.428 43.9312C95.7633 46.971 91.9508 48.0995 91.3814 48.3791C90.0521 49.0323 88.733 50.5471 88.184 52.0493C87.9781 52.6135 87.9756 52.794 87.9476 66.092C87.9222 77.9895 87.9375 79.6467 88.0773 80.2821C88.4763 82.0892 90.0547 83.6549 91.8618 84.0387C92.8937 84.2573 128.706 84.2573 129.738 84.0387C130.681 83.8404 131.367 83.449 132.152 82.6662C132.935 81.8808 133.327 81.1946 133.525 80.2516C133.743 79.2248 133.743 53.5692 133.525 52.5423C133.327 51.6019 132.935 50.9157 132.152 50.1227C131.418 49.3425 130.44 48.8352 129.379 48.6841L128.591 48.5596V47.0523C128.591 45.4638 128.436 44.3938 128.083 43.5728C126.955 40.9396 124.113 39.3409 121.322 39.7679ZM122.746 44.8894C123.389 45.1563 123.508 45.507 123.508 47.1566V48.6053L116.112 48.5977C112.045 48.5926 108.784 48.5621 108.868 48.5291C109.237 48.3842 122.052 44.7547 122.214 44.7496C122.398 44.766 122.578 44.8133 122.746 44.8894ZM128.591 66.397V79.1053H93.0081V53.6886H128.591V66.397ZM118.305 62.8768C117.047 63.3953 116.196 64.4297 115.982 65.7082C115.576 68.1177 117.276 70.1536 119.696 70.1536C122.118 70.1536 123.816 68.1101 123.406 65.6878C123.107 63.9036 121.569 62.6404 119.696 62.6404C119.075 62.6404 118.745 62.6963 118.305 62.8768Z" fill="#E07A7A"/>
<path d="M195.223 85.5977H189.223V42.9648H195.223V85.5977ZM201.246 64.293H193.676V59.3711H201.246V64.293ZM183.832 47.3711C183.832 51.8242 183.199 55.9336 181.934 59.6992C180.668 63.4492 178.605 66.9023 175.746 70.0586C172.887 73.1992 169.137 75.918 164.496 78.2148L161.121 73.6445C164.949 71.707 168.098 69.5195 170.566 67.082C173.051 64.6445 174.902 61.8945 176.121 58.832C177.355 55.7695 177.973 52.3086 177.973 48.4492V47.3711H183.832ZM180.973 52.2695H163.512V47.3711H180.973V52.2695ZM222.827 49.1055C222.827 52.0273 222.374 54.7383 221.468 57.2383C220.577 59.7227 219.226 61.8867 217.413 63.7305C215.601 65.5742 213.343 66.9648 210.64 67.9023L207.452 63.0977C209.812 62.3477 211.773 61.2617 213.335 59.8398C214.913 58.4023 216.077 56.7695 216.827 54.9414C217.577 53.1133 217.952 51.168 217.952 49.1055V45.2383H222.827V49.1055ZM223.976 48.8008C223.976 50.7695 224.32 52.6211 225.007 54.3555C225.695 56.0742 226.773 57.5977 228.241 58.9258C229.71 60.2383 231.546 61.2383 233.749 61.9258L230.538 66.5898C227.991 65.6992 225.866 64.3945 224.163 62.6758C222.476 60.957 221.218 58.9258 220.39 56.582C219.577 54.2383 219.171 51.6445 219.171 48.8008V45.2383H223.976V48.8008ZM243.804 67.9961H237.851V42.9648H243.804V67.9961ZM229.226 69.1211C232.273 69.1211 234.898 69.4414 237.101 70.082C239.304 70.7227 240.991 71.668 242.163 72.918C243.351 74.168 243.945 75.668 243.945 77.418C243.945 79.1367 243.351 80.6211 242.163 81.8711C240.991 83.1211 239.304 84.0664 237.101 84.707C234.898 85.3477 232.273 85.668 229.226 85.668C226.21 85.668 223.601 85.3477 221.398 84.707C219.21 84.0664 217.523 83.1211 216.335 81.8711C215.163 80.6211 214.577 79.1367 214.577 77.418C214.577 75.668 215.163 74.168 216.335 72.918C217.523 71.668 219.21 70.7227 221.398 70.082C223.601 69.4414 226.21 69.1211 229.226 69.1211ZM229.226 73.7383C227.351 73.7383 225.765 73.8711 224.468 74.1367C223.171 74.4023 222.187 74.8086 221.515 75.3555C220.843 75.9023 220.507 76.5898 220.507 77.418C220.507 78.1836 220.843 78.8398 221.515 79.3867C222.187 79.918 223.171 80.3242 224.468 80.6055C225.765 80.8867 227.351 81.0273 229.226 81.0273C231.148 81.0273 232.757 80.8867 234.054 80.6055C235.351 80.3242 236.327 79.918 236.984 79.3867C237.64 78.8398 237.968 78.1836 237.968 77.418C237.968 76.5898 237.64 75.9023 236.984 75.3555C236.327 74.8086 235.351 74.4023 234.054 74.1367C232.757 73.8711 231.148 73.7383 229.226 73.7383ZM238.671 55.7148H229.835V50.8398H238.671V55.7148ZM289.854 85.7852H283.784V42.9648H289.854V85.7852ZM262.245 56.793H271.455V46.4102H277.338V75.8008H256.268V46.4102H262.245V56.793ZM271.455 70.9258V61.4336H262.245V70.9258H271.455Z" fill="#E07A7A"/>
</svg>
