<svg width="407" height="122" viewBox="0 0 407 122" fill="none" xmlns="http://www.w3.org/2000/svg">
<rect x="1" y="1" width="404.969" height="119.652" rx="59.8261" fill="#FDF4EA" stroke="#EB8B33" stroke-width="2"/>
<path fill-rule="evenodd" clip-rule="evenodd" d="M81.6257 37.4721C80.5989 37.8981 80.8352 37.3567 75.1216 52.3466C71.2836 62.4108 69.8806 66.2064 69.8476 66.6206C69.8086 67.1972 69.9172 67.7743 70.1596 68.2792C70.4021 68.7841 70.7675 69.1941 71.2099 69.4576L71.7056 69.7534L76.611 69.786C79.3102 69.8067 81.5164 69.8333 81.5164 69.8481C81.5164 69.8629 80.0473 74.9838 78.2529 81.2318C75.2868 91.5445 74.9869 92.6687 74.9741 93.4201C74.9614 94.0887 75.0072 94.3579 75.2131 94.8253C75.8434 96.266 77.3201 96.8163 78.6062 96.0885C78.8959 95.9258 83.7912 90.302 94.5984 77.7143C109.843 59.9584 110.174 59.562 110.331 58.9348C110.53 58.1361 110.532 57.8254 110.339 57.0681C110.164 56.3788 109.622 55.6658 109.012 55.3108C108.633 55.0949 108.344 55.0771 104.01 55.0446C101.479 55.0268 99.4097 54.9884 99.4097 54.9588C99.4097 54.9292 100.734 51.823 102.35 48.057C104.33 43.445 105.314 41.031 105.36 40.6641C105.433 40.0625 105.345 39.4492 105.108 38.9077C104.871 38.3663 104.497 37.9228 104.036 37.6378L103.527 37.3301L92.8014 37.3094C83.2879 37.2887 82.0247 37.3094 81.6257 37.4721ZM98.6981 43.2438C98.6981 43.2763 97.3688 46.4033 95.7446 50.1959C93.3885 55.6954 92.7785 57.2131 92.7328 57.6982C92.6921 58.1301 92.7382 58.5671 92.8674 58.9748C92.9967 59.3824 93.2055 59.7495 93.4775 60.0471C94.2095 60.8991 94.4154 60.9376 98.3854 60.9376H101.799L92.6031 71.6408C87.5452 77.5279 83.3947 82.3323 83.3794 82.3145C84.0579 79.8129 84.7595 77.3199 85.4839 74.8358C86.6556 70.7386 87.6164 67.1974 87.6164 66.9637C87.6138 66.1505 87.3373 65.3709 86.8463 64.7923C86.0838 63.9048 86.0253 63.8959 80.8378 63.8959C78.3596 63.8959 76.3314 63.8634 76.3314 63.822C76.3314 63.7806 78.0978 59.1212 80.2583 53.4678L84.1826 43.1876H91.4416C95.432 43.1876 98.6981 43.2142 98.6981 43.2438Z" fill="#EB8B33"/>
<path d="M174.312 85.667H168.383V42.9639H174.312V85.667ZM178.625 63.7529H171.031V58.7842H178.625V63.7529ZM144.172 56.7686H146.867V46.8311H151.766V75.7998H139.227V46.8311H144.172V56.7686ZM146.867 70.9248V61.4795H144.172V70.9248H146.867ZM158.328 56.7686H161.07V46.8311H165.992V75.7998H153.477V46.8311H158.328V56.7686ZM161.07 70.9248V61.4795H158.328V70.9248H161.07ZM224.183 70.8545H185.183V66.0498H224.183V70.8545ZM220.386 84.9404H190.081V80.1123H220.386V84.9404ZM196.081 82.1748H190.081V73.2451H196.081V82.1748ZM219.472 55.7842H195.987V60.2607H190.034V51.4951H213.472V48.6123H189.964V43.9717H219.472V55.7842ZM220.269 63.3311H190.034V58.8311H220.269V63.3311ZM262.517 49.0576C262.517 51.8076 262.056 54.3857 261.134 56.792C260.213 59.1826 258.83 61.2686 256.986 63.0498C255.158 64.8311 252.908 66.1592 250.236 67.0342L247.259 62.3467C249.556 61.5967 251.478 60.5342 253.025 59.1592C254.572 57.7842 255.713 56.2295 256.447 54.4951C257.181 52.7451 257.548 50.9326 257.548 49.0576V44.9561H262.517V49.0576ZM263.759 49.0576C263.759 50.917 264.111 52.667 264.814 54.3076C265.517 55.9482 266.619 57.417 268.119 58.7139C269.634 59.9951 271.517 60.9717 273.767 61.6436L270.814 66.3545C268.158 65.5107 265.931 64.2451 264.134 62.5576C262.338 60.8545 260.986 58.8545 260.08 56.5576C259.189 54.2607 258.744 51.7607 258.744 49.0576V44.9561H263.759V49.0576ZM283.095 85.667H277.119V75.0967H253.798V70.292H283.095V85.667ZM283.095 68.4639H277.119V42.9639H283.095V68.4639ZM308.262 52.6436C308.262 56.2529 307.825 59.6514 306.95 62.8389C306.075 66.0264 304.755 68.8467 302.989 71.2998C301.223 73.7529 299.036 75.6201 296.427 76.9014L292.747 72.0498C295.106 70.9717 297.075 69.4248 298.653 67.4092C300.247 65.3779 301.434 63.0967 302.216 60.5654C303.012 58.0342 303.411 55.3936 303.411 52.6436V46.2686H308.262V52.6436ZM309.364 52.6436C309.364 55.2998 309.739 57.8389 310.489 60.2607C311.239 62.6826 312.372 64.8623 313.887 66.7998C315.419 68.7373 317.278 70.2451 319.466 71.3232L315.856 76.0811C313.356 74.8154 311.262 73.0029 309.575 70.6436C307.887 68.2842 306.637 65.5732 305.825 62.5107C305.012 59.4482 304.606 56.1592 304.606 52.6436V46.2686H309.364V52.6436ZM327.341 85.667H321.341V42.9639H327.341V85.667ZM333.669 64.5264H326.028V59.4404H333.669V64.5264Z" fill="#EB8B33"/>
</svg>
