<svg width="87" height="83" viewBox="0 0 87 83" fill="none" xmlns="http://www.w3.org/2000/svg">
<path fill-rule="evenodd" clip-rule="evenodd" d="M33.8785 8.14768C32.1639 8.62493 31.4208 9.09526 30.8444 10.0705C30.6085 10.4776 30.462 10.9264 30.4139 11.3893C30.3659 11.8522 30.4172 12.3196 30.5647 12.763C30.7123 13.2064 30.953 13.6164 31.2722 13.9681C31.5914 14.3198 31.9824 14.6057 32.4213 14.8084C33.3493 15.2373 34.3026 15.22 36.1695 14.7393C38.0726 14.2482 38.7578 13.8159 39.3305 12.7369C40.0519 11.3743 39.8054 9.76618 38.7143 8.75635C37.5688 7.69118 36.155 7.51481 33.8785 8.14768ZM49.0818 8.04393C47.7768 8.69064 47.1243 9.70739 47.1243 11.1046C47.1243 12.7818 48.1284 14.013 49.8684 14.4661C54.7839 15.7491 58.4451 17.4575 61.7693 20.0201C63.0525 21.0092 65.4885 23.3816 66.431 24.554C70.328 29.414 72.4583 35.3534 72.4993 41.4722C72.4747 47.6106 70.3433 53.5723 66.431 58.4457C65.4921 59.6181 63.0525 61.9905 61.7693 62.9796C57.4964 66.283 52.3267 68.3587 46.8637 68.9643C41.4007 69.57 35.8699 68.6805 30.9169 66.3999C28.1127 65.1478 25.5577 63.4405 23.366 61.3541C19.5263 57.8498 16.7817 53.3973 15.4381 48.4926C15.0031 46.9675 14.6008 46.2516 13.8903 45.7536C13.1109 45.2072 12.5563 45.0619 11.476 45.1173C10.2 45.1864 9.26476 45.6983 8.63401 46.6735C7.95976 47.711 7.95976 48.7208 8.62313 50.9065C10.0182 55.5863 12.431 59.9331 15.7045 63.6638C18.9779 67.3946 23.0385 70.4255 27.6218 72.5591C31.138 74.2053 35.0131 75.3051 39.1493 75.8342C41.404 76.1212 46.5261 76.0451 48.8353 75.6924C54.686 74.7932 59.6233 72.9188 64.2343 69.8374C70.9761 65.3446 75.9165 58.7984 78.2444 51.2737C80.5723 43.7489 80.1493 35.6926 77.045 28.4273C74.9544 23.5765 71.7397 19.2402 67.6421 15.7435C63.5444 12.2469 58.6701 9.6808 53.3846 8.2376C51.2423 7.64968 49.9953 7.59435 49.0818 8.04393ZM20.1035 15.4413C19.1864 15.7111 16.8664 17.8033 16.3154 18.8581C15.6121 20.2034 15.8804 21.6594 17.0331 22.7591C18.1859 23.8589 19.712 24.1148 21.1221 23.4439C22.1988 22.9321 24.381 20.7429 24.6964 19.8576C24.9393 19.2402 24.9878 18.5685 24.8358 17.9252C24.6838 17.2819 24.338 16.695 23.8409 16.2367C22.8621 15.303 21.539 15.0228 20.1035 15.4413ZM42.2051 20.9885C41.7428 21.1766 41.3212 21.4452 40.9618 21.7804C39.8416 22.8491 39.8743 22.524 39.8743 32.854C39.8743 40.95 39.9033 42.0808 40.1099 42.6861C40.3238 43.2947 40.9726 43.9656 46.2361 49.0079C52.6016 55.1049 52.8916 55.3332 54.2945 55.3332C55.4944 55.3297 56.0889 55.098 56.9226 54.3061C57.7528 53.5106 57.9993 52.94 57.9956 51.8057C57.992 50.4811 57.7781 50.2252 52.2645 44.9547L47.1243 40.0439V31.8718C47.1243 22.6416 47.146 22.8387 46.0404 21.7839C45.5491 21.3133 44.9259 20.988 44.2456 20.8469C43.5654 20.7058 42.8569 20.755 42.2051 20.9885ZM11.1498 28.953C9.79763 29.4372 9.10888 30.3571 8.49626 32.5082C7.86188 34.7215 8.07576 36.2224 9.15601 37.1596C10.7365 38.5361 13.4226 38.2801 14.579 36.6478C15.0865 35.9285 15.9529 33.0338 15.9456 32.0759C15.9384 30.9277 15.13 29.7138 13.9954 29.1571C13.2776 28.8043 11.8566 28.704 11.1498 28.953Z" fill="#E7795D"/>
</svg>
