<svg width="87" height="83" viewBox="0 0 87 83" fill="none" xmlns="http://www.w3.org/2000/svg">
<path fill-rule="evenodd" clip-rule="evenodd" d="M49.7347 3.61728C49.3328 3.75297 48.955 3.94657 48.6146 4.19136C47.8678 4.73086 11.4946 46.3657 11.2118 47.0021C10.6282 48.3266 10.9182 49.8483 11.9441 50.827C13.086 51.9164 12.5966 51.8749 24.6098 51.8749H35.2492L35.1695 52.3244C35.1296 52.57 34.5315 58.0722 33.8427 64.5497C32.603 76.2181 32.5957 76.3322 32.835 77.1138C33.0812 77.8715 33.5969 78.5234 34.2931 78.9571C34.9893 79.3909 35.8223 79.5792 36.6485 79.4897C38.2326 79.2822 37.2647 80.3162 57.0137 57.7229C67.084 46.1997 75.4722 36.5129 75.6535 36.1948C76.0197 35.552 76.1593 34.8138 76.0516 34.0894C75.9439 33.365 75.5945 32.693 75.0553 32.1727C73.9134 31.0834 74.4028 31.1249 62.3896 31.1249H51.7502L51.83 30.6753C51.8698 30.4297 52.468 24.9275 53.1567 18.4501C54.3965 6.78165 54.4037 6.66753 54.1645 5.88594C53.628 4.12219 51.6705 3.11928 49.7347 3.61728ZM45.8995 18.4328C45.7255 19.4115 44.2247 33.9641 44.2247 34.6696C44.2247 35.0847 44.3153 35.6276 44.4241 35.8766C44.7068 36.5268 45.479 37.3153 46.1677 37.668C46.755 37.9689 46.8456 37.9724 55.7341 38.0415L64.706 38.1107L52.9936 51.529L41.2305 65.0062C41.2015 65.0373 41.1543 65.0373 41.1217 65.0062C41.0927 64.975 41.448 61.4302 41.9156 57.1315C42.8218 48.7658 42.8835 47.8286 42.5753 47.1231C42.194 46.3737 41.5869 45.7499 40.8317 45.3317C40.2445 45.0308 40.1538 45.0274 31.2653 44.9582L22.2935 44.889L34.0203 31.443C40.4692 24.0491 45.798 17.997 45.8632 17.9901C45.9248 17.9867 45.943 18.1872 45.8995 18.4328Z" fill="#E7795D"/>
</svg>
