<svg width="99" height="74" viewBox="0 0 99 74" fill="none" xmlns="http://www.w3.org/2000/svg">
<path fill-rule="evenodd" clip-rule="evenodd" d="M45.9067 6.47196C44.8935 6.65345 43.9407 6.9881 43.1072 7.45527C42.2736 7.92245 41.5768 8.51227 41.0598 9.18838C40.7463 9.59538 38.197 13.9336 35.392 18.8269L30.2935 27.7254L26.4078 27.7809C22.885 27.8302 22.3983 27.8641 21.1979 28.1355C19.217 28.5977 17.4185 29.4168 15.9604 30.5206C14.5024 31.6244 13.4297 32.9791 12.8365 34.4655L12.457 35.4584V57.0417L12.8365 58.0345C13.4405 59.5407 14.5354 60.9112 16.0228 62.0231C17.5103 63.1349 19.3438 63.9533 21.3588 64.4047L22.687 64.6884H70.537L72.022 64.3985C77.995 63.233 82.7182 59.6718 84.0588 55.3243C84.1825 54.9111 85.3499 50.246 86.6452 44.955C88.8479 35.9764 89.0047 35.2364 89.0005 33.855C88.9964 32.1222 88.7283 31.2527 87.7589 29.785C86.8744 28.4675 85.5801 27.3277 83.9845 26.4613C82.389 25.5948 80.5388 25.027 78.589 24.8055C77.8424 24.7191 74.5259 24.6667 69.6502 24.6667H61.8993L61.8333 19.9492C61.7714 15.4938 61.7467 15.1793 61.4002 14.3098C60.573 12.3176 58.9912 10.5473 56.8462 9.21305C53.5049 7.15338 48.8148 5.97863 45.9067 6.47196ZM49.8295 13.1227C51.3352 13.6592 52.816 14.7661 53.2739 15.7004C53.6122 16.388 53.6245 16.6069 53.6245 22.3049C53.6245 29.0111 53.6163 28.9587 54.8868 29.9084C56.149 30.8488 55.9222 30.8334 67.3195 30.8334C78.3003 30.8334 78.1807 30.8272 79.4017 31.5765C80.1772 32.0544 80.8495 33.0688 80.8495 33.7595C80.8495 34.2528 76.444 52.648 76.0274 53.8967C75.6438 55.0406 75.0745 55.7745 73.8659 56.6779C73.2142 57.162 72.3067 57.7046 71.8447 57.8773C69.9307 58.6019 70.4422 58.5834 53.0635 58.5834H37.1245L37.1204 45.0475L37.1163 31.5117L42.5242 22.052C47.8289 12.7712 47.9403 12.5955 48.3445 12.6664C48.5714 12.7065 49.2397 12.91 49.8295 13.1227ZM28.8745 46.2593V58.605L26.1933 58.5618C23.5987 58.5217 23.4873 58.5094 22.72 58.1733C21.8018 57.7605 21.1146 57.1132 20.7854 56.351C20.674 56.0458 20.6328 52.4321 20.6617 45.9787L20.707 36.075L21.1649 35.4923C21.6805 34.8355 22.4767 34.336 23.3883 34.0925C23.7925 33.9845 24.8444 33.926 26.4408 33.9229L28.8745 33.9167V46.2593Z" fill="#E7795D"/>
</svg>
