<svg width="77" height="74" viewBox="0 0 77 74" fill="none" xmlns="http://www.w3.org/2000/svg">
<path fill-rule="evenodd" clip-rule="evenodd" d="M34.5318 0.188954C31.5037 0.814755 28.9909 3.07308 27.9498 6.10006C27.7098 6.79048 27.6851 7.66796 27.618 17.7692L27.5439 28.6867L26.5557 27.9929C25.3663 27.1562 23.3652 26.2039 22.1088 25.874C20.6865 25.5033 17.8878 25.5407 16.2502 25.9489C14.8774 26.2958 12.3998 27.2651 11.5104 27.8059C10.4658 28.4419 9.8411 29.8363 10.0352 31.0913C10.1623 31.9076 21.583 53.9229 22.7723 55.6472C25.3769 59.4122 28.345 62.0889 32.506 64.4254C36.9423 66.9116 41.5445 68 47.6607 68C53.0146 68 56.9603 67.1871 61.1425 65.2213C70.1315 60.9903 76.0113 52.7155 76.9007 43.0394C77.0948 40.9307 76.9959 38.118 76.6783 36.7167C75.6089 31.9586 71.515 27.8399 66.6023 26.5747C65.974 26.4148 46.2596 24.1939 45.4549 24.1939C45.2926 24.1939 45.2608 22.8368 45.2573 15.9292C45.2573 6.62383 45.2502 6.5558 44.255 4.61038C42.5256 1.22969 38.4528 -0.620507 34.5318 0.188954ZM37.2282 6.99114C37.4611 7.10678 37.7752 7.39928 37.927 7.63735C38.1917 8.05569 38.2023 8.37879 38.2023 16.2353C38.2023 21.0683 38.2623 24.7585 38.347 25.2822C38.7493 27.7718 40.8669 30.037 43.3656 30.6526C43.8244 30.7648 48.7124 31.343 54.2287 31.9348C61.8625 32.7544 64.467 33.0809 65.1517 33.3054C66.2567 33.6536 67.2533 34.2636 68.05 35.0795C68.8467 35.8954 69.418 36.8911 69.7115 37.9751C69.9515 38.8254 69.9798 39.2505 69.9127 41.1994C69.8633 42.7129 69.7398 43.8862 69.5386 44.8045C67.7599 52.9331 61.4213 59.0279 52.884 60.8101C51.5499 61.089 51.017 61.1196 47.5901 61.1264C44.1244 61.1298 43.6444 61.1026 42.2962 60.8169C40.4986 60.4874 38.762 59.9016 37.1435 59.0789C35.0121 58.0982 33.0739 56.7679 31.4155 55.1473C29.1038 52.8923 28.758 52.3312 23.3758 41.985C21.7093 38.8093 20.0634 35.6236 18.4384 32.4279C18.4384 32.3905 18.8054 32.3565 19.2501 32.3599C21.3359 32.3667 23.5911 34.0128 27.2157 38.1656C29.2097 40.4477 29.6403 40.7232 31.2249 40.7232C32.0896 40.7232 32.3155 40.6688 32.9154 40.3117C33.706 39.8389 34.306 39.0703 34.5212 38.2472C34.6236 37.8629 34.673 32.9211 34.673 22.9015C34.673 6.58981 34.6165 7.60334 35.5624 7.04556C35.808 6.88973 36.0934 6.8022 36.3873 6.7926C36.6812 6.783 36.9722 6.8517 37.2282 6.99114Z" fill="#E7795D"/>
</svg>
