<svg width="129" height="121" viewBox="0 0 129 121" fill="none" xmlns="http://www.w3.org/2000/svg">
<path fill-rule="evenodd" clip-rule="evenodd" d="M61.3814 0.248983C58.8423 0.927903 56.7296 2.47972 29.4391 23.7396C-2.0573 48.2648 0.042461 46.4026 0.0230786 49.8619C0.0166178 51.8857 0.552864 53.1595 2.02593 54.5885C3.47315 55.998 4.91391 56.3472 9.22327 56.3472H12.7961L12.809 83.0514C12.8284 112.827 12.7573 111.566 14.6116 114.65C15.6905 116.441 17.8807 118.536 19.7156 119.532C22.5196 121.052 20.9432 121 64.4825 121C108.003 121 106.426 121.052 109.262 119.532C110.994 118.607 113.772 115.827 114.696 114.094C116.175 111.327 116.163 111.605 116.163 82.7927L116.169 56.3472H119.722C121.674 56.3472 123.728 56.2179 124.284 56.0627C125.252 55.7909 126.144 55.2966 126.888 54.6191C127.632 53.9416 128.207 53.0996 128.569 52.1603C128.93 51.2209 129.067 50.21 128.969 49.2082C128.872 48.2064 128.541 47.2413 128.005 46.3897C127.32 45.3163 72.7394 2.6543 70.4782 1.43224C69.6117 0.976377 68.7029 0.606071 67.7646 0.326574C66.2593 -0.0743118 62.7575 -0.113108 61.3814 0.248983ZM85.183 28.9059L105.567 44.7732L104.792 45.7496C103.163 47.8057 103.247 46.0535 103.247 78.4929V108.074H83.8908L83.8068 90.1639L83.7228 72.2533L83.0767 70.1778C82.1175 67.115 80.431 64.3304 78.1615 62.0625C75.892 59.7945 73.1071 58.1108 70.0453 57.1554C68.2815 56.6188 67.4416 56.5218 64.4825 56.5218C61.5235 56.5218 60.6836 56.6188 58.9198 57.1554C55.858 58.1108 53.0731 59.7945 50.8036 62.0625C48.5341 64.3304 46.8475 67.115 45.8883 70.1778L45.2423 72.2533L45.1583 90.1639L45.0743 108.074H25.7177V78.6287C25.7177 46.4285 25.7823 47.7799 24.1994 45.7819L23.3983 44.7732L43.879 28.8348C55.1402 20.067 64.4567 12.9286 64.573 12.9739C71.4757 18.242 78.3458 23.5528 85.183 28.9059ZM67.6936 70.1584C69.018 70.9343 70.0711 72.1951 70.5751 73.6112C70.8529 74.3806 70.924 78.0144 70.9304 91.3277L70.9433 108.074H58.0088L58.0799 90.9398L58.151 73.8051L58.8681 72.5831C59.6692 71.2188 60.9033 70.1713 62.3505 69.6346C63.8171 69.085 66.2722 69.3243 67.6936 70.1584Z" fill="#10161F"/>
</svg>
