<svg width="407" height="122" viewBox="0 0 407 122" fill="none" xmlns="http://www.w3.org/2000/svg">
<rect x="1" y="1" width="405" height="120" rx="60" fill="#F8E7FF" stroke="#AF67D0" stroke-width="2"/>
<path d="M181.195 68.9062H142.289V64.2656H181.195V68.9062ZM164.695 66.1172H158.695V60.1641H164.695V66.1172ZM176.766 81.5859H146.977V76.8516H176.766V81.5859ZM152.953 79.8047H146.977V70.9219H152.953V79.8047ZM179.133 47.6719H144.117V43.1719H179.133V47.6719ZM161.719 48.8906C166.312 48.8906 169.844 49.4375 172.312 50.5312C174.797 51.625 176.039 53.2266 176.039 55.3359C176.039 56.7422 175.484 57.9375 174.375 58.9219C173.266 59.9062 171.641 60.6562 169.5 61.1719C167.359 61.6875 164.766 61.9453 161.719 61.9453C158.672 61.9453 156.078 61.6875 153.938 61.1719C151.797 60.6562 150.164 59.9062 149.039 58.9219C147.914 57.9375 147.352 56.7422 147.352 55.3359C147.352 53.2266 148.594 51.625 151.078 50.5312C153.562 49.4375 157.109 48.8906 161.719 48.8906ZM161.719 53.0625C159.766 53.0625 158.188 53.1406 156.984 53.2969C155.781 53.4375 154.891 53.6797 154.312 54.0234C153.75 54.3672 153.469 54.8047 153.469 55.3359C153.469 55.8984 153.75 56.3516 154.312 56.6953C154.891 57.0234 155.781 57.2734 156.984 57.4453C158.188 57.6016 159.766 57.6797 161.719 57.6797C163.656 57.6797 165.219 57.6016 166.406 57.4453C167.594 57.2734 168.477 57.0234 169.055 56.6953C169.648 56.3516 169.945 55.8984 169.945 55.3359C169.945 54.8047 169.648 54.3672 169.055 54.0234C168.477 53.6797 167.594 53.4375 166.406 53.2969C165.219 53.1406 163.656 53.0625 161.719 53.0625ZM164.695 46.0781H158.695V39.4219H164.695V46.0781ZM222.394 63.0234H216.417V39.6094H222.394V63.0234ZM228.159 53.625H220.706V48.6562H228.159V53.625ZM195.745 46.9453H204.487V41.8125H210.487V61.5H189.816V41.8125H195.745V46.9453ZM204.487 56.7891V51.5625H195.745V56.7891H204.487ZM200.339 68.7422H216.417V64.8516H222.394V81.8438H194.386V64.8516H200.339V68.7422ZM216.417 77.0391V73.3594H200.339V77.0391H216.417ZM265.228 51.2578C265.228 54.5234 264.767 57.6953 263.845 60.7734C262.923 63.8359 261.556 66.5625 259.744 68.9531C257.931 71.3281 255.767 73.1094 253.252 74.2969L249.736 69.5859C252.048 68.5078 254.002 66.9844 255.595 65.0156C257.205 63.0469 258.423 60.875 259.252 58.5C260.08 56.125 260.494 53.7109 260.494 51.2578V46.2891H265.228V51.2578ZM266.494 51.2578C266.494 53.5078 266.884 55.7578 267.666 58.0078C268.463 60.2422 269.642 62.2969 271.205 64.1719C272.783 66.0312 274.697 67.4766 276.947 68.5078L273.619 73.1953C271.119 72.0547 268.978 70.3438 267.197 68.0625C265.416 65.7812 264.064 63.1875 263.142 60.2812C262.22 57.3594 261.759 54.3516 261.759 51.2578V46.2891H266.494V51.2578ZM275.095 48.6562H251.447V43.7812H275.095V48.6562ZM284.4 82.3125H278.4V39.6094H284.4V82.3125ZM290.728 60.9375H283.088V55.9453H290.728V60.9375ZM332.794 82.4297H326.817V39.6094H332.794V82.4297ZM303.145 67.5C307.145 67.5156 310.755 67.4219 313.973 67.2188C317.192 67 320.458 66.625 323.77 66.0938L324.309 70.9219C321.028 71.5 317.755 71.8984 314.489 72.1172C311.239 72.3203 307.458 72.4219 303.145 72.4219H299.325V67.5H303.145ZM319.552 59.6484H305.489V69.375H299.325V54.9609H313.458V48.0469H299.278V43.2188H319.552V59.6484Z" fill="#AF67D0"/>
<g clip-path="url(#clip0_942_22)">
<path fill-rule="evenodd" clip-rule="evenodd" d="M74.2726 39.9427C73.2335 40.2467 72.2942 41.059 71.6971 42.1776C71.1042 43.282 71.134 42.4032 71.1382 58.8359C71.1446 75.3445 71.1064 74.2757 71.7311 75.4347C72.086 76.0926 72.8064 76.8621 73.4099 77.2279C74.1069 77.6506 74.8017 77.767 76.6377 77.767C77.5387 77.7694 78.274 77.786 78.274 77.8074C78.274 77.8288 78.121 78.204 77.934 78.6386C77.747 79.0756 77.5706 79.629 77.543 79.8689C77.475 80.4318 77.679 81.225 78.0062 81.6644C78.5269 82.3674 79.515 82.6738 80.3076 82.3793C81.0344 82.1085 81.3 81.7309 82.235 79.6456L83.0765 77.7694H90.259H97.4415L98.283 79.6456C99.218 81.7309 99.4836 82.1085 100.21 82.3793C101.003 82.6738 101.991 82.3674 102.512 81.6644C102.839 81.225 103.043 80.4318 102.975 79.8689C102.947 79.629 102.771 79.0756 102.584 78.6386C102.397 78.204 102.244 77.8288 102.244 77.8074C102.244 77.786 102.981 77.7694 103.88 77.767C106.362 77.7646 107.046 77.5342 108.111 76.3467C108.766 75.6129 109.093 74.9716 109.259 74.0905C109.441 73.1286 109.441 44.4101 109.259 43.4482C108.948 41.8119 107.709 40.3702 106.245 39.9427C105.727 39.7931 104.569 39.7812 90.259 39.7812C75.9492 39.7812 74.7911 39.7931 74.2726 39.9427ZM105.134 46.8944V49.2694H90.259H75.384V46.8944V44.5194H90.259H105.134V46.8944ZM88.134 63.5194V73.0194H81.759H75.384V63.5194V54.0194H81.759H88.134V63.5194ZM105.134 63.5194V73.0194H98.759H92.384V63.5194V54.0194H98.759H105.134V63.5194ZM83.1891 58.919C82.6706 59.0971 82.0777 59.7526 81.895 60.3511C81.6952 61.009 81.6952 66.0297 81.895 66.6876C82.1585 67.5497 83.0616 68.2694 83.884 68.2694C84.3876 68.2694 84.9762 67.9844 85.3651 67.5497C85.9665 66.8776 86.009 66.614 86.009 63.5194C86.009 60.4247 85.9665 60.1611 85.3651 59.489C84.7722 58.8264 84.0264 58.6316 83.1891 58.919ZM95.9391 58.919C95.4206 59.0971 94.8277 59.7526 94.645 60.3511C94.4452 61.009 94.4452 66.0297 94.645 66.6876C94.9085 67.5497 95.8116 68.2694 96.634 68.2694C97.1376 68.2694 97.7262 67.9844 98.1151 67.5497C98.7165 66.8776 98.759 66.614 98.759 63.5194C98.759 60.4247 98.7165 60.1611 98.1151 59.489C97.5222 58.8264 96.7764 58.6316 95.9391 58.919Z" fill="#AF67D0"/>
</g>
<defs>
<clipPath id="clip0_942_22">
<rect width="45.3711" height="45.3744" fill="white" transform="translate(70 38)"/>
</clipPath>
</defs>
</svg>
