<svg width="187" height="185" viewBox="0 0 187 185" fill="none" xmlns="http://www.w3.org/2000/svg">
<path fill-rule="evenodd" clip-rule="evenodd" d="M60.1038 26.9674C59.1261 27.3664 58.2346 27.9359 57.4747 28.6469C55.5738 30.4659 55.1752 31.8887 55.1752 36.9274V41.13H46.9507C42.3747 41.13 37.929 41.2694 36.9096 41.4454C31.0229 42.4795 25.9257 47.3569 24.8449 52.9897C24.385 55.432 24.385 144.178 24.8449 146.62C25.9257 152.253 31.0229 157.13 36.9096 158.164C39.4697 158.612 147.53 158.612 150.09 158.164C155.977 157.13 161.074 152.253 162.155 146.62C162.615 144.178 162.615 55.432 162.155 52.9897C161.074 47.3569 155.977 42.4795 150.09 41.4454C149.071 41.2694 144.625 41.13 140.049 41.13H131.825V36.9274C131.825 31.8961 131.426 30.4659 129.533 28.6543C128.831 27.9726 127.995 27.4313 127.072 27.0618C126.15 26.6923 125.16 26.502 124.16 26.502C123.16 26.502 122.17 26.6923 121.247 27.0618C120.325 27.4313 119.488 27.9726 118.787 28.6543C116.893 30.4659 116.495 31.8961 116.495 36.9274V41.13H70.5051V36.9274C70.5051 31.8961 70.1065 30.4659 68.2133 28.6543C67.1745 27.6563 65.8568 26.9663 64.4184 26.6671C62.9799 26.3678 61.4818 26.4721 60.1038 26.9674ZM147.155 99.8049V143.811H39.8453V55.7987H147.155V99.8049ZM77.7178 66.6683C67.7074 68.1718 58.9463 76.2396 56.2406 86.471C52.6457 100.01 58.6014 112.332 74.1383 123.51C81.1747 128.57 88.1115 132.34 91.5071 132.956C95.2859 133.638 98.3289 132.626 105.519 128.321C120.32 119.439 128.613 110.242 131.104 99.9516C131.97 96.3504 131.84 90.2996 130.805 86.5224C126.452 70.6362 109.811 62.1503 95.8225 68.6779L93.5 69.7634L91.1775 68.6779C89.7953 68.0443 88.3593 67.5241 86.8851 67.123C83.8755 66.4957 80.7791 66.3421 77.7178 66.6683ZM84.509 81.8577C85.1912 82.1951 86.4712 83.0606 87.3604 83.7867C89.7748 85.7596 90.8249 86.163 93.5 86.163C96.1751 86.163 97.2252 85.7596 99.6396 83.7867C102.115 81.7624 103.441 81.1976 105.764 81.183C113.153 81.1463 118.564 90.5856 115.644 98.4041C115.291 99.3355 114.494 100.92 113.858 101.925C112.417 104.22 106.484 109.912 103.074 112.273C100.084 114.342 93.9522 117.994 93.4693 117.994C92.9634 117.994 86.6782 114.202 83.6888 112.097C80.186 109.626 74.5675 104.213 73.1418 101.925C69.1791 95.595 69.7846 88.7154 74.7208 83.992C77.7255 81.1096 81.3587 80.3249 84.509 81.8577Z" fill="#F37B7C"/>
</svg>
