<svg width="141" height="139" viewBox="0 0 141 139" fill="none" xmlns="http://www.w3.org/2000/svg">
<path fill-rule="evenodd" clip-rule="evenodd" d="M66.8567 18.3307C64.7476 18.8172 26.1488 31.1187 25.4908 31.5125C25.0522 31.7895 24.6462 32.1139 24.2806 32.4797C23.746 33.0415 7.75422 60.1581 7.01985 61.7392C5.6216 64.7509 7.5016 68.4807 10.9737 69.5811L17.3305 71.5908L22.5592 73.2415V85.4445C22.5592 92.1571 22.665 98.5279 22.7883 99.5993C23.2407 103.474 25.6377 106.92 29.01 108.542C30.561 109.295 62.4387 119.517 66.2457 120.484C67.4325 120.791 68.7896 120.93 70.4992 120.93C72.2088 120.93 73.566 120.791 74.7527 120.484C78.5597 119.517 110.437 109.295 111.988 108.542C114.192 107.482 116.042 105.571 117.211 103.161L118.087 101.354L118.204 87.3384L118.322 73.3225L120.202 72.697C121.236 72.3495 124.12 71.4287 126.617 70.6468C131.817 69.0135 132.762 68.4691 133.773 66.5058C134.159 65.7746 134.378 64.9687 134.413 64.145C134.449 63.3214 134.3 62.5001 133.979 61.7392C133.256 60.1755 117.252 33.0473 116.718 32.4797C116.354 32.1141 115.947 31.7915 115.508 31.5183C114.808 31.1013 76.104 18.7824 74.0242 18.3191C72.7259 18.0295 68.1433 18.0353 66.8567 18.3307ZM82.1317 32.9488C87.8187 34.7327 92.601 36.2617 92.7655 36.3485C92.9241 36.4354 87.9832 38.1092 81.7792 40.0668L70.4992 43.6345L59.2192 40.0668C53.0152 38.1092 48.0743 36.4354 48.233 36.3485C48.703 36.0995 69.1421 29.6939 69.7942 29.5955C70.8282 29.4333 71.6096 29.6476 82.1317 32.9488ZM43.1217 47.1384C49.455 49.1365 56.2406 51.291 58.197 51.9165L61.7572 53.0633L56.8281 61.4554C55.1552 64.3384 53.4474 67.2016 51.7051 70.0445C51.5582 70.195 21.5076 60.8936 21.2197 60.6098C21.0728 60.465 31.2777 43.3101 31.4481 43.4086C31.5362 43.4607 36.7885 45.1345 43.1217 47.1384ZM114.885 52.1135C117.605 56.7584 119.808 60.5809 119.773 60.6156C119.491 60.8994 89.4402 70.195 89.2934 70.0445C87.5471 67.2009 85.8373 64.3358 84.1645 61.4496L79.2354 53.0575L85.0281 51.21C104.874 44.8913 109.644 43.4086 109.779 43.5302C109.862 43.6055 112.159 47.4685 114.885 52.1135ZM64.5655 98.7595L64.5067 107.87L49.8192 103.219C44.7813 101.63 39.7483 100.026 34.7205 98.4062C34.3386 98.2499 34.3092 97.5201 34.3092 87.6917C34.3092 79.3864 34.3738 77.145 34.603 77.145C34.7675 77.145 38.8623 78.4076 43.7092 79.9482C53.5968 83.0873 54.6426 83.2958 56.5813 82.4734C57.257 82.1896 58.15 81.5757 58.573 81.1123C58.9901 80.649 60.5 78.2802 61.9217 75.8477L64.5067 71.4171L64.5655 80.539C64.6007 85.5546 64.6007 93.7555 64.5655 98.7595ZM82.5253 81.2398C82.9249 81.6452 83.7885 82.207 84.4465 82.485C86.3382 83.29 87.431 83.0699 97.2892 79.9424C100.307 78.9552 103.343 78.0226 106.395 77.145C106.625 77.145 106.689 79.4038 106.689 87.6743C106.689 93.4602 106.601 98.2499 106.501 98.3136C106.395 98.3773 100.503 100.265 93.4 102.507C88.4073 104.081 83.4175 105.664 78.4305 107.256L76.3742 107.922V71.2491L79.0885 75.8767C80.5807 78.425 82.1317 80.8343 82.5253 81.2398Z" fill="#B07AEF"/>
</svg>
