<svg width="185" height="177" viewBox="0 0 185 177" fill="none" xmlns="http://www.w3.org/2000/svg">
<path fill-rule="evenodd" clip-rule="evenodd" d="M58.9146 22.6339C57.9314 23.0351 57.0349 23.6078 56.2706 24.3228C54.359 26.1518 53.9581 27.5825 53.9581 32.6491V36.875H45.6871C41.0852 36.875 36.6144 37.0151 35.5892 37.1921C29.6692 38.232 24.5431 43.1364 23.4562 48.8004C22.9937 51.2563 22.9937 140.494 23.4562 142.95C24.5431 148.614 29.6692 153.518 35.5892 154.558C38.1637 155.008 146.836 155.008 149.41 154.558C155.33 153.518 160.456 148.614 161.543 142.95C162.006 140.494 162.006 51.2563 161.543 48.8004C160.456 43.1364 155.33 38.232 149.41 37.1921C148.385 37.0151 143.914 36.875 139.312 36.875H131.041V32.6491C131.041 27.5899 130.641 26.1518 128.737 24.3301C128.031 23.6447 127.19 23.1004 126.262 22.7288C125.334 22.3573 124.339 22.1659 123.333 22.1659C122.327 22.1659 121.332 22.3573 120.404 22.7288C119.477 23.1004 118.635 23.6447 117.93 24.3301C116.026 26.1518 115.625 27.5899 115.625 32.6491V36.875H69.3748V32.6491C69.3748 27.5899 68.974 26.1518 67.07 24.3301C66.0253 23.3266 64.7002 22.6328 63.2536 22.3319C61.807 22.0311 60.3004 22.1359 58.9146 22.6339ZM146.458 59V66.375H38.5415V51.625H146.458V59ZM146.458 110.625V140.125H38.5415V81.125H146.458V110.625ZM58.9146 88.9868C56.1781 89.9529 53.9581 93.0356 53.9581 95.875C53.9581 98.8766 56.209 101.856 59.1921 102.808C60.9818 103.408 62.9412 103.35 64.6884 102.644C66.4355 101.937 67.8452 100.634 68.6425 98.9873C70.4308 95.3071 68.8583 91.1181 64.9579 89.1859C63.5858 88.5074 60.5642 88.4115 58.9146 88.9868ZM89.7479 88.9868C87.0115 89.9529 84.7915 93.0356 84.7915 95.875C84.7915 98.8766 87.0423 101.856 90.0254 102.808C91.8152 103.408 93.7746 103.35 95.5217 102.644C97.2689 101.937 98.6785 100.634 99.4758 98.9873C101.264 95.3071 99.6917 91.1181 95.7912 89.1859C94.4192 88.5074 91.3975 88.4115 89.7479 88.9868ZM120.581 88.9868C117.845 89.9529 115.625 93.0356 115.625 95.875C115.625 98.8766 117.876 101.856 120.859 102.808C122.648 103.408 124.608 103.35 126.355 102.644C128.102 101.937 129.512 100.634 130.309 98.9873C132.097 95.3071 130.525 91.1181 126.625 89.1859C125.252 88.5074 122.231 88.4115 120.581 88.9868ZM58.9146 111.112C56.1781 112.078 53.9581 115.161 53.9581 118C53.9581 121.002 56.209 123.981 59.1921 124.933C60.9818 125.533 62.9412 125.475 64.6884 124.769C66.4355 124.062 67.8452 122.759 68.6425 121.112C70.4308 117.432 68.8583 113.243 64.9579 111.311C63.5858 110.632 60.5642 110.537 58.9146 111.112ZM89.7479 111.112C87.0115 112.078 84.7915 115.161 84.7915 118C84.7915 121.002 87.0423 123.981 90.0254 124.933C91.8152 125.533 93.7746 125.475 95.5217 124.769C97.2689 124.062 98.6785 122.759 99.4758 121.112C101.264 117.432 99.6917 113.243 95.7912 111.311C94.4192 110.632 91.3975 110.537 89.7479 111.112ZM120.581 111.112C117.845 112.078 115.625 115.161 115.625 118C115.625 121.002 117.876 123.981 120.859 124.933C122.648 125.533 124.608 125.475 126.355 124.769C128.102 124.062 129.512 122.759 130.309 121.112C132.097 117.432 130.525 113.243 126.625 111.311C125.252 110.632 122.231 110.537 120.581 111.112Z" fill="#F5774B"/>
</svg>
