<svg width="125" height="128" viewBox="0 0 125 128" fill="none" xmlns="http://www.w3.org/2000/svg">
<path fill-rule="evenodd" clip-rule="evenodd" d="M30.7432 13.099C28.7515 13.4572 24.8455 15.5809 21.9381 17.8938C16.9975 21.8187 13.4123 27.335 11.6585 33.7111C11.017 36.0343 10.9912 36.2901 11.0015 39.821C11.0222 47.3023 13.0967 55.2186 17.4476 64.3835C26.0561 82.5393 43.6457 99.9225 62.1303 108.55C70.7854 112.588 78.6076 114.696 86.0004 114.977C90.5426 115.151 94.2572 114.338 98.727 112.188C105.261 109.046 110.481 103.73 113.259 97.3894C113.88 95.9771 113.994 95.4807 113.999 94.1758C114.013 93.308 113.899 92.4428 113.663 91.607C112.68 88.7209 106.187 82.2221 99.1512 77.0793C95.4626 74.3877 90.1029 70.7135 89.1976 70.2581C87.7387 69.58 86.1068 69.3535 84.5156 69.6082C82.2704 70.0125 81.4426 70.5907 77.1694 74.7714L73.1962 78.6554L70.6457 77.3403C61.0853 72.3971 54.096 65.4889 49.0364 55.9811L47.6706 53.4072L51.6283 49.4464C56.0308 45.0405 56.543 44.2781 56.8224 41.7502C57.0034 40.1178 56.8069 38.8487 56.1809 37.6257C55.3117 35.9268 49.2019 27.3095 46.4963 23.9577C43.0352 19.6797 37.5566 14.6598 35.2027 13.6005C33.7883 13.0419 32.2483 12.8687 30.7432 13.099ZM33.3092 24.9044C36.3771 27.6984 39.3311 31.2548 43.4595 37.1396L45.8858 40.5937L42.0626 44.406C37.4893 48.9654 37.1324 49.5232 36.9979 52.3223C36.9151 54.1236 36.9358 54.2464 37.7946 56.3751C40.433 62.9251 45.9168 70.9438 51.2661 76.061C56.4499 81.0144 63.1081 85.4254 69.5283 88.1427C72.0167 89.1968 73.2945 89.4424 75.0845 89.207C77.2056 88.9307 78.1265 88.2911 82.2911 84.2075L86.1401 80.4311L89.7666 82.9845C95.504 87.0271 98.9132 89.8416 102.028 93.1012L103.259 94.3908L102.902 95.0458C102.24 96.2637 100.501 98.4027 99.1926 99.6154C95.892 102.67 91.6187 104.569 87.63 104.758C81.1374 105.07 70.4802 101.826 61.6854 96.8624C49.2071 89.8262 36.3771 77.1356 29.2636 64.7929C24.2092 56.0323 20.9707 45.5932 21.2862 39.1046C21.4932 34.8778 23.4694 30.738 26.9097 27.3146C28.5342 25.7027 31.183 23.753 31.752 23.753C31.9124 23.753 32.6108 24.2699 33.3092 24.9044Z" fill="#FAC96B"/>
</svg>
