<svg width="141" height="139" viewBox="0 0 141 139" fill="none" xmlns="http://www.w3.org/2000/svg">
<path fill-rule="evenodd" clip-rule="evenodd" d="M36.3777 0.492144C35.3789 0.912308 34.468 1.51206 33.6915 2.26078C31.7493 4.17616 31.342 5.67448 31.342 10.9804V15.4058H22.9387C18.2633 15.4058 13.721 15.5526 12.6793 15.738C6.66469 16.8269 1.45668 21.9629 0.352422 27.8944C-0.117474 30.4663 -0.117474 123.918 0.352422 126.49C1.45668 132.422 6.66469 137.558 12.6793 138.647C15.2951 139.118 125.705 139.118 128.321 138.647C134.335 137.558 139.543 132.422 140.648 126.49C141.117 123.918 141.117 30.4663 140.648 27.8944C139.543 21.9629 134.335 16.8269 128.321 15.738C127.279 15.5526 122.737 15.4058 118.061 15.4058H109.658V10.9804C109.658 5.68221 109.251 4.17616 107.316 2.2685C106.599 1.55068 105.745 0.980636 104.802 0.591543C103.86 0.20245 102.848 0.00207509 101.826 0.00207509C100.805 0.00207509 99.7931 0.20245 98.8506 0.591543C97.9081 0.980636 97.0535 1.55068 96.3364 2.2685C94.402 4.17616 93.9948 5.68221 93.9948 10.9804V15.4058H47.0052V10.9804C47.0052 5.68221 46.598 4.17616 44.6636 2.2685C43.6022 1.21759 42.2559 0.491009 40.7862 0.175923C39.3164 -0.139162 37.7858 -0.0293643 36.3777 0.492144ZM125.321 77.1923V123.532H15.6788V30.8525H125.321V77.1923ZM54.3747 42.2984C44.1467 43.8817 35.1952 52.3773 32.4306 63.1513C28.7576 77.4086 34.8428 90.3837 50.7174 102.154C57.9068 107.483 64.9944 111.453 68.4638 112.102C72.3248 112.82 75.4339 111.754 82.7799 107.221C97.9027 97.8676 106.377 88.1826 108.922 77.3468C109.807 73.5546 109.674 67.1829 108.616 63.2054C104.168 46.4767 87.1656 37.5408 72.873 44.4146L70.5 45.5576L68.127 44.4146C66.7148 43.7474 65.2476 43.1996 63.7413 42.7772C60.6663 42.1167 57.5026 41.9549 54.3747 42.2984ZM61.3135 58.2934C62.0105 58.6486 63.3184 59.56 64.2269 60.3246C66.6938 62.4022 67.7668 62.827 70.5 62.827C73.2332 62.827 74.3061 62.4022 76.7731 60.3246C79.3027 58.193 80.6576 57.5983 83.0305 57.5828C90.5802 57.5442 96.1093 67.4841 93.1255 75.7171C92.7652 76.698 91.9507 78.3662 91.3007 79.4243C89.8284 81.8417 83.7667 87.835 80.2816 90.3219C77.2273 92.4999 70.9621 96.3461 70.4687 96.3461C69.9518 96.3461 63.5299 92.3531 60.4756 90.1366C56.8965 87.5338 51.156 81.834 49.6993 79.4243C45.6503 72.7591 46.269 65.5147 51.3126 60.5409C54.3826 57.5056 58.0947 56.6792 61.3135 58.2934Z" fill="#F37B7C"/>
</svg>
