<svg width="141" height="139" viewBox="0 0 141 139" fill="none" xmlns="http://www.w3.org/2000/svg">
<path fill-rule="evenodd" clip-rule="evenodd" d="M33.5984 12.7301C31.3366 13.1355 26.9009 15.5391 23.5992 18.1569C17.9886 22.5991 13.9172 28.8425 11.9256 36.0589C11.1971 38.6884 11.1677 38.9779 11.1794 42.9742C11.2029 51.4416 13.5588 60.4013 18.4997 70.7742C28.2757 91.323 48.2507 110.997 69.2421 120.762C79.0709 125.332 87.9539 127.718 96.3493 128.036C101.508 128.233 105.726 127.312 110.802 124.88C118.222 121.324 124.15 115.306 127.305 108.13C128.01 106.532 128.139 105.97 128.145 104.493C128.16 103.511 128.032 102.532 127.763 101.586C126.647 98.3194 119.274 90.9639 111.284 85.1433C107.095 82.0969 101.008 77.9385 99.9801 77.423C98.3233 76.6556 96.4702 76.3992 94.6632 76.6875C92.1134 77.145 91.1734 77.7995 86.3207 82.5313L81.8087 86.9271L78.9123 85.4387C68.0553 79.8439 60.1182 72.0252 54.3724 61.2643L52.8214 58.3511L57.3158 53.8683C62.3154 48.8817 62.8971 48.0187 63.2143 45.1576C63.4199 43.3101 63.1967 41.8738 62.4858 40.4896C61.4988 38.5667 54.5604 28.8136 51.4878 25.02C47.5574 20.1782 41.3358 14.4966 38.6627 13.2977C37.0565 12.6655 35.3076 12.4694 33.5984 12.7301ZM36.5124 26.0915C39.9963 29.2537 43.3509 33.2789 48.0392 39.9394L50.7946 43.8487L46.4529 48.1635C41.2594 53.3239 40.8541 53.9552 40.7013 57.1232C40.6073 59.1619 40.6308 59.3009 41.6061 61.7102C44.6023 69.1236 50.8298 78.1991 56.9046 83.9908C62.7913 89.5971 70.3524 94.5895 77.6433 97.6649C80.4692 98.858 81.9203 99.136 83.9531 98.8696C86.3618 98.5568 87.4076 97.8329 92.1369 93.2111L96.5079 88.9369L100.626 91.8269C107.142 96.4023 111.013 99.5877 114.55 103.277L115.948 104.737L115.543 105.478C114.791 106.856 112.817 109.277 111.331 110.65C107.582 114.107 102.73 116.256 98.1999 116.47C90.8268 116.824 78.7243 113.152 68.7368 107.534C54.5663 99.5704 39.9963 85.207 31.9182 71.2375C26.1783 61.3222 22.5006 49.5072 22.8589 42.1634C23.0939 37.3794 25.3382 32.694 29.2451 28.8194C31.0898 26.995 34.0978 24.7884 34.7441 24.7884C34.9262 24.7884 35.7193 25.3733 36.5124 26.0915Z" fill="#10161F"/>
</svg>
