<svg width="299" height="99" viewBox="0 0 299 99" fill="none" xmlns="http://www.w3.org/2000/svg">
<rect x="0.98909" y="3.49397" width="296.727" height="87.0399" rx="43.52" fill="#FFE9C4" stroke="#EF7601" stroke-width="1.97818"/>
<path d="M116.925 54.9746C119.645 54.9746 122.021 54.9127 124.055 54.7891C126.101 54.6517 128.238 54.3907 130.463 54.0061L130.855 57.7358C128.574 58.1479 126.41 58.4226 124.364 58.56C122.33 58.6836 119.851 58.7523 116.925 58.7661H114.349V54.9746H116.925ZM127.558 47.9685H118.779V56.52H114.349V44.3212H123.148V37.954H114.287V34.2655H127.558V47.9685ZM145.279 67.6267H140.951V30.4122H145.279V67.6267ZM135.223 47.0824H129.206V43.3734H135.223V47.0824ZM137.613 65.7927H133.327V31.1952H137.613V65.7927ZM185.786 49.8024H181.418V30.4534H185.786V49.8024ZM178.203 49.6376H173.938V31.1334H178.203V49.6376ZM175.318 42.1576H168.889V38.4485H175.318V42.1576ZM185.786 60.8885H165.221V65.8339H160.626V57.4885H181.212V54.8921H160.564V51.3685H185.786V60.8885ZM187.126 67.3382H160.626V63.7733H187.126V67.3382ZM159.699 36.9031H165.839V32.5552H170.084V48.3806H155.372V32.5552H159.699V36.9031ZM165.839 44.8364V40.3443H159.699V44.8364H165.839ZM210.134 60.1055L220.664 49.9673C221.818 48.8133 222.711 47.8723 223.343 47.1443C223.975 46.4024 224.455 45.6675 224.785 44.9394C225.115 44.2113 225.28 43.442 225.28 42.6315C225.28 41.7386 225.053 40.9487 224.6 40.2618C224.146 39.575 223.535 39.0461 222.766 38.6752C221.996 38.2905 221.117 38.0982 220.128 38.0982C219.139 38.0982 218.26 38.3043 217.491 38.7164C216.721 39.1148 216.131 39.6917 215.718 40.4473C215.306 41.2029 215.1 42.0752 215.1 43.0643H210.011C210.011 41.2097 210.443 39.5818 211.309 38.1806C212.174 36.7657 213.376 35.6736 214.915 34.9043C216.467 34.135 218.232 33.7503 220.211 33.7503C222.216 33.7503 223.988 34.1212 225.527 34.8631C227.066 35.6049 228.261 36.6283 229.112 37.9334C229.978 39.2384 230.411 40.722 230.411 42.3843C230.411 43.5382 230.191 44.6509 229.751 45.7224C229.312 46.794 228.556 47.9754 227.485 49.2667C226.427 50.558 224.909 52.1378 222.931 54.0061L217.614 59.2812V59.5079H230.864V64H210.155L210.134 60.1055Z" fill="#EF7601"/>
<path fill-rule="evenodd" clip-rule="evenodd" d="M57.3721 29.111C56.7577 29.2905 56.209 29.6451 55.793 30.1316C55.3771 30.6181 55.1121 31.2153 55.0303 31.8501C54.9219 32.885 54.8901 32.817 58.8766 39.7955C60.9102 43.357 62.5549 46.3129 62.5337 46.366C62.3416 46.6348 62.1359 46.8937 61.9174 47.1416C60.8831 48.3911 60.054 49.7969 59.4609 51.3066C58.9318 52.6432 58.4834 55.0445 58.4834 56.5448C58.4834 62.1717 61.6794 67.395 66.6413 69.8791C69.879 71.524 73.6089 71.9196 77.1197 70.9905C82.3451 69.6433 86.5037 65.4485 87.7681 60.2529C88.1851 58.5899 88.3123 56.8675 88.1442 55.1614C87.8382 52.163 86.7884 49.6406 84.8143 47.1607C84.5861 46.8808 84.3657 46.5945 84.1534 46.3023C84.1534 46.2874 85.8152 43.3591 87.8467 39.7934C90.7707 34.6636 91.5612 33.2144 91.6398 32.834C91.9373 31.3975 91.1638 29.9121 89.7826 29.264L89.2959 29.0366L83.8814 29.0133C78.0653 28.9856 77.8443 29.0005 76.9901 29.4276C76.3707 29.7427 75.8342 30.1992 75.4239 30.76C75.2369 31.0278 74.7121 31.9075 74.2552 32.7129C73.7962 33.5204 73.3946 34.1791 73.3584 34.1791C73.3223 34.1791 72.8973 33.4843 72.4149 32.6321C71.1633 30.4306 70.7766 29.9653 69.7693 29.4531C68.8959 29.009 68.7174 28.9963 63.0309 29.0005C59.1337 29.0048 57.6589 29.0324 57.3721 29.111ZM70.2899 37.4559C71.6138 39.7743 72.6827 41.6825 72.6657 41.6995C72.3128 41.771 71.9569 41.8264 71.5989 41.8653C69.8768 42.0747 68.2034 42.5786 66.6519 43.3549L65.9826 43.6906L63.1096 38.6586C62.1183 36.9137 61.1203 35.1726 60.1154 33.4354L59.9943 33.2441H67.8823L70.2899 37.4559ZM86.6014 33.4354C85.5966 35.1726 84.5986 36.9137 83.6073 38.6586L80.7343 43.6906L80.0012 43.3251C79.5597 43.1081 79.1103 42.9075 78.6539 42.7238L78.0419 42.4858L76.9263 40.5308C76.0933 39.0709 75.8277 38.5354 75.8808 38.427C75.9191 38.3463 76.5991 37.1456 77.3917 35.7623L78.8324 33.2441H86.7226L86.6014 33.4354ZM75.9084 46.3193C78.0334 46.8781 79.6123 47.8025 81.0722 49.3452C82.4216 50.769 83.3247 52.4881 83.7858 54.5069C83.9877 55.3951 83.9877 57.875 83.7858 58.7016C83.3927 60.3039 82.8211 61.632 82.0539 62.7242C81.5121 63.4999 80.0756 64.913 79.3467 65.389C78.0717 66.222 76.6628 66.8085 75.2709 67.0848C74.4039 67.2547 72.0431 67.2335 71.2759 67.0444C69.6758 66.6534 68.3477 66.0817 67.2533 65.3146C66.4734 64.7685 65.0646 63.3341 64.5801 62.5925C63.7972 61.4183 63.2389 60.1091 62.9332 58.7314C62.8312 58.283 62.7887 57.6838 62.7844 56.6191C62.7781 55.2506 62.7972 55.0572 63.0182 54.1966C63.5834 52.01 64.5269 50.378 66.0824 48.9075C67.3778 47.6676 68.97 46.7815 70.7064 46.3341C71.7774 46.0557 72.3108 46.0026 73.6559 46.0345C74.7397 46.06 75.0776 46.1025 75.9084 46.3193ZM72.2471 52.5243C70.4217 53.0002 69.0936 54.7619 69.1127 56.6786C69.1339 58.7122 70.6809 60.4887 72.6997 60.799C74.0873 61.0115 75.3432 60.5992 76.3398 59.6005C77.0283 58.912 77.3981 58.198 77.5383 57.2779C77.6334 56.6735 77.5965 56.0558 77.4303 55.4671C77.264 54.8783 76.9723 54.3326 76.5752 53.8672C76.1781 53.4019 75.685 53.028 75.1297 52.7712C74.5745 52.5144 73.9702 52.3809 73.3584 52.3797C73.0546 52.3798 72.5552 52.4456 72.2471 52.5243Z" fill="#EF7601"/>
</svg>
