<svg width="495" height="159" viewBox="0 0 495 159" fill="none" xmlns="http://www.w3.org/2000/svg">
<rect width="495" height="148" rx="74" fill="#0469D1"/>
<path d="M221.002 86.168C224.869 86.168 228.248 86.0801 231.139 85.9043C234.049 85.709 237.086 85.3379 240.25 84.791L240.807 90.0938C237.564 90.6797 234.488 91.0703 231.578 91.2656C228.688 91.4414 225.162 91.5391 221.002 91.5586H217.34V86.168H221.002ZM236.119 76.207H223.639V88.3652H217.34V71.0215H229.85V61.9688H217.252V56.7246H236.119V76.207ZM261.314 104.156H255.162V51.2461H261.314V104.156ZM247.018 74.9473H238.463V69.6738H247.018V74.9473ZM250.416 101.549H244.322V52.3594H250.416V101.549ZM318.906 78.8145H312.695V51.3047H318.906V78.8145ZM308.125 78.5801H302.061V52.2715H308.125V78.5801ZM304.023 67.9453H294.883V62.6719H304.023V67.9453ZM318.906 94.5762H289.668V101.607H283.135V89.7422H312.402V86.0508H283.047V81.041H318.906V94.5762ZM320.811 103.746H283.135V98.6777H320.811V103.746ZM281.816 60.4746H290.547V54.293H296.582V76.793H275.664V54.293H281.816V60.4746ZM290.547 71.7539V65.3672H281.816V71.7539H290.547ZM368.582 99.5859C365.809 99.5859 363.289 99.0684 361.023 98.0332C358.777 96.9785 357.01 95.5332 355.721 93.6973C354.432 91.8613 353.738 89.791 353.641 87.4863H361.053C361.17 88.6191 361.57 89.6348 362.254 90.5332C362.938 91.4316 363.836 92.1348 364.949 92.6426C366.062 93.1504 367.273 93.4043 368.582 93.4043C370.145 93.4043 371.541 93.0527 372.771 92.3496C374.002 91.6465 374.969 90.6797 375.672 89.4492C376.375 88.2188 376.727 86.8223 376.727 85.2598C376.727 83.6582 376.365 82.2324 375.643 80.9824C374.939 79.7324 373.953 78.7559 372.684 78.0527C371.414 77.3301 369.969 76.9688 368.348 76.9688C366.668 76.9492 365.242 77.2324 364.07 77.8184C362.898 78.4043 361.98 79.332 361.316 80.6016H354.256L356.805 56.5781H381.854V62.9648H363.104L361.814 74.2441H362.166C363.025 73.2871 364.188 72.5059 365.652 71.9004C367.137 71.2949 368.729 70.9922 370.428 70.9922C373.025 70.9922 375.369 71.5977 377.459 72.8086C379.549 74 381.18 75.6699 382.352 77.8184C383.543 79.9473 384.139 82.3594 384.139 85.0547C384.139 87.8477 383.475 90.3477 382.146 92.5547C380.818 94.7617 378.973 96.4902 376.609 97.7402C374.266 98.9707 371.59 99.5859 368.582 99.5859Z" fill="white"/>
<path fill-rule="evenodd" clip-rule="evenodd" d="M119.167 51.1463C118.347 51.3829 117.614 51.8504 117.059 52.4917C116.503 53.133 116.15 53.9202 116.04 54.757C115.896 56.1212 115.853 56.0315 121.175 65.2305C123.89 69.9252 126.086 73.8216 126.058 73.8917C125.801 74.246 125.527 74.5873 125.235 74.9141C123.854 76.5611 122.747 78.4143 121.956 80.4043C121.249 82.1663 120.651 85.3316 120.651 87.3092C120.651 94.7266 124.917 101.612 131.542 104.886C135.864 107.055 140.844 107.576 145.531 106.351C152.507 104.575 158.059 99.046 159.747 92.1972C160.303 90.0051 160.473 87.7347 160.249 85.4856C159.84 81.5332 158.439 78.2082 155.803 74.9393C155.498 74.5703 155.204 74.1929 154.921 73.8076C154.921 73.788 157.139 69.928 159.852 65.2277C163.755 58.4657 164.811 56.5553 164.916 56.0539C165.313 54.1604 164.28 52.2024 162.436 51.348L161.786 51.0483L154.558 51.0175C146.793 50.9811 146.498 51.0007 145.358 51.5637C144.531 51.9791 143.814 52.5807 143.267 53.32C143.017 53.673 142.316 54.8326 141.706 55.8943C141.094 56.9587 140.557 57.8271 140.509 57.8271C140.461 57.8271 139.894 56.9111 139.25 55.7878C137.579 52.8858 137.062 52.2724 135.718 51.5973C134.552 51.0119 134.313 50.9951 126.722 51.0007C121.519 51.0063 119.55 51.0427 119.167 51.1463ZM136.413 62.1464C138.18 65.2025 139.607 67.7179 139.584 67.7403C139.113 67.8346 138.638 67.9076 138.16 67.9588C135.861 68.2349 133.627 68.8991 131.556 69.9224L130.662 70.365L126.827 63.7319C125.503 61.4317 124.171 59.1366 122.829 56.8467L122.668 56.5946H133.198L136.413 62.1464ZM158.189 56.8467C156.848 59.1366 155.515 61.4317 154.192 63.7319L150.356 70.365L149.378 69.8832C148.788 69.5972 148.188 69.3327 147.579 69.0905L146.762 68.7768L145.272 66.1997C144.16 64.2753 143.806 63.5694 143.877 63.4266C143.928 63.3201 144.836 61.7375 145.894 59.9139L147.817 56.5946H158.351L158.189 56.8467ZM143.914 73.83C146.75 74.5667 148.858 75.7852 150.807 77.8189C152.609 79.6956 153.815 81.9618 154.43 84.6229C154.7 85.7937 154.7 89.0627 154.43 90.1523C153.905 92.2644 153.142 94.0151 152.118 95.4549C151.395 96.4773 149.477 98.3401 148.504 98.9676C146.802 100.066 144.921 100.839 143.062 101.203C141.905 101.427 138.753 101.399 137.729 101.15C135.593 100.634 133.82 99.8807 132.359 98.8695C131.317 98.1496 129.437 96.2588 128.79 95.2812C127.745 93.7334 126.999 92.0077 126.591 90.1916C126.455 89.6005 126.398 88.8106 126.393 87.4072C126.384 85.6033 126.41 85.3484 126.705 84.2139C127.459 81.3315 128.719 79.1802 130.795 77.2418C132.525 75.6074 134.651 74.4393 136.969 73.8496C138.399 73.4827 139.111 73.4127 140.906 73.4547C142.353 73.4883 142.804 73.5443 143.914 73.83ZM139.025 82.0094C136.589 82.6368 134.815 84.959 134.841 87.4856C134.869 90.1663 136.935 92.5081 139.63 92.9171C141.482 93.1972 143.159 92.6538 144.489 91.3372C145.409 90.4296 145.902 89.4885 146.089 88.2756C146.216 87.4789 146.167 86.6646 145.945 85.8886C145.723 85.1125 145.334 84.3931 144.804 83.7797C144.274 83.1662 143.615 82.6734 142.874 82.3349C142.133 81.9965 141.326 81.8204 140.509 81.8189C140.104 81.8189 139.437 81.9057 139.025 82.0094Z" fill="white"/>
</svg>
