<svg width="306" height="102" viewBox="0 0 306 102" fill="none" xmlns="http://www.w3.org/2000/svg">
<rect x="1.01261" y="6.01261" width="303.783" height="89.1096" rx="44.5548" fill="#FAECE7" stroke="#E6725B" stroke-width="2.02522"/>
<path d="M123.354 56.7599C126.139 56.7599 128.572 56.6967 130.654 56.5701C132.749 56.4294 134.936 56.1622 137.215 55.7684L137.615 59.5868C135.281 60.0087 133.066 60.29 130.97 60.4306C128.889 60.5572 126.35 60.6275 123.354 60.6416H120.717V56.7599H123.354ZM134.24 49.5873H125.253V58.3421H120.717V45.8533H129.725V39.3346H120.654V35.5584H134.24V49.5873ZM152.383 69.7129H147.952V31.6135H152.383V69.7129ZM142.088 48.6802H135.928V44.8829H142.088V48.6802ZM144.535 67.8354H140.147V32.4151H144.535V67.8354ZM193.853 51.4648H189.381V31.6557H193.853V51.4648ZM186.09 51.2961H181.723V32.3518H186.09V51.2961ZM183.136 43.6382H176.554V39.8409H183.136V43.6382ZM193.853 62.8145H172.799V67.8775H168.095V59.3337H189.17V56.6756H168.032V53.0681H193.853V62.8145ZM195.224 69.4176H168.095V65.7679H195.224V69.4176ZM167.146 38.2587H173.432V33.8075H177.778V50.0092H162.715V33.8075H167.146V38.2587ZM173.432 46.3807V41.7818H167.146V46.3807H173.432ZM231.185 66H225.658V40.8113H225.489L218.337 45.3892V40.3472L225.911 35.453H231.185V66Z" fill="#E6725B"/>
<path fill-rule="evenodd" clip-rule="evenodd" d="M62.3721 29.111C61.7577 29.2905 61.209 29.6451 60.793 30.1316C60.3771 30.6181 60.1121 31.2153 60.0303 31.8501C59.9219 32.885 59.8901 32.817 63.8766 39.7955C65.9102 43.357 67.5549 46.3129 67.5337 46.366C67.3416 46.6348 67.1359 46.8937 66.9174 47.1416C65.8831 48.3911 65.054 49.7969 64.4609 51.3066C63.9318 52.6432 63.4834 55.0445 63.4834 56.5448C63.4834 62.1717 66.6794 67.395 71.6413 69.8791C74.879 71.524 78.6089 71.9196 82.1197 70.9905C87.3451 69.6433 91.5037 65.4485 92.7681 60.2529C93.1851 58.5899 93.3123 56.8675 93.1442 55.1614C92.8382 52.163 91.7884 49.6406 89.8143 47.1607C89.5861 46.8808 89.3657 46.5945 89.1534 46.3023C89.1534 46.2874 90.8152 43.3591 92.8467 39.7934C95.7707 34.6636 96.5612 33.2144 96.6398 32.834C96.9373 31.3975 96.1638 29.9121 94.7826 29.264L94.2959 29.0366L88.8814 29.0133C83.0653 28.9856 82.8443 29.0005 81.9901 29.4276C81.3707 29.7427 80.8342 30.1992 80.4239 30.76C80.2369 31.0278 79.7121 31.9075 79.2552 32.7129C78.7962 33.5204 78.3946 34.1791 78.3584 34.1791C78.3223 34.1791 77.8973 33.4843 77.4149 32.6321C76.1633 30.4306 75.7766 29.9653 74.7693 29.4531C73.8959 29.009 73.7174 28.9963 68.0309 29.0005C64.1337 29.0048 62.6589 29.0324 62.3721 29.111ZM75.2899 37.4559C76.6138 39.7743 77.6827 41.6825 77.6657 41.6995C77.3128 41.771 76.9569 41.8264 76.5989 41.8653C74.8768 42.0747 73.2034 42.5786 71.6519 43.3549L70.9826 43.6906L68.1096 38.6586C67.1183 36.9137 66.1203 35.1726 65.1154 33.4354L64.9943 33.2441H72.8823L75.2899 37.4559ZM91.6014 33.4354C90.5966 35.1726 89.5986 36.9137 88.6073 38.6586L85.7343 43.6906L85.0012 43.3251C84.5597 43.1081 84.1103 42.9075 83.6539 42.7238L83.0419 42.4858L81.9263 40.5308C81.0933 39.0709 80.8277 38.5354 80.8808 38.427C80.9191 38.3463 81.5991 37.1456 82.3917 35.7623L83.8324 33.2441H91.7226L91.6014 33.4354ZM80.9084 46.3193C83.0334 46.8781 84.6123 47.8025 86.0722 49.3452C87.4216 50.769 88.3247 52.4881 88.7858 54.5069C88.9877 55.3951 88.9877 57.875 88.7858 58.7016C88.3927 60.3039 87.8211 61.632 87.0539 62.7242C86.5121 63.4999 85.0756 64.913 84.3467 65.389C83.0717 66.222 81.6628 66.8085 80.2709 67.0848C79.4039 67.2547 77.0431 67.2335 76.2759 67.0444C74.6758 66.6534 73.3477 66.0817 72.2533 65.3146C71.4734 64.7685 70.0646 63.3341 69.5801 62.5925C68.7972 61.4183 68.2389 60.1091 67.9332 58.7314C67.8312 58.283 67.7887 57.6838 67.7844 56.6191C67.7781 55.2506 67.7972 55.0572 68.0182 54.1966C68.5834 52.01 69.5269 50.378 71.0824 48.9075C72.3778 47.6676 73.97 46.7815 75.7064 46.3341C76.7774 46.0557 77.3108 46.0026 78.6559 46.0345C79.7397 46.06 80.0776 46.1025 80.9084 46.3193ZM77.2471 52.5243C75.4217 53.0002 74.0936 54.7619 74.1127 56.6786C74.1339 58.7122 75.6809 60.4887 77.6997 60.799C79.0873 61.0115 80.3432 60.5992 81.3398 59.6005C82.0283 58.912 82.3981 58.198 82.5383 57.2779C82.6334 56.6735 82.5965 56.0558 82.4303 55.4671C82.264 54.8783 81.9723 54.3326 81.5752 53.8672C81.1781 53.4019 80.685 53.028 80.1297 52.7712C79.5745 52.5144 78.9702 52.3809 78.3584 52.3797C78.0546 52.3798 77.5552 52.4456 77.2471 52.5243Z" fill="#E6725B"/>
</svg>
