<svg width="299" height="99" viewBox="0 0 299 99" fill="none" xmlns="http://www.w3.org/2000/svg">
<rect x="0.98909" y="3.49397" width="296.727" height="87.0399" rx="43.52" fill="#FDF8DE" stroke="#F7B000" stroke-width="1.97818"/>
<path d="M116.925 54.9746C119.645 54.9746 122.021 54.9127 124.055 54.7891C126.101 54.6517 128.238 54.3907 130.463 54.0061L130.855 57.7358C128.574 58.1479 126.41 58.4226 124.364 58.56C122.33 58.6836 119.851 58.7523 116.925 58.7661H114.349V54.9746H116.925ZM127.558 47.9685H118.779V56.52H114.349V44.3212H123.148V37.954H114.287V34.2655H127.558V47.9685ZM145.279 67.6267H140.951V30.4122H145.279V67.6267ZM135.223 47.0824H129.206V43.3734H135.223V47.0824ZM137.613 65.7927H133.327V31.1952H137.613V65.7927ZM185.786 49.8024H181.418V30.4534H185.786V49.8024ZM178.203 49.6376H173.938V31.1334H178.203V49.6376ZM175.318 42.1576H168.889V38.4485H175.318V42.1576ZM185.786 60.8885H165.221V65.8339H160.626V57.4885H181.212V54.8921H160.564V51.3685H185.786V60.8885ZM187.126 67.3382H160.626V63.7733H187.126V67.3382ZM159.699 36.9031H165.839V32.5552H170.084V48.3806H155.372V32.5552H159.699V36.9031ZM165.839 44.8364V40.3443H159.699V44.8364H165.839ZM220.973 64.4121C218.871 64.4121 216.989 64.0549 215.327 63.3406C213.665 62.6263 212.36 61.6234 211.412 60.3321C210.478 59.0271 209.983 57.5503 209.928 55.9018H215.348C215.402 56.6711 215.677 57.358 216.172 57.9624C216.666 58.5669 217.333 59.0408 218.171 59.3842C219.009 59.7139 219.936 59.8788 220.952 59.8788C222.038 59.8788 223.013 59.6933 223.878 59.3224C224.758 58.9378 225.438 58.4158 225.918 57.7564C226.399 57.0832 226.633 56.3139 226.619 55.4485C226.633 54.5281 226.392 53.7245 225.898 53.0376C225.417 52.337 224.703 51.7944 223.755 51.4097C222.821 51.0113 221.715 50.8121 220.437 50.8121H217.779V46.6703H220.437C221.495 46.6703 222.429 46.4917 223.24 46.1346C224.064 45.7637 224.696 45.2485 225.135 44.5891C225.589 43.9297 225.815 43.1742 225.815 42.3224C225.815 41.4845 225.616 40.7495 225.218 40.1176C224.833 39.4719 224.277 38.9774 223.549 38.634C222.834 38.2768 221.996 38.0982 221.035 38.0982C220.101 38.0982 219.228 38.2699 218.418 38.6134C217.621 38.9431 216.975 39.417 216.481 40.0352C216 40.6396 215.739 41.3608 215.698 42.1988H210.526C210.594 40.5503 211.089 39.0873 212.009 37.8097C212.944 36.5321 214.2 35.5362 215.78 34.8218C217.36 34.1075 219.118 33.7503 221.055 33.7503C223.034 33.7503 224.771 34.1144 226.269 34.8425C227.78 35.5705 228.948 36.5665 229.772 37.8303C230.61 39.0804 231.015 40.4748 230.988 42.0134C231.015 43.0986 230.802 44.0946 230.349 45.0012C229.895 45.8942 229.25 46.636 228.412 47.2267C227.574 47.8174 226.612 48.2295 225.527 48.463V48.6897C226.928 48.8683 228.123 49.2804 229.112 49.9261C230.101 50.558 230.857 51.3685 231.379 52.3576C231.901 53.3329 232.148 54.4525 232.121 55.7164C232.148 57.3511 231.674 58.8348 230.699 60.1673C229.737 61.4861 228.405 62.5232 226.701 63.2788C225.012 64.0343 223.102 64.4121 220.973 64.4121Z" fill="#F7B000"/>
<path fill-rule="evenodd" clip-rule="evenodd" d="M56.5127 29.111C55.8983 29.2905 55.3496 29.6451 54.9337 30.1316C54.5178 30.6181 54.2527 31.2153 54.1709 31.8501C54.0626 32.885 54.0307 32.817 58.0172 39.7955C60.0508 43.357 61.6956 46.3129 61.6743 46.366C61.4822 46.6348 61.2765 46.8937 61.0581 47.1416C60.0238 48.3911 59.1946 49.7969 58.6016 51.3066C58.0724 52.6432 57.6241 55.0445 57.6241 56.5448C57.6241 62.1717 60.8201 67.395 65.7819 69.8791C69.0197 71.524 72.7496 71.9196 76.2603 70.9905C81.4857 69.6433 85.6443 65.4485 86.9087 60.2529C87.3257 58.5899 87.4529 56.8675 87.2848 55.1614C86.9788 52.163 85.9291 49.6406 83.9549 47.1607C83.7267 46.8808 83.5063 46.5945 83.2941 46.3023C83.2941 46.2874 84.9558 43.3591 86.9873 39.7934C89.9113 34.6636 90.7018 33.2144 90.7804 32.834C91.0779 31.3975 90.3044 29.9121 88.9232 29.264L88.4366 29.0366L83.0221 29.0133C77.2059 28.9856 76.9849 29.0005 76.1307 29.4276C75.5113 29.7427 74.9748 30.1992 74.5646 30.76C74.3776 31.0278 73.8527 31.9075 73.3958 32.7129C72.9368 33.5204 72.5352 34.1791 72.4991 34.1791C72.4629 34.1791 72.0379 33.4843 71.5556 32.6321C70.3039 30.4306 69.9172 29.9653 68.9099 29.4531C68.0366 29.009 67.8581 28.9963 62.1716 29.0005C58.2743 29.0048 56.7996 29.0324 56.5127 29.111ZM69.4306 37.4559C70.7544 39.7743 71.8233 41.6825 71.8063 41.6995C71.4535 41.771 71.0975 41.8264 70.7396 41.8653C69.0174 42.0747 67.344 42.5786 65.7926 43.3549L65.1232 43.6906L62.2502 38.6586C61.2589 36.9137 60.2609 35.1726 59.2561 33.4354L59.1349 33.2441H67.0229L69.4306 37.4559ZM85.7421 33.4354C84.7372 35.1726 83.7392 36.9137 82.7479 38.6586L79.8749 43.6906L79.1418 43.3251C78.7003 43.1081 78.2509 42.9075 77.7946 42.7238L77.1826 42.4858L76.0669 40.5308C75.2339 39.0709 74.9683 38.5354 75.0214 38.427C75.0597 38.3463 75.7397 37.1456 76.5323 35.7623L77.9731 33.2441H85.8632L85.7421 33.4354ZM75.0491 46.3193C77.1741 46.8781 78.7529 47.8025 80.2128 49.3452C81.5622 50.769 82.4653 52.4881 82.9264 54.5069C83.1283 55.3951 83.1283 57.875 82.9264 58.7016C82.5333 60.3039 81.9617 61.632 81.1946 62.7242C80.6527 63.4999 79.2162 64.913 78.4873 65.389C77.2123 66.222 75.8034 66.8085 74.4116 67.0848C73.5446 67.2547 71.1837 67.2335 70.4166 67.0444C68.8164 66.6534 67.4883 66.0817 66.3939 65.3146C65.6141 64.7685 64.2052 63.3341 63.7207 62.5925C62.9379 61.4183 62.3795 60.1091 62.0738 58.7314C61.9718 58.283 61.9293 57.6838 61.9251 56.6191C61.9187 55.2506 61.9378 55.0572 62.1588 54.1966C62.7241 52.01 63.6676 50.378 65.2231 48.9075C66.5184 47.6676 68.1107 46.7815 69.8471 46.3341C70.9181 46.0557 71.4514 46.0026 72.7966 46.0345C73.8803 46.06 74.2182 46.1025 75.0491 46.3193ZM71.3877 52.5243C69.5623 53.0002 68.2342 54.7619 68.2533 56.6786C68.2746 58.7122 69.8216 60.4887 71.8403 60.799C73.2279 61.0115 74.4838 60.5992 75.4804 59.6005C76.1689 58.912 76.5387 58.198 76.6789 57.2779C76.774 56.6735 76.7371 56.0558 76.5709 55.4671C76.4047 54.8783 76.113 54.3326 75.7158 53.8672C75.3187 53.4019 74.8256 53.028 74.2703 52.7712C73.7151 52.5144 73.1108 52.3809 72.4991 52.3797C72.1952 52.3798 71.6958 52.4456 71.3877 52.5243Z" fill="#F7B000"/>
</svg>
