<svg width="73" height="105" viewBox="0 0 73 105" fill="none" xmlns="http://www.w3.org/2000/svg">
<g filter="url(#filter0_d_385_112)">
<path fill-rule="evenodd" clip-rule="evenodd" d="M3.11545 95.559C3.6108 96.469 4.31588 97.286 5.1893 97.9622C6.06273 98.6383 7.08689 99.1598 8.20164 99.4962C9.3164 99.8325 10.4993 99.9769 11.6808 99.9208C12.8624 99.8648 14.0188 99.6094 15.0822 99.1697C16.4326 98.598 22.8824 93.3023 43.0136 76.2266C68.3953 54.7053 69.2126 53.9756 69.7546 52.3959C70.0655 51.4933 70.3231 50.4025 70.3231 49.9662C70.3231 49.5299 70.0655 48.4392 69.7546 47.5365C69.2126 45.9568 68.3953 45.2272 43.0136 23.7058C22.8824 6.63018 16.4326 1.33447 15.0822 0.762769C14.0188 0.323065 12.8624 0.0676782 11.6808 0.0116175C10.4993 -0.0444509 9.31639 0.0999278 8.20164 0.436277C7.08688 0.772627 6.06272 1.29417 5.1893 1.97029C4.31588 2.6464 3.61079 3.46345 3.11544 4.37348C2.22704 6.02839 2.25369 8.80413 3.18651 10.5493C3.73732 11.5874 9.14769 16.349 26.3561 30.9348L48.8149 49.9662L26.3561 68.9977C9.1477 83.5834 3.73732 88.3451 3.18651 89.3831C2.25369 91.1283 2.22704 93.9041 3.11545 95.559Z" fill="white"/>
</g>
<defs>
<filter id="filter0_d_385_112" x="5.29289e-05" y="0" width="72.7905" height="104.868" filterUnits="userSpaceOnUse" color-interpolation-filters="sRGB">
<feFlood flood-opacity="0" result="BackgroundImageFix"/>
<feColorMatrix in="SourceAlpha" type="matrix" values="0 0 0 0 0 0 0 0 0 0 0 0 0 0 0 0 0 0 127 0" result="hardAlpha"/>
<feOffset dy="2.46748"/>
<feGaussianBlur stdDeviation="1.23374"/>
<feComposite in2="hardAlpha" operator="out"/>
<feColorMatrix type="matrix" values="0 0 0 0 0 0 0 0 0 0 0 0 0 0 0 0 0 0 0.25 0"/>
<feBlend mode="normal" in2="BackgroundImageFix" result="effect1_dropShadow_385_112"/>
<feBlend mode="normal" in="SourceGraphic" in2="effect1_dropShadow_385_112" result="shape"/>
</filter>
</defs>
</svg>
