<svg width="407" height="122" viewBox="0 0 407 122" fill="none" xmlns="http://www.w3.org/2000/svg">
<rect x="1" y="1" width="404.969" height="119.652" rx="59.8261" fill="#F0F7EF" stroke="#5CB25E" stroke-width="2"/>
<path d="M146.703 45.9883C148.859 45.9883 150.781 46.6133 152.469 47.8633C154.172 49.1133 155.508 50.8867 156.477 53.1836C157.461 55.4805 157.953 58.1523 157.953 61.1992C157.953 64.2617 157.461 66.9414 156.477 69.2383C155.508 71.5352 154.172 73.3086 152.469 74.5586C150.781 75.793 148.859 76.4102 146.703 76.4102C144.531 76.4102 142.586 75.793 140.867 74.5586C139.164 73.3086 137.828 71.5352 136.859 69.2383C135.906 66.9414 135.43 64.2617 135.43 61.1992C135.43 58.1523 135.906 55.4805 136.859 53.1836C137.828 50.8867 139.164 49.1133 140.867 47.8633C142.586 46.6133 144.531 45.9883 146.703 45.9883ZM146.703 51.4023C145.609 51.3867 144.641 51.7617 143.797 52.5273C142.969 53.293 142.328 54.4102 141.875 55.8789C141.422 57.3477 141.195 59.1211 141.195 61.1992C141.195 63.2773 141.422 65.0508 141.875 66.5195C142.328 67.9883 142.977 69.1055 143.82 69.8711C144.664 70.6211 145.625 70.9961 146.703 70.9961C147.812 70.9961 148.781 70.6211 149.609 69.8711C150.438 69.1055 151.07 67.9883 151.508 66.5195C151.961 65.0508 152.188 63.2773 152.188 61.1992C152.188 59.1055 151.961 57.3242 151.508 55.8555C151.07 54.3867 150.438 53.2773 149.609 52.5273C148.781 51.7617 147.812 51.3867 146.703 51.4023ZM174.875 57.918H167.234V52.9258H174.875V57.918ZM174.875 70.3633H167.234V65.5117H174.875V70.3633ZM168.852 85.668H162.852V42.9648H168.852V85.668ZM196.597 49.0586C196.597 51.8086 196.136 54.3867 195.214 56.793C194.292 59.1836 192.909 61.2695 191.066 63.0508C189.237 64.832 186.987 66.1602 184.316 67.0352L181.339 62.3477C183.636 61.5977 185.558 60.5352 187.105 59.1602C188.652 57.7852 189.792 56.2305 190.527 54.4961C191.261 52.7461 191.628 50.9336 191.628 49.0586V44.957H196.597V49.0586ZM197.839 49.0586C197.839 50.918 198.191 52.668 198.894 54.3086C199.597 55.9492 200.698 57.418 202.198 58.7148C203.714 59.9961 205.597 60.9727 207.847 61.6445L204.894 66.3555C202.237 65.5117 200.011 64.2461 198.214 62.5586C196.417 60.8555 195.066 58.8555 194.159 56.5586C193.269 54.2617 192.823 51.7617 192.823 49.0586V44.957H197.839V49.0586ZM217.175 85.668H211.198V75.0977H187.878V70.293H217.175V85.668ZM217.175 68.4648H211.198V42.9648H217.175V68.4648ZM277.33 85.5977H271.33V42.9648H277.33V85.5977ZM283.353 64.293H275.783V59.3711H283.353V64.293ZM265.939 47.3711C265.939 51.8242 265.306 55.9336 264.041 59.6992C262.775 63.4492 260.713 66.9023 257.853 70.0586C254.994 73.1992 251.244 75.918 246.603 78.2148L243.228 73.6445C247.056 71.707 250.205 69.5195 252.673 67.082C255.158 64.6445 257.009 61.8945 258.228 58.832C259.463 55.7695 260.08 52.3086 260.08 48.4492V47.3711H265.939ZM263.08 52.2695H245.619V47.3711H263.08V52.2695ZM324.552 58.4805H294.903V53.6758H324.552V58.4805ZM300.856 55.8789H294.903V43.668H300.856V55.8789ZM328.958 66.9883H289.981V62.1367H328.958V66.9883ZM309.364 69.707C312.458 69.707 315.114 70.0195 317.333 70.6445C319.567 71.2539 321.27 72.1523 322.442 73.3398C323.63 74.5117 324.223 75.9336 324.223 77.6055C324.223 79.2617 323.63 80.6836 322.442 81.8711C321.27 83.0586 319.575 83.9648 317.356 84.5898C315.137 85.2148 312.473 85.5273 309.364 85.5273C306.255 85.5273 303.583 85.2148 301.348 84.5898C299.114 83.9648 297.395 83.0586 296.192 81.8711C295.005 80.6836 294.411 79.2617 294.411 77.6055C294.411 75.9336 295.005 74.5117 296.192 73.3398C297.395 72.1523 299.114 71.2539 301.348 70.6445C303.598 70.0195 306.27 69.707 309.364 69.707ZM309.364 74.3477C307.364 74.3477 305.708 74.4648 304.395 74.6992C303.083 74.918 302.106 75.2695 301.466 75.7539C300.825 76.2383 300.505 76.8555 300.505 77.6055C300.505 78.3398 300.833 78.957 301.489 79.457C302.145 79.957 303.13 80.332 304.442 80.582C305.755 80.832 307.395 80.957 309.364 80.957C311.302 80.957 312.927 80.832 314.239 80.582C315.567 80.332 316.559 79.957 317.216 79.457C317.872 78.957 318.2 78.3398 318.2 77.6055C318.2 76.8555 317.872 76.2383 317.216 75.7539C316.559 75.2695 315.583 74.918 314.286 74.6992C312.989 74.4648 311.348 74.3477 309.364 74.3477Z" fill="#5CB25E"/>
<path fill-rule="evenodd" clip-rule="evenodd" d="M89.2976 42.4329C88.8122 42.5829 88.4106 42.8396 88.0802 43.2157C87.3202 44.0824 87.2617 44.9568 87.8667 46.4716C88.9929 49.2475 89.2763 52.2937 88.6813 55.2297C88.0863 58.1657 86.6394 60.8612 84.5213 62.9796C82.4032 65.098 79.7078 66.5453 76.7719 67.1406C73.836 67.736 70.7897 67.453 68.0137 66.3271C66.5472 65.74 65.6322 65.7934 64.7909 66.5126C63.8962 67.2777 63.7412 68.058 64.13 69.8397C64.7415 72.5305 65.8184 75.0937 67.3122 77.4139C70.9442 82.9369 76.5613 86.5156 83.2129 87.5449C84.804 87.7915 88.0929 87.7915 89.7043 87.5449C94.686 86.7824 99.1313 84.5534 102.613 81.0713C106.591 77.0859 108.96 71.7742 109.267 66.152C109.574 60.5298 107.798 54.9917 104.278 50.5967C101.055 46.5809 96.3635 43.6631 91.4097 42.5956C90.1847 42.3312 89.7424 42.2982 89.2976 42.4329ZM94.6122 49.1124C96.702 50.1839 98.5538 51.6665 100.056 53.4714C102.037 55.8175 103.374 58.6377 103.937 61.6558C104.499 64.6739 104.268 67.7865 103.267 70.6886C101.75 75.0959 98.5635 78.7319 94.3937 80.8146C86.5577 84.7364 77.0671 82.3599 71.9431 75.1975C71.3306 74.341 70.2224 72.361 70.3063 72.2746C70.523 72.2648 70.7401 72.2836 70.9519 72.3305C72.0702 72.5135 74.1645 72.5644 75.4709 72.4398C77.9633 72.2327 80.3946 71.5594 82.6385 70.4548C90.1237 66.7999 94.6555 58.9181 93.9946 50.7086C93.957 50.1276 93.8951 49.5484 93.8091 48.9726C93.776 48.8455 93.776 48.7439 93.8116 48.7439C93.8472 48.7439 94.2081 48.9091 94.6122 49.1124Z" fill="#5CB25E"/>
</svg>
