<svg width="99" height="74" viewBox="0 0 99 74" fill="none" xmlns="http://www.w3.org/2000/svg">
<path fill-rule="evenodd" clip-rule="evenodd" d="M46.2952 11.1663C34.9013 12.1902 23.0402 18.2231 14.0309 27.5804C10.0683 31.6984 7.48543 35.5725 6.42317 39.0034C5.85894 40.9668 5.85894 43.0507 6.42317 45.0141C7.48543 48.445 10.0683 52.3191 14.0309 56.4371C24.8958 67.7182 39.4765 73.9107 52.7745 72.8911C56.7639 72.6447 60.6974 71.8236 64.4549 70.4532C74.8041 66.8317 85.1225 59.0169 90.8349 50.4752C94.458 45.0584 94.9164 41.1666 92.4878 36.3438C89.1468 29.6993 80.7898 21.6939 72.4769 17.1725C63.6527 12.372 54.9827 10.3817 46.2952 11.1663ZM53.4885 20.0316C64.0802 21.1885 75.7033 28.0636 82.6939 37.3013C83.8487 38.8261 85.2592 41.4148 85.2592 42.0088C85.2592 42.6027 83.8487 45.1914 82.6939 46.7163C76.5628 54.8192 66.7469 61.2244 57.1954 63.3521C52.4581 64.4425 47.5371 64.4425 42.7999 63.3521C33.244 61.2199 23.4281 54.8192 17.3014 46.7163C16.1465 45.187 14.7361 42.6027 14.7361 42.0088C14.7361 41.4148 16.1465 38.8305 17.3014 37.3013C22.4495 30.4883 30.4495 24.677 38.4936 21.9066C43.7123 20.107 48.596 19.4997 53.4885 20.0316ZM47.7894 28.8881C45.3635 29.3223 43.1036 30.4204 41.2576 32.0617C39.4117 33.7031 38.0512 35.8242 37.3255 38.1922C36.9597 39.4024 36.8936 39.9786 36.8936 42.0088C36.8936 44.0389 36.9597 44.6152 37.3255 45.8253C37.9746 47.9256 39.1218 49.8358 40.6683 51.391C42.2147 52.9462 44.1141 54.0999 46.2026 54.7527C47.4059 55.1206 47.9789 55.1871 49.9976 55.1871C52.0164 55.1871 52.5894 55.1206 53.7927 54.7527C55.8812 54.0999 57.7805 52.9462 59.327 51.391C60.8735 49.8358 62.0207 47.9256 62.6698 45.8253C63.0356 44.6152 63.1017 44.0389 63.1017 42.0088C63.1017 39.9786 63.0356 39.4024 62.6698 38.1922C61.3871 33.9546 57.9491 30.506 53.7927 29.2826C52.2015 28.8127 49.2571 28.6221 47.7894 28.8881ZM52.2544 38.2277C55.0312 39.9431 55.0841 43.9857 52.3558 45.7278C51.8578 46.0452 51.3014 46.2588 50.7198 46.3557C50.1381 46.4526 49.543 46.431 48.9699 46.2921C48.3967 46.1531 47.8571 45.8997 47.3833 45.5469C46.9094 45.1941 46.5109 44.7491 46.2114 44.2384C45.7398 43.4671 45.6781 43.21 45.6781 42.0221C45.6781 40.874 45.7486 40.5593 46.1673 39.8412C46.564 39.1024 47.1701 38.4989 47.9086 38.1074C48.6472 37.7159 49.4848 37.5541 50.315 37.6426C51.0031 37.6517 51.6749 37.8544 52.2544 38.2277Z" fill="#E7795D"/>
</svg>
