<svg width="407" height="122" viewBox="0 0 407 122" fill="none" xmlns="http://www.w3.org/2000/svg">
<rect x="1" y="1" width="404.969" height="119.652" rx="59.8261" fill="#F8ECF5" stroke="#E65BC8" stroke-width="2"/>
<path d="M193.23 80.4629H154.23V75.6113H193.23V80.4629ZM176.707 77.0176H170.684V66.1191H176.707V77.0176ZM175.559 49.9238C175.559 52.9238 174.855 55.6738 173.449 58.1738C172.059 60.6582 170.043 62.752 167.402 64.4551C164.762 66.1426 161.668 67.3223 158.121 67.9941L155.777 63.2598C158.809 62.7598 161.434 61.8457 163.652 60.5176C165.887 59.1738 167.582 57.5801 168.738 55.7363C169.91 53.8926 170.496 51.9551 170.496 49.9238V48.377H175.559V49.9238ZM176.777 49.9238C176.777 51.9707 177.363 53.9004 178.535 55.7129C179.723 57.5254 181.449 59.0801 183.715 60.377C185.996 61.6738 188.691 62.5566 191.801 63.0254L189.457 67.7363C185.863 67.0957 182.73 65.9473 180.059 64.291C177.387 62.6348 175.332 60.5801 173.895 58.127C172.473 55.6582 171.762 52.9238 171.762 49.9238V48.377H176.777V49.9238ZM189.832 50.8613H157.441V46.0098H189.832V50.8613ZM215.28 64.9004H209.28V57.0723H215.28V64.9004ZM230.445 64.9004H224.468V57.0723H230.445V64.9004ZM239.421 67.7832H200.515V63.002H239.421V67.7832ZM219.898 69.9863C222.991 69.9863 225.648 70.2832 227.866 70.877C230.085 71.4707 231.788 72.3457 232.976 73.502C234.163 74.6426 234.757 76.0332 234.757 77.6738C234.757 79.3301 234.163 80.7285 232.976 81.8691C231.788 83.0254 230.085 83.9004 227.866 84.4941C225.648 85.0879 222.991 85.3848 219.898 85.3848C216.773 85.3848 214.093 85.0879 211.859 84.4941C209.624 83.9004 207.913 83.0254 206.726 81.8691C205.538 80.7285 204.945 79.3301 204.945 77.6738C204.945 76.0332 205.538 74.6426 206.726 73.502C207.913 72.3457 209.624 71.4707 211.859 70.877C214.109 70.2832 216.788 69.9863 219.898 69.9863ZM219.898 74.5098C217.913 74.5098 216.265 74.627 214.952 74.8613C213.655 75.0801 212.679 75.4316 212.023 75.916C211.366 76.3848 211.038 76.9707 211.038 77.6738C211.038 78.377 211.366 78.9785 212.023 79.4785C212.679 79.9629 213.663 80.3301 214.976 80.5801C216.288 80.8145 217.929 80.9316 219.898 80.9316C221.835 80.9316 223.46 80.8145 224.773 80.5801C226.101 80.3301 227.093 79.9629 227.749 79.4785C228.405 78.9785 228.734 78.377 228.734 77.6738C228.734 76.9707 228.405 76.3848 227.749 75.916C227.093 75.4316 226.109 75.0801 224.796 74.8613C223.499 74.627 221.866 74.5098 219.898 74.5098ZM219.945 43.3848C223.085 43.3848 225.82 43.7129 228.148 44.3691C230.476 45.0254 232.273 45.9707 233.538 47.2051C234.804 48.4395 235.437 49.9082 235.437 51.6113C235.437 53.2832 234.804 54.7285 233.538 55.9473C232.288 57.1504 230.499 58.0723 228.171 58.7129C225.843 59.3535 223.101 59.6738 219.945 59.6738C216.788 59.6738 214.038 59.3535 211.695 58.7129C209.351 58.0723 207.546 57.1504 206.28 55.9473C205.015 54.7285 204.382 53.2832 204.382 51.6113C204.382 49.9082 205.015 48.4395 206.28 47.2051C207.546 45.9707 209.351 45.0254 211.695 44.3691C214.038 43.7129 216.788 43.3848 219.945 43.3848ZM219.945 47.9785C217.929 47.9785 216.226 48.1191 214.835 48.4004C213.445 48.666 212.39 49.0723 211.671 49.6191C210.952 50.1504 210.593 50.8145 210.593 51.6113C210.593 52.377 210.952 53.0254 211.671 53.5566C212.39 54.0879 213.445 54.4941 214.835 54.7754C216.226 55.041 217.929 55.1738 219.945 55.1738C221.945 55.1738 223.64 55.041 225.03 54.7754C226.421 54.4941 227.476 54.0879 228.195 53.5566C228.913 53.0254 229.273 52.377 229.273 51.6113C229.273 50.8145 228.913 50.1504 228.195 49.6191C227.476 49.0723 226.421 48.666 225.03 48.4004C223.64 48.1191 221.945 47.9785 219.945 47.9785ZM280.62 68.5098H274.643V42.7285H280.62V68.5098ZM286.385 58.2676H278.932V53.2988H286.385V58.2676ZM280.62 84.9629H252.729V70.3848H280.62V84.9629ZM258.659 80.1582H274.713V75.0723H258.659V80.1582ZM272.088 51.377H246.752V46.6426H272.088V51.377ZM259.455 52.6426C261.502 52.6426 263.315 52.9707 264.893 53.627C266.487 54.2676 267.729 55.166 268.62 56.3223C269.51 57.4785 269.955 58.8145 269.955 60.3301C269.955 61.8457 269.51 63.1895 268.62 64.3613C267.729 65.5176 266.487 66.4238 264.893 67.0801C263.315 67.7207 261.502 68.041 259.455 68.041C257.377 68.041 255.534 67.7207 253.924 67.0801C252.33 66.4238 251.088 65.5176 250.198 64.3613C249.307 63.1895 248.862 61.8457 248.862 60.3301C248.862 58.8145 249.307 57.4785 250.198 56.3223C251.088 55.166 252.33 54.2676 253.924 53.627C255.534 52.9707 257.377 52.6426 259.455 52.6426ZM259.455 57.1426C258.487 57.1426 257.643 57.2676 256.924 57.5176C256.205 57.752 255.651 58.1113 255.26 58.5957C254.87 59.0645 254.674 59.6426 254.674 60.3301C254.674 61.0332 254.87 61.6348 255.26 62.1348C255.651 62.6191 256.205 62.9863 256.924 63.2363C257.643 63.4863 258.487 63.6191 259.455 63.6348C260.424 63.6191 261.268 63.4863 261.987 63.2363C262.705 62.9863 263.268 62.6191 263.674 62.1348C264.08 61.6348 264.284 61.0332 264.284 60.3301C264.284 59.6426 264.073 59.0645 263.651 58.5957C263.245 58.1113 262.682 57.752 261.963 57.5176C261.245 57.2676 260.409 57.1426 259.455 57.1426ZM262.432 49.1973H256.455V42.5176H262.432V49.1973Z" fill="#E65BC8"/>
<path fill-rule="evenodd" clip-rule="evenodd" d="M97.5873 42.2414C95.7794 42.6463 94.2792 44.1076 93.6577 46.0662C93.5144 46.513 93.4996 47.0808 93.4596 53.6169L93.4154 60.6811L92.8254 60.2322C92.1153 59.6908 90.9207 59.0746 90.1706 58.8612C89.3214 58.6213 87.6506 58.6455 86.6729 58.9096C85.8533 59.134 84.3741 59.7612 83.8432 60.1112C83.2195 60.5227 82.8465 61.425 82.9624 62.237C83.0383 62.7652 89.8566 77.0104 90.5667 78.1262C92.1217 80.5623 93.8937 82.2943 96.3778 83.8062C99.0264 85.4149 101.774 86.1191 105.425 86.1191C108.622 86.1191 110.977 85.5932 113.474 84.3212C118.841 81.5835 122.351 76.2292 122.882 69.9681C122.998 68.6037 122.939 66.7837 122.749 65.877C122.111 62.7982 119.667 60.1332 116.734 59.3145C116.359 59.2111 104.589 57.774 104.109 57.774C104.012 57.774 103.993 56.8959 103.991 52.4263C103.991 46.4051 103.986 46.3611 103.392 45.1023C102.36 42.9148 99.9282 41.7176 97.5873 42.2414ZM99.197 46.6428C99.3361 46.7176 99.5236 46.9069 99.6142 47.061C99.7723 47.3316 99.7786 47.5407 99.7786 52.6243C99.7786 55.7516 99.8144 58.1393 99.865 58.4782C100.105 60.0892 101.369 61.5548 102.861 61.9532C103.135 62.0258 106.053 62.3999 109.347 62.7828C113.904 63.3132 115.459 63.5245 115.868 63.6697C116.528 63.895 117.122 64.2897 117.598 64.8177C118.074 65.3456 118.415 65.9898 118.59 66.6913C118.733 67.2415 118.75 67.5165 118.71 68.7776C118.681 69.7569 118.607 70.5161 118.487 71.1103C117.425 76.37 113.641 80.3137 108.544 81.4668C107.747 81.6473 107.429 81.6671 105.383 81.6715C103.314 81.6737 103.028 81.6561 102.223 81.4712C101.15 81.258 100.113 80.879 99.1465 80.3467C97.874 79.7121 96.7169 78.8513 95.7268 77.8027C94.3467 76.3436 94.1402 75.9805 90.927 69.2859C89.932 67.2311 88.9494 65.1697 87.9792 63.1019C87.9792 63.0777 88.1984 63.0557 88.4639 63.0579C89.7091 63.0623 91.0555 64.1275 93.2194 66.8145C94.4099 68.2912 94.6669 68.4695 95.613 68.4695C96.1292 68.4695 96.2641 68.4342 96.6223 68.2032C97.0942 67.8973 97.4524 67.3999 97.581 66.8673C97.6421 66.6187 97.6716 63.421 97.6716 56.9377C97.6716 46.3831 97.6378 47.039 98.2025 46.678C98.3492 46.5772 98.5196 46.5206 98.695 46.5144C98.8705 46.5081 99.0442 46.5526 99.197 46.6428Z" fill="#E65BC8"/>
</svg>
