<svg width="87" height="83" viewBox="0 0 87 83" fill="none" xmlns="http://www.w3.org/2000/svg">
<path fill-rule="evenodd" clip-rule="evenodd" d="M26.971 7.39057C24.2248 7.88029 21.7846 9.36661 20.1632 11.5371C17.6293 15.0542 16.9333 20.6291 18.213 27.193C18.2927 27.6184 18.2855 27.6253 17.1581 28.0092C15.6646 28.5175 12.384 30.0115 11.1805 30.7309C7.31983 33.041 4.84758 35.8769 3.95945 39.0101C3.61508 40.2344 3.61508 42.7659 3.95945 43.9901C4.82945 47.0542 7.21108 49.8416 10.876 52.0861C12.268 52.9368 15.2876 54.3409 16.9805 54.9219L18.2963 55.3749L18.213 55.8038C17.1291 61.3648 17.4481 66.2376 19.1156 69.6337C19.8478 71.1207 20.4206 71.9127 21.5008 72.926C25.2455 76.4466 31.0672 76.6887 37.1101 73.5796C38.7015 72.76 40.3363 71.7121 42.0147 70.436L43.501 69.3017L44.9872 70.436C50.2 74.4027 55.1082 76.1872 59.3966 75.6719C61.0097 75.4782 62.0465 75.1635 63.2789 74.4995C65.3271 73.3894 66.6285 72.0476 67.7268 69.9242C69.5466 66.3932 69.9127 61.5619 68.789 55.8072C68.7092 55.3819 68.7165 55.3749 69.8438 54.9911C71.8831 54.2315 73.8615 53.3311 75.7635 52.297C79.6023 50.0491 82.1471 47.1441 83.0425 43.9901C83.3868 42.7659 83.3868 40.2344 83.0425 39.0101C82.1471 35.8561 79.6023 32.9511 75.7635 30.7032C73.8615 29.6691 71.8831 28.7687 69.8438 28.0092C68.7165 27.6253 68.7092 27.6184 68.789 27.193C69.9127 21.4383 69.5466 16.607 67.7268 13.0761C65.2147 8.21365 60.2231 6.23549 54.231 7.73641C51.3817 8.45228 48.228 10.0984 44.9872 12.5642L43.501 13.6986L42.0147 12.5642C38.5021 9.88749 35.0402 8.1687 31.8901 7.53582C30.3893 7.23495 28.2433 7.1727 26.971 7.39057ZM31.321 14.5182C33.2023 15.113 35.932 16.6554 37.7626 18.1633L38.3317 18.6302L37.2225 19.8613C36.6135 20.5426 35.4716 21.9052 34.6886 22.8943C33.3183 24.6234 33.2386 24.6926 32.6912 24.7307C31.8538 24.7894 27.1413 25.4396 26.4635 25.5918C25.3107 25.8512 25.3035 25.8477 25.1041 24.658C24.7815 22.749 24.7343 20.0031 24.999 18.5368C25.4122 16.2232 26.3438 14.8191 27.8047 14.2969C28.5297 14.0375 30.1138 14.1378 31.321 14.5182ZM59.8533 14.615C60.6182 15.0646 61.3541 16.0987 61.6985 17.2019C62.2495 18.9656 62.3328 22.0435 61.8978 24.658C61.6985 25.8477 61.6912 25.8512 60.5385 25.5918C58.4716 25.2483 56.3948 24.9611 54.3107 24.7307C53.7633 24.6926 53.6836 24.6234 52.3133 22.8943C51.5303 21.9052 50.3885 20.5426 49.7795 19.8613L48.6702 18.6302L49.2393 18.1633C50.498 17.2005 51.8269 16.3245 53.216 15.5419C56.0108 14.0894 58.3961 13.7574 59.8533 14.615ZM43.849 23.8626L44.0882 24.2084H42.9137L43.153 23.8626C43.2835 23.6724 43.4393 23.5168 43.501 23.5168C43.5626 23.5168 43.7185 23.6724 43.849 23.8626ZM48.1627 31.215L49.6816 31.3015L50.026 31.8029C51.888 34.5822 53.6236 37.4369 55.2278 40.3589L55.8296 41.5001L55.2278 42.6414C53.6236 45.5634 51.888 48.418 50.026 51.1973L49.6816 51.6987L48.1627 51.7852C46.2088 51.8993 40.7931 51.8993 38.8392 51.7852L37.3203 51.6987L36.976 51.1973C35.1139 48.418 33.3783 45.5634 31.7741 42.6414L31.1723 41.5001L31.7741 40.3589C33.3811 37.4325 35.1191 34.5733 36.9832 31.7891C37.3312 31.2877 37.3638 31.2738 38.3535 31.2289C40.3255 31.1355 46.6656 31.1251 48.1627 31.215ZM27.8047 32.8785L27.493 33.3869L27.319 32.9822C27.1232 32.5292 27.2428 32.377 27.8011 32.3736L28.1201 32.3701L27.8047 32.8785ZM59.6902 32.4773C59.8171 32.5534 59.8135 32.6779 59.683 32.9822L59.509 33.3869L59.1972 32.8785L58.8818 32.3701L59.2008 32.3736C59.3785 32.3736 59.5996 32.4185 59.6902 32.4773ZM20.7287 35.8976C20.9825 36.5824 21.6132 38.1213 22.1388 39.3214L23.0886 41.5001L22.1388 43.6789C21.3921 45.3942 20.156 48.4894 20.156 48.6519C20.156 48.7384 18.0136 47.8946 16.85 47.3551C13.225 45.6639 10.876 43.3642 10.876 41.5001C10.876 40.1306 12.3042 38.3288 14.5191 36.9074C16.328 35.7454 19.9928 34.1823 20.1777 34.497C20.2285 34.5834 20.4786 35.2129 20.7287 35.8976ZM70.326 35.7454C73.9328 37.4712 76.1223 39.643 76.1223 41.5001C76.1223 43.3572 73.9328 45.5291 70.326 47.2548C69.0463 47.8669 66.846 48.7488 66.846 48.6519C66.846 48.4894 65.6098 45.3942 64.8631 43.6789L63.9133 41.5001L64.8631 39.3214C65.6098 37.606 66.846 34.5108 66.846 34.3483C66.846 34.2514 69.0463 35.1333 70.326 35.7454ZM41.7465 36.5789C40.3708 37.1105 39.2412 38.0961 38.5637 39.3559C38.2556 39.9577 38.2085 40.2378 38.2085 41.5001C38.2085 42.8316 38.2447 43.0183 38.6326 43.7515C39.1365 44.6956 40.2457 45.74 41.2535 46.2104C41.8842 46.5043 42.1778 46.5493 43.501 46.5493C44.8241 46.5493 45.1177 46.5043 45.7485 46.2104C46.7562 45.74 47.8655 44.6956 48.3693 43.7515C48.7572 43.0183 48.7935 42.8316 48.7935 41.5001C48.7935 40.2378 48.7463 39.9577 48.4382 39.3559C47.8507 38.3054 46.9584 37.4385 45.8681 36.859C45.1503 36.5132 44.8458 36.4544 43.6532 36.4233C42.7361 36.3991 42.0908 36.4509 41.7465 36.5789ZM27.8228 50.1459C28.1092 50.6128 28.1092 50.6301 27.8482 50.6301C27.261 50.6301 27.1305 50.4987 27.2863 50.0664C27.3254 49.9219 27.3904 49.785 27.4785 49.6618C27.5038 49.6618 27.6561 49.8797 27.8228 50.1459ZM59.6902 50.5229C59.5381 50.5942 59.3703 50.6298 59.2008 50.6267L58.8818 50.6301L59.1972 50.1217L59.509 49.6134L59.683 50.018C59.8135 50.3223 59.8171 50.4468 59.6902 50.5229ZM26.4635 57.4084C27.1413 57.5606 31.8538 58.2108 32.6912 58.2696C33.2386 58.3076 33.3183 58.3768 34.6886 60.1059C35.4716 61.095 36.6135 62.4576 37.2225 63.1389L38.3317 64.3701L37.7626 64.8369C36.4117 65.8937 34.9588 66.8259 33.4235 67.6209C28.5043 69.9933 25.811 68.9835 24.999 64.4634C24.7343 62.9971 24.7815 60.2512 25.1041 58.3422C25.3035 57.1525 25.3107 57.1491 26.4635 57.4084ZM61.8978 58.3422C62.2205 60.2512 62.2676 62.9971 62.003 64.4634C61.191 68.9835 58.4976 69.9933 53.5785 67.6209C52.0431 66.8259 50.5902 65.8937 49.2393 64.8369L48.6702 64.3701L49.7795 63.1389C50.3885 62.4576 51.5303 61.095 52.3133 60.1059C53.6836 58.3768 53.7633 58.3076 54.3107 58.2696C56.3706 58.0411 58.4232 57.7562 60.466 57.4154C61.6731 57.1352 61.6985 57.1525 61.8978 58.3422ZM43.849 59.1376C43.7185 59.3278 43.5626 59.4834 43.501 59.4834C43.4393 59.4834 43.2835 59.3278 43.153 59.1376L42.9137 58.7918H44.0882L43.849 59.1376Z" fill="#E7795D"/>
</svg>
