<svg width="99" height="90" viewBox="0 0 99 90" fill="none" xmlns="http://www.w3.org/2000/svg">
<path fill-rule="evenodd" clip-rule="evenodd" d="M48.8722 10.1991C47.6357 10.5808 46.5148 12.1111 46.5148 13.4172C46.5148 13.6834 46.4167 13.7324 45.6776 13.8094C41.8386 14.2086 36.4863 16.1871 32.9239 18.5228C28.103 21.6515 24.2255 26.0338 21.708 31.1993C20.2508 34.1863 19.1054 37.9332 18.8217 40.6576C18.7446 41.3964 18.6956 41.4945 18.4294 41.4945C17.6658 41.4945 16.6745 41.9357 16.0615 42.545C15.7264 42.8594 15.4593 43.2391 15.2768 43.6607C15.0942 44.0823 15 44.5368 15 44.9963C15 45.4557 15.0942 45.9102 15.2768 46.3318C15.4593 46.7534 15.7264 47.1331 16.0615 47.4475C16.6745 48.0568 17.6658 48.498 18.4294 48.498C18.6956 48.498 18.7446 48.5961 18.8217 49.335C19.221 53.1729 21.2001 58.5236 23.5364 62.0849C25.9898 65.8227 29.185 69.017 32.9239 71.4697C36.4688 73.7948 41.8526 75.7839 45.6776 76.1831C46.4692 76.2671 46.5148 76.2916 46.5148 76.6488C46.5148 77.9305 47.6567 79.4222 48.9317 79.8004C49.8319 80.0665 50.2032 80.0665 51.1034 79.8004C52.396 79.4187 53.5204 77.9199 53.5204 76.5858C53.5204 76.3196 53.65 76.2741 54.8409 76.1165C57.7377 75.7278 60.7957 74.7578 63.9587 73.2241C70.1739 70.1727 75.2014 65.1467 78.2536 58.9333C79.7808 55.7817 80.7581 52.7142 81.1434 49.8462L81.3151 48.5506L82.1417 48.3965C85.9528 47.6716 85.9528 42.3209 82.1417 41.596L81.3151 41.4419L81.1434 40.1463C80.7581 37.2783 79.7808 34.2108 78.2536 31.0592C75.8262 26.0587 71.9591 21.7024 67.1112 18.5228C63.5664 16.1977 58.1826 14.2086 54.3575 13.8094C53.6185 13.7324 53.5204 13.6834 53.5204 13.4172C53.5204 12.0726 52.3995 10.5773 51.1034 10.1921C50.3817 9.93358 49.5922 9.93606 48.8722 10.1991ZM53.058 20.7009C64.0568 22.1402 72.4915 30.3798 74.2779 41.4244C74.376 42.0408 74.4566 43.6481 74.4566 44.9963C74.4566 46.3444 74.376 47.9518 74.2779 48.5681C72.5266 59.3956 64.4211 67.4987 53.5904 69.2495C52.1438 69.4807 47.8914 69.4807 46.4447 69.2495C41.0749 68.3811 36.4583 66.0454 32.7103 62.2985C30.4301 60.0305 28.6206 57.3344 27.3859 54.3651C26.1513 51.3958 25.5157 48.2119 25.5157 44.9963C25.5157 41.7806 26.1513 38.5967 27.3859 35.6274C28.6206 32.6581 30.4301 29.962 32.7103 27.694C35.3395 25.048 38.5416 23.0414 42.0696 21.8289C45.5976 20.6164 49.3572 20.2305 53.058 20.7009ZM47.7688 31.2028C45.6258 31.5613 43.5951 32.4117 41.8363 33.687C40.0774 34.9623 38.6382 36.6279 37.6317 38.553C36.9012 39.8973 36.4194 41.3623 36.2096 42.8777C35.9573 44.2788 35.9573 45.7137 36.2096 47.1148C36.9872 52.2589 40.6441 56.5871 45.6566 58.2925C46.6899 58.6427 48.8967 59.0034 50.0176 59.0034C51.1385 59.0034 53.3452 58.6427 54.3786 58.2925C57.8253 57.1194 60.7922 54.5876 62.4035 51.4395C63.134 50.0953 63.6157 48.6302 63.8256 47.1148C64.0778 45.7137 64.0778 44.2788 63.8256 42.8777C63.4918 40.7087 62.6511 38.649 61.3718 36.8656C60.0925 35.0823 58.4107 33.6257 56.4627 32.614C55.1181 31.8837 53.6526 31.4021 52.1368 31.1923C50.6905 30.9506 49.2139 30.9541 47.7688 31.2028ZM51.741 38.2028C53.002 38.5285 53.9337 39.0783 54.9355 40.0798C55.9723 41.1128 56.5048 42.0443 56.813 43.3469C57.2087 45.0085 56.9988 46.7567 56.221 48.2774C55.7552 49.1984 54.2069 50.7392 53.2752 51.2119C52.2664 51.7262 51.15 51.9944 50.0176 51.9944C48.8851 51.9944 47.7688 51.7262 46.76 51.2119C45.8177 50.7357 44.2765 49.1949 43.8001 48.2529C43.2856 47.2444 43.0174 46.1284 43.0174 44.9963C43.0174 43.8641 43.2856 42.7481 43.8001 41.7396C44.28 40.7941 45.8177 39.2568 46.7635 38.7806C48.3019 38.0051 50.0657 37.8004 51.741 38.2028Z" fill="#E7795D"/>
</svg>
