<svg width="407" height="122" viewBox="0 0 407 122" fill="none" xmlns="http://www.w3.org/2000/svg">
<rect x="1" y="1" width="404.969" height="119.652" rx="59.8261" fill="#F6F8FC" stroke="#6799D0" stroke-width="2"/>
<path d="M122.195 45.4023C124.008 45.3867 125.633 45.7305 127.07 46.4336C128.523 47.1211 129.656 48.082 130.469 49.3164C131.281 50.5352 131.688 51.9336 131.688 53.5117C131.688 55.0742 131.281 56.4648 130.469 57.6836C129.656 58.8867 128.523 59.832 127.07 60.5195C125.633 61.207 124.008 61.5508 122.195 61.5508C120.383 61.5508 118.758 61.207 117.32 60.5195C115.883 59.832 114.75 58.8867 113.922 57.6836C113.094 56.4648 112.68 55.0742 112.68 53.5117C112.68 51.9492 113.086 50.5508 113.898 49.3164C114.727 48.082 115.867 47.1211 117.32 46.4336C118.773 45.7305 120.398 45.3867 122.195 45.4023ZM122.195 49.832C121.367 49.8164 120.633 49.957 119.992 50.2539C119.367 50.5508 118.875 50.9883 118.516 51.5664C118.156 52.1289 117.977 52.7773 117.977 53.5117C117.977 54.2617 118.156 54.9102 118.516 55.457C118.875 55.9883 119.367 56.4023 119.992 56.6992C120.633 56.9961 121.367 57.1445 122.195 57.1445C123.039 57.1445 123.773 56.9961 124.398 56.6992C125.039 56.4023 125.531 55.9883 125.875 55.457C126.219 54.9102 126.391 54.2617 126.391 53.5117C126.391 52.7773 126.219 52.1289 125.875 51.5664C125.531 50.9883 125.039 50.5508 124.398 50.2539C123.758 49.957 123.023 49.8164 122.195 49.832ZM149.031 85.668H143.383V42.9648H149.031V85.668ZM140.383 83.6992H134.781V43.6914H140.383V83.6992ZM136.609 74.9805H127.938V70.4102H136.609V74.9805ZM124.914 82.293H119.312V66.1211H124.914V82.293ZM110.898 63.8242C115.023 63.8555 118.93 63.8086 122.617 63.6836C126.32 63.543 129.656 63.2461 132.625 62.793L133.07 67.2227C129.961 67.8164 126.562 68.2148 122.875 68.418C119.188 68.6211 115.414 68.7227 111.555 68.7227L110.898 63.8242ZM193.511 85.7852H187.441V42.9648H193.511V85.7852ZM170.331 45.9883C172.472 45.9883 174.394 46.6133 176.097 47.8633C177.816 49.1133 179.152 50.8867 180.105 53.1836C181.073 55.4805 181.558 58.1523 181.558 61.1992C181.558 64.2617 181.073 66.9414 180.105 69.2383C179.152 71.5352 177.816 73.3086 176.097 74.5586C174.394 75.793 172.472 76.4102 170.331 76.4102C168.159 76.4102 166.214 75.793 164.495 74.5586C162.792 73.3086 161.456 71.5352 160.487 69.2383C159.519 66.9414 159.034 64.2617 159.034 61.1992C159.034 58.1523 159.519 55.4805 160.487 53.1836C161.456 50.8867 162.792 49.1133 164.495 47.8633C166.214 46.6133 168.159 45.9883 170.331 45.9883ZM170.331 51.4023C169.237 51.3867 168.269 51.7617 167.425 52.5273C166.597 53.2773 165.956 54.3945 165.503 55.8789C165.066 57.3477 164.847 59.1211 164.847 61.1992C164.847 63.2773 165.066 65.0508 165.503 66.5195C165.956 67.9883 166.597 69.1055 167.425 69.8711C168.269 70.6211 169.237 70.9961 170.331 70.9961C171.409 70.9961 172.362 70.6211 173.191 69.8711C174.019 69.1055 174.659 67.9883 175.112 66.5195C175.566 65.0508 175.792 63.2773 175.792 61.1992C175.792 59.1211 175.566 57.3477 175.112 55.8789C174.659 54.3945 174.019 53.2773 173.191 52.5273C172.378 51.7617 171.425 51.3867 170.331 51.4023ZM212.233 62.1367C216.639 62.1211 220.084 62.0586 222.569 61.9492C225.053 61.8242 227.561 61.5586 230.092 61.1523L230.678 65.8398C227.866 66.293 225.006 66.5898 222.1 66.7305C219.194 66.8711 215.194 66.9414 210.1 66.9414H206.42V62.1367H210.1H212.233ZM227.092 50.7461H212.444V64.1758H206.42V45.9883H227.092V50.7461ZM225.85 58.7148H210.592V54.0742H225.85V58.7148ZM239.772 68.8867H233.795V43.0586H239.772V68.8867ZM225.287 69.4492C228.287 69.4492 230.889 69.7695 233.092 70.4102C235.295 71.0508 236.991 71.9805 238.178 73.1992C239.381 74.418 239.983 75.8789 239.983 77.582C239.983 79.2695 239.381 80.7148 238.178 81.918C236.991 83.1367 235.295 84.0664 233.092 84.707C230.905 85.3477 228.303 85.668 225.287 85.668C222.256 85.668 219.639 85.3555 217.436 84.7305C215.233 84.1055 213.537 83.1758 212.35 81.9414C211.178 80.7227 210.592 79.2695 210.592 77.582C210.592 75.8789 211.178 74.418 212.35 73.1992C213.537 71.9805 215.225 71.0508 217.412 70.4102C219.616 69.7695 222.241 69.4492 225.287 69.4492ZM225.287 74.0664C223.381 74.0664 221.78 74.1992 220.483 74.4648C219.186 74.7148 218.209 75.1055 217.553 75.6367C216.897 76.1523 216.569 76.8008 216.569 77.582C216.569 78.3477 216.897 78.9961 217.553 79.5273C218.209 80.043 219.186 80.4414 220.483 80.7227C221.78 80.9883 223.381 81.1211 225.287 81.1211C227.178 81.1211 228.772 80.9883 230.069 80.7227C231.366 80.4414 232.35 80.043 233.022 79.5273C233.694 78.9961 234.03 78.3477 234.03 77.582C234.03 76.8164 233.694 76.168 233.022 75.6367C232.35 75.1055 231.366 74.7148 230.069 74.4648C228.772 74.1992 227.178 74.0664 225.287 74.0664ZM281.153 50.0898C281.153 52.8086 280.708 55.3711 279.817 57.7773C278.927 60.1836 277.575 62.2852 275.762 64.082C273.966 65.8633 271.755 67.1836 269.13 68.043L266.036 63.332C268.286 62.582 270.177 61.5195 271.708 60.1445C273.255 58.7695 274.403 57.2148 275.153 55.4805C275.903 53.7305 276.278 51.9336 276.278 50.0898V47.207H281.153V50.0898ZM282.372 50.0195C282.372 51.7695 282.723 53.457 283.427 55.082C284.145 56.707 285.239 58.1758 286.708 59.4883C288.177 60.7852 290.005 61.8008 292.192 62.5352L289.239 67.1758C286.661 66.3477 284.489 65.082 282.723 63.3789C280.973 61.6602 279.669 59.6523 278.809 57.3555C277.95 55.0586 277.52 52.6133 277.52 50.0195V47.207H282.372V50.0195ZM297.981 58.1523H289.661V53.2539H297.981V58.1523ZM290.88 50.1602H267.723V45.3789H290.88V50.1602ZM302.223 85.668H296.27V75.0977H272.927V70.293H302.223V85.668ZM302.223 68.418H296.27V42.9648H302.223V68.418ZM332.008 43.7852C335.164 43.7852 337.906 44.1211 340.234 44.793C342.562 45.4492 344.352 46.4102 345.602 47.6758C346.867 48.9414 347.5 50.4336 347.5 52.1523C347.5 53.8555 346.867 55.3242 345.602 56.5586C344.352 57.793 342.562 58.7461 340.234 59.418C337.906 60.0742 335.164 60.4023 332.008 60.4023C328.883 60.4023 326.148 60.0742 323.805 59.418C321.461 58.7461 319.648 57.793 318.367 56.5586C317.086 55.3242 316.445 53.8555 316.445 52.1523C316.445 50.4336 317.086 48.9414 318.367 47.6758C319.648 46.4102 321.461 45.4492 323.805 44.793C326.148 44.1211 328.883 43.7852 332.008 43.7852ZM332.008 48.4258C330.023 48.4258 328.328 48.5664 326.922 48.8477C325.531 49.1289 324.469 49.5508 323.734 50.1133C323.016 50.6602 322.656 51.3398 322.656 52.1523C322.656 52.9336 323.016 53.5977 323.734 54.1445C324.453 54.6758 325.508 55.082 326.898 55.3633C328.305 55.6289 330.008 55.7695 332.008 55.7852C333.977 55.7695 335.656 55.6289 337.047 55.3633C338.438 55.082 339.5 54.6758 340.234 54.1445C340.969 53.5977 341.336 52.9336 341.336 52.1523C341.336 51.3398 340.969 50.6602 340.234 50.1133C339.5 49.5508 338.438 49.1289 337.047 48.8477C335.656 48.5664 333.977 48.4258 332.008 48.4258ZM346.82 85.1992H317.078V70.6445H346.82V85.1992ZM322.961 80.3945H340.961V75.3789H322.961V80.3945ZM351.484 67.668H312.578V62.8867H351.484V67.668Z" fill="#6799D0"/>
<path fill-rule="evenodd" clip-rule="evenodd" d="M70.7942 46.2197C66.9963 46.6488 63.7465 49.498 62.7805 53.2451C62.3249 55.0091 62.444 57.2437 63.0811 58.9018C63.5621 60.146 64.2952 61.2772 65.2345 62.2244C66.1738 63.1715 67.2988 63.914 68.5389 64.4053C70.6014 65.2183 73.2556 65.2183 75.3181 64.4053C77.8551 63.4071 79.9119 61.3029 80.8118 58.7808C81.5623 56.6785 81.5358 54.2131 80.7437 52.1996C79.6283 49.3618 77.1802 47.1839 74.2726 46.4428C73.1356 46.1627 71.9577 46.0872 70.7942 46.2197ZM73.5543 50.1464C74.4575 50.43 75.2782 50.9291 75.9455 51.6007C76.6128 52.2723 77.1066 53.0963 77.3844 54.0014C77.6396 54.8219 77.6396 56.3571 77.3844 57.1776C77.1049 58.0894 76.6061 58.9188 75.9318 59.5931C75.2575 60.2675 74.4282 60.7662 73.5165 61.0457C72.696 61.301 71.1609 61.301 70.3405 61.0457C69.2251 60.6979 68.3498 60.1099 67.5407 59.1646C67.0555 58.5803 66.6923 57.9046 66.4726 57.1776C66.2174 56.3571 66.2174 54.8219 66.4726 54.0014C67.1172 51.9331 68.8527 50.3695 70.9284 49.9914C71.5447 49.878 72.9607 49.9612 73.5543 50.1464ZM63.2323 68.9069C59.4344 69.336 56.1752 72.1946 55.2206 75.9323C55.005 76.7699 54.9143 77.804 54.9181 79.3127C54.9219 80.3299 54.954 80.7798 55.0523 81.156C55.3926 82.4587 56.5401 83.5609 57.8426 83.8369C58.6102 83.9995 85.2468 83.9995 86.0143 83.8369C86.7157 83.6894 87.2261 83.3983 87.8103 82.816C88.7328 81.8915 88.9389 81.2392 88.9408 79.2371C88.9445 76.7434 88.6685 75.4294 87.8046 73.8281C87.0833 72.4825 86.0467 71.3317 84.7836 70.4742C83.3563 69.5326 82.1294 69.0789 80.5339 68.905C79.6491 68.8067 64.0925 68.8104 63.2323 68.9069ZM81.1161 72.8204C82.9726 73.4424 84.3545 74.8282 84.9386 76.6507C85.0823 77.1026 85.1126 77.3994 85.1428 78.6737L85.1787 80.1673H58.6782L58.7141 78.6737C58.7444 77.3994 58.7746 77.1026 58.9183 76.6507C59.5743 74.6032 61.3362 73.0303 63.3666 72.6824C63.5632 72.6484 67.518 72.6257 72.1553 72.6313L80.5868 72.6427L81.1161 72.8204Z" fill="#6799D0"/>
</svg>
