<svg width="79" height="74" viewBox="0 0 79 74" fill="none" xmlns="http://www.w3.org/2000/svg">
<path d="M74 41.8193C76.7614 41.8193 79 39.5808 79 36.8193C79 34.0579 76.7614 31.8193 74 31.8193V36.8193V41.8193ZM1.46446 33.2838C-0.488152 35.2364 -0.488152 38.4022 1.46446 40.3549L33.2843 72.1747C35.2369 74.1273 38.4027 74.1273 40.3553 72.1747C42.308 70.2221 42.308 67.0562 40.3553 65.1036L12.0711 36.8193L40.3553 8.53506C42.308 6.58244 42.308 3.41662 40.3553 1.464C38.4027 -0.488625 35.2369 -0.488625 33.2843 1.464L1.46446 33.2838ZM74 36.8193V31.8193L5 31.8193V36.8193V41.8193L74 41.8193V36.8193Z" fill="black"/>
</svg>
