<svg width="139" height="143" viewBox="0 0 139 143" fill="none" xmlns="http://www.w3.org/2000/svg">
<path fill-rule="evenodd" clip-rule="evenodd" d="M48.2323 0.403536C46.4687 0.961396 44.4521 3.01432 43.8305 4.88873C43.1511 6.9491 43.1511 22.6733 43.8305 24.7337C44.7268 27.4337 47.7987 29.6875 50.5959 29.6875C52.3089 29.6875 54.3111 28.7949 55.6338 27.4337C57.6793 25.3287 57.8239 24.5031 57.8239 14.8112C57.8239 5.11932 57.6793 4.29368 55.6338 2.18869C53.6172 0.113448 51.0802 -0.496479 48.2323 0.403536ZM17.564 13.4352C15.9251 14.0712 14.5492 15.2691 13.6681 16.8269C12.9815 18.0245 12.8658 18.56 12.8658 20.4642C12.8658 22.3535 12.9887 22.9039 13.6392 24.0345C14.8246 26.0874 25.6015 36.962 27.1772 37.6984C28.6228 38.3678 30.7551 38.4868 32.497 37.9885C34.0149 37.557 36.5591 34.9388 36.9784 33.3768C37.5132 31.3983 37.3687 29.3602 36.5808 27.7238C35.7496 26.013 24.8064 14.6476 23.144 13.7699C21.8141 13.0707 18.9518 12.8996 17.564 13.4352ZM78.879 13.4277C77.325 14.0228 76.1685 15.0641 70.3355 21.1336C64.6471 27.0469 63.9098 28.1478 63.9026 30.7288C63.8954 33.1685 64.3869 34.3958 66.0421 36.1066C67.7045 37.8099 68.8899 38.3083 71.2824 38.3157C73.8555 38.3157 75.0482 37.438 81.4305 30.8106C84.6252 27.4932 87.4586 24.3246 87.7333 23.7742C88.4233 22.1108 88.5926 20.2675 88.2176 18.5005C87.6606 16.6463 86.4656 15.0649 84.8565 14.0525C83.2519 13.0856 80.5125 12.7955 78.879 13.4277ZM4.86443 45.0324C2.24068 45.8654 0 49.0713 0 52.0019C0 55.0144 2.23345 58.1458 4.98731 58.9863C7.13402 59.6409 21.7779 59.6409 23.9246 58.9863C26.6568 58.1532 28.9119 54.992 28.9119 52.0019C28.9119 49.0118 26.6568 45.8506 23.9246 45.0175C21.8502 44.3778 6.88104 44.3927 4.86443 45.0324ZM50.7043 46.0812C48.2613 46.8026 45.5146 49.6886 44.8207 52.2474C43.9751 55.3788 43.6137 54.092 57.5637 97.1588C67.3431 127.358 70.827 137.764 71.5137 138.805C73.3857 141.676 76.5733 143.268 79.8259 142.963C81.9075 142.77 84.6975 141.289 85.8829 139.75C86.3527 139.14 90.1257 131.166 94.2674 122.025C98.409 112.883 101.958 105.244 102.146 105.051C102.334 104.857 109.757 101.205 118.64 96.9431C127.523 92.6811 135.272 88.7984 135.864 88.3149C137.353 87.1099 138.734 84.3355 138.958 82.1338C139.116 80.4573 138.825 78.7683 138.117 77.2498C137.408 75.7314 136.31 74.4417 134.939 73.5204C133.913 72.8138 123.917 69.2658 94.4698 59.1648C58.3226 46.7729 55.2146 45.7539 53.4799 45.7836C52.5473 45.7866 51.6174 45.8863 50.7043 46.0812ZM89.1355 73.1113L115.395 82.1115L104.032 87.586C95.1275 91.8703 92.4459 93.2984 91.5858 94.1836C90.7257 95.0687 89.3379 97.8283 85.1746 106.992L79.8548 118.685L71.1089 91.6621C66.3023 76.8081 62.298 64.4533 62.2113 64.2228C62.1101 63.9475 62.204 63.8509 62.4715 63.955C62.6955 64.0443 74.7012 68.165 89.1355 73.1113ZM27.0037 66.4245C25.3558 67.2724 14.297 78.5337 13.4585 80.2296C11.7888 83.5842 13.1188 88.0099 16.3931 89.9885C17.5857 90.71 18.0844 90.829 19.9492 90.8215C21.5033 90.8215 22.4067 90.6579 23.1295 90.2637C24.8426 89.3265 35.7568 77.9759 36.5808 76.28C37.3687 74.6436 37.5132 72.6055 36.9784 70.627C36.5591 69.065 34.0149 66.4468 32.497 66.0154C30.6788 65.4569 28.7249 65.6024 27.0037 66.4245Z" fill="#EC866F"/>
</svg>
