<svg width="103" height="96" viewBox="0 0 103 96" fill="none" xmlns="http://www.w3.org/2000/svg">
<path fill-rule="evenodd" clip-rule="evenodd" d="M49.0099 0.196219C46.9826 0.731263 45.2957 1.95422 23.5057 18.7087C-1.64265 38.0366 0.0339029 36.569 0.0184271 39.2952C0.0132684 40.8901 0.441434 41.894 1.6176 43.0201C2.77313 44.131 3.92351 44.4061 7.36431 44.4061H10.217L10.2274 65.4512C10.2428 88.9167 10.1861 87.923 11.6666 90.3537C12.5281 91.7652 14.2769 93.4162 15.7419 94.2009C17.9808 95.3984 16.7221 95.3576 51.4861 95.3576C86.2346 95.3576 84.9759 95.3984 87.2405 94.2009C88.623 93.4722 90.8412 91.2811 91.5789 89.9155C92.7602 87.7345 92.7499 87.9536 92.7499 65.2474L92.7551 44.4061H95.5923C97.1502 44.4061 98.7907 44.3042 99.2343 44.1819C100.008 43.9677 100.72 43.5782 101.313 43.0442C101.907 42.5103 102.367 41.8468 102.656 41.1065C102.944 40.3662 103.054 39.5696 102.976 38.7801C102.897 37.9906 102.634 37.23 102.206 36.5588C101.659 35.7129 58.0788 2.0918 56.2733 1.12872C55.5814 0.769464 54.8558 0.477633 54.1066 0.257367C52.9047 -0.0585637 50.1087 -0.0891381 49.0099 0.196219ZM68.0143 22.7802L84.2898 35.2849L83.6707 36.0544C82.3708 37.6748 82.4378 36.2938 82.4378 61.8588V85.1714H66.9826L66.9155 71.0564L66.8485 56.9415L66.3326 55.3058C65.5667 52.892 64.2201 50.6975 62.408 48.9102C60.5959 47.1229 58.3723 45.796 55.9276 45.0431C54.5193 44.6202 53.8487 44.5437 51.4861 44.5437C49.1234 44.5437 48.4528 44.6202 47.0445 45.0431C44.5998 45.796 42.3762 47.1229 40.5641 48.9102C38.752 50.6975 37.4054 52.892 36.6395 55.3058L36.1237 56.9415L36.0566 71.0564L35.9895 85.1714H20.5343V61.9658C20.5343 36.5894 20.5859 37.6544 19.322 36.0798L18.6823 35.2849L35.0352 22.7241C44.0267 15.8144 51.4654 10.1888 51.5583 10.2245C57.0698 14.3762 62.5552 18.5615 68.0143 22.7802ZM54.0499 55.2905C55.1074 55.9019 55.9483 56.8956 56.3507 58.0115C56.5725 58.6179 56.6292 61.4817 56.6344 71.9736L56.6447 85.1714H46.3171L46.3739 71.6679L46.4306 58.1644L47.0032 57.2013C47.6429 56.1261 48.6282 55.3007 49.7837 54.8777C50.9547 54.4446 52.915 54.6331 54.0499 55.2905Z" fill="#909090"/>
</svg>
