<svg width="496" height="169" viewBox="0 0 496 169" fill="none" xmlns="http://www.w3.org/2000/svg">
<rect width="496" height="147.139" rx="67.0431" fill="#FAECE7"/>
<path d="M145.677 79.2382C150.814 79.2382 155.303 79.1215 159.143 78.8879C163.009 78.6285 167.044 78.1355 171.247 77.409L171.987 84.4535C167.68 85.2319 163.593 85.7508 159.727 86.0103C155.887 86.2438 151.203 86.3735 145.677 86.3995H140.812V79.2382H145.677ZM165.76 66.0054H149.18V82.1572H140.812V59.1166H157.431V47.0904H140.695V40.1237H165.76V66.0054ZM199.231 103.135H191.058V32.8457H199.231V103.135ZM180.238 64.3319H168.873V57.3263H180.238V64.3319ZM184.752 99.6712H176.657V34.3246H184.752V99.6712ZM275.74 69.4693H267.488V32.9235H275.74V69.4693ZM261.417 69.158H253.361V34.2079H261.417V69.158ZM255.968 55.03H243.825V48.0244H255.968V55.03ZM275.74 90.4082H236.897V99.749H228.218V83.9865H267.099V79.0825H228.102V72.4272H275.74V90.4082ZM278.269 102.59H228.218V95.857H278.269V102.59ZM226.467 45.1054H238.065V36.8933H246.083V66.7838H218.294V36.8933H226.467V45.1054ZM238.065 60.0896V51.6051H226.467V60.0896H238.065ZM342.199 97.0636C338.229 97.0636 334.675 96.3889 331.535 95.0397C328.396 93.6905 325.931 91.7964 324.14 89.3574C322.376 86.8925 321.442 84.1032 321.338 80.9896H331.574C331.678 82.4426 332.197 83.74 333.131 84.8816C334.065 86.0233 335.323 86.9184 336.906 87.5671C338.489 88.1898 340.24 88.5012 342.16 88.5012C344.21 88.5012 346.052 88.1509 347.687 87.4503C349.347 86.7238 350.632 85.7379 351.54 84.4924C352.448 83.221 352.889 81.768 352.863 80.1334C352.889 78.395 352.435 76.8771 351.501 75.5797C350.593 74.2565 349.244 73.2316 347.453 72.5051C345.689 71.7526 343.6 71.3764 341.187 71.3764H336.167V63.5535H341.187C343.185 63.5535 344.95 63.2162 346.48 62.5416C348.037 61.841 349.231 60.868 350.061 59.6226C350.917 58.3771 351.345 56.9501 351.345 55.3414C351.345 53.7586 350.969 52.3705 350.217 51.1769C349.49 49.9575 348.439 49.0234 347.064 48.3747C345.715 47.7001 344.132 47.3628 342.316 47.3628C340.552 47.3628 338.904 47.6871 337.373 48.3358C335.868 48.9585 334.649 49.8537 333.715 51.0213C332.807 52.1629 332.314 53.5251 332.236 55.1079H322.467C322.597 51.9943 323.531 49.231 325.269 46.8179C327.033 44.4049 329.408 42.5238 332.391 41.1745C335.375 39.8253 338.696 39.1507 342.355 39.1507C346.091 39.1507 349.373 39.8383 352.202 41.2134C355.056 42.5886 357.261 44.4697 358.818 46.8568C360.401 49.218 361.166 51.8516 361.114 54.7576C361.166 56.8074 360.764 58.6885 359.908 60.401C359.052 62.0875 357.832 63.4886 356.249 64.6043C354.667 65.72 352.85 66.4984 350.801 66.9395V67.3676C353.447 67.7049 355.704 68.4833 357.573 69.7028C359.441 70.8964 360.868 72.4272 361.854 74.2954C362.84 76.1376 363.307 78.2523 363.255 80.6393C363.307 83.727 362.412 86.5292 360.569 89.046C358.753 91.5369 356.236 93.4959 353.019 94.923C349.828 96.35 346.221 97.0636 342.199 97.0636Z" fill="#E6725B"/>
<rect width="496" height="147.139" rx="67.0431" fill="#FAECE7"/>
<path d="M145.677 79.2382C150.814 79.2382 155.303 79.1215 159.143 78.8879C163.009 78.6285 167.044 78.1355 171.247 77.409L171.987 84.4535C167.68 85.2319 163.593 85.7508 159.727 86.0103C155.887 86.2438 151.203 86.3735 145.677 86.3995H140.812V79.2382H145.677ZM165.76 66.0054H149.18V82.1572H140.812V59.1166H157.431V47.0904H140.695V40.1237H165.76V66.0054ZM199.231 103.135H191.058V32.8457H199.231V103.135ZM180.238 64.3319H168.873V57.3263H180.238V64.3319ZM184.752 99.6712H176.657V34.3246H184.752V99.6712ZM275.74 69.4693H267.488V32.9235H275.74V69.4693ZM261.417 69.158H253.361V34.2079H261.417V69.158ZM255.968 55.03H243.825V48.0244H255.968V55.03ZM275.74 90.4082H236.897V99.749H228.218V83.9865H267.099V79.0825H228.102V72.4272H275.74V90.4082ZM278.269 102.59H228.218V95.857H278.269V102.59ZM226.467 45.1054H238.065V36.8933H246.083V66.7838H218.294V36.8933H226.467V45.1054ZM238.065 60.0896V51.6051H226.467V60.0896H238.065ZM342.199 97.0636C338.229 97.0636 334.675 96.3889 331.535 95.0397C328.396 93.6905 325.931 91.7964 324.14 89.3574C322.376 86.8925 321.442 84.1032 321.338 80.9896H331.574C331.678 82.4426 332.197 83.74 333.131 84.8816C334.065 86.0233 335.323 86.9184 336.906 87.5671C338.489 88.1898 340.24 88.5012 342.16 88.5012C344.21 88.5012 346.052 88.1509 347.687 87.4503C349.347 86.7238 350.632 85.7379 351.54 84.4924C352.448 83.221 352.889 81.768 352.863 80.1334C352.889 78.395 352.435 76.8771 351.501 75.5797C350.593 74.2565 349.244 73.2316 347.453 72.5051C345.689 71.7526 343.6 71.3764 341.187 71.3764H336.167V63.5535H341.187C343.185 63.5535 344.95 63.2162 346.48 62.5416C348.037 61.841 349.231 60.868 350.061 59.6226C350.917 58.3771 351.345 56.9501 351.345 55.3414C351.345 53.7586 350.969 52.3705 350.217 51.1769C349.49 49.9575 348.439 49.0234 347.064 48.3747C345.715 47.7001 344.132 47.3628 342.316 47.3628C340.552 47.3628 338.904 47.6871 337.373 48.3358C335.868 48.9585 334.649 49.8537 333.715 51.0213C332.807 52.1629 332.314 53.5251 332.236 55.1079H322.467C322.597 51.9943 323.531 49.231 325.269 46.8179C327.033 44.4049 329.408 42.5238 332.391 41.1745C335.375 39.8253 338.696 39.1507 342.355 39.1507C346.091 39.1507 349.373 39.8383 352.202 41.2134C355.056 42.5886 357.261 44.4697 358.818 46.8568C360.401 49.218 361.166 51.8516 361.114 54.7576C361.166 56.8074 360.764 58.6885 359.908 60.401C359.052 62.0875 357.832 63.4886 356.249 64.6043C354.667 65.72 352.85 66.4984 350.801 66.9395V67.3676C353.447 67.7049 355.704 68.4833 357.573 69.7028C359.441 70.8964 360.868 72.4272 361.854 74.2954C362.84 76.1376 363.307 78.2523 363.255 80.6393C363.307 83.727 362.412 86.5292 360.569 89.046C358.753 91.5369 356.236 93.4959 353.019 94.923C349.828 96.35 346.221 97.0636 342.199 97.0636Z" fill="#E6725B"/>
</svg>
