<svg width="306" height="102" viewBox="0 0 306 102" fill="none" xmlns="http://www.w3.org/2000/svg">
<rect x="1.01261" y="6.01261" width="303.783" height="89.1096" rx="44.5548" fill="#FAECE7" stroke="#E6725B" stroke-width="2.02522"/>
<path d="M99.042 56.7599C101.827 56.7599 104.26 56.6967 106.341 56.5701C108.437 56.4294 110.624 56.1622 112.902 55.7684L113.303 59.5868C110.968 60.0087 108.753 60.29 106.658 60.4306C104.576 60.5572 102.038 60.6275 99.042 60.6416H96.4049V56.7599H99.042ZM109.928 49.5873H100.941V58.3421H96.4049V45.8533H105.413V39.3346H96.3417V35.5584H109.928V49.5873ZM128.07 69.7129H123.64V31.6135H128.07V69.7129ZM117.775 48.6802H111.615V44.8829H117.775V48.6802ZM120.222 67.8354H115.834V32.4151H120.222V67.8354ZM169.541 51.4648H165.068V31.6557H169.541V51.4648ZM161.777 51.2961H157.41V32.3518H161.777V51.2961ZM158.824 43.6382H152.242V39.8409H158.824V43.6382ZM169.541 62.8145H148.487V67.8775H143.782V59.3337H164.857V56.6756H143.719V53.0681H169.541V62.8145ZM170.912 69.4176H143.782V65.7679H170.912V69.4176ZM142.833 38.2587H149.12V33.8075H153.465V50.0092H138.403V33.8075H142.833V38.2587ZM149.12 46.3807V41.7818H142.833V46.3807H149.12ZM206.872 66H201.345V40.8113H201.176L194.025 45.3892V40.3472L201.598 35.453H206.872V66Z" fill="#E6725B"/>
</svg>
