<svg width="37" height="43" viewBox="0 0 37 43" fill="none" xmlns="http://www.w3.org/2000/svg">
<path fill-rule="evenodd" clip-rule="evenodd" d="M2.37206 0.111001C1.75769 0.290458 1.20896 0.64514 0.793046 1.13163C0.377131 1.61812 0.112072 2.21532 0.0303132 2.85013C-0.0780618 3.885 -0.109937 3.817 3.87656 10.7955C5.91019 14.357 7.55494 17.3129 7.53369 17.366C7.34157 17.6348 7.13588 17.8937 6.91744 18.1416C5.88313 19.3911 5.05395 20.7969 4.46094 22.3066C3.93181 23.6432 3.48344 26.0445 3.48344 27.5448C3.48344 33.1717 6.67944 38.395 11.6413 40.8791C14.879 42.524 18.6089 42.9196 22.1197 41.9905C27.3451 40.6433 31.5037 36.4485 32.7681 31.2529C33.1851 29.5899 33.3123 27.8675 33.1442 26.1614C32.8382 23.163 31.7884 20.6406 29.8143 18.1607C29.5861 17.8808 29.3657 17.5945 29.1534 17.3023C29.1534 17.2874 30.8152 14.3591 32.8467 10.7934C35.7707 5.66363 36.5612 4.21438 36.6398 3.834C36.9373 2.3975 36.1638 0.912126 34.7826 0.264001L34.2959 0.0366258L28.8814 0.013251C23.0653 -0.014374 22.8443 0.000500813 21.9901 0.427626C21.3707 0.742726 20.8342 1.19915 20.4239 1.76C20.2369 2.02775 19.7121 2.9075 19.2552 3.71288C18.7962 4.52038 18.3946 5.17913 18.3584 5.17913C18.3223 5.17913 17.8973 4.48425 17.4149 3.63213C16.1633 1.43063 15.7766 0.965251 14.7693 0.453126C13.8959 0.00900099 13.7174 -0.00374911 8.03094 0.00050089C4.13369 0.00475089 2.65894 0.032376 2.37206 0.111001ZM15.2899 8.45588C16.6138 10.7743 17.6827 12.6825 17.6657 12.6995C17.3128 12.771 16.9569 12.8264 16.5989 12.8653C14.8768 13.0747 13.2034 13.5786 11.6519 14.3549L10.9826 14.6906L8.10956 9.65863C7.11832 7.91366 6.12027 6.17256 5.11544 4.43538L4.99431 4.24413H12.8823L15.2899 8.45588ZM31.6014 4.43538C30.5966 6.17256 29.5986 7.91366 28.6073 9.65863L25.7343 14.6906L25.0012 14.3251C24.5597 14.1081 24.1103 13.9075 23.6539 13.7238L23.0419 13.4858L21.9263 11.5308C21.0933 10.0709 20.8277 9.53538 20.8808 9.427C20.9191 9.34625 21.5991 8.14563 22.3917 6.76225L23.8324 4.24413H31.7226L31.6014 4.43538ZM20.9084 17.3193C23.0334 17.8781 24.6123 18.8025 26.0722 20.3452C27.4216 21.769 28.3247 23.4881 28.7858 25.5069C28.9877 26.3951 28.9877 28.875 28.7858 29.7016C28.3927 31.3039 27.8211 32.632 27.0539 33.7242C26.5121 34.4999 25.0756 35.913 24.3467 36.389C23.0717 37.222 21.6628 37.8085 20.2709 38.0848C19.4039 38.2547 17.0431 38.2335 16.2759 38.0444C14.6758 37.6534 13.3477 37.0817 12.2533 36.3146C11.4734 35.7685 10.0646 34.3341 9.58006 33.5925C8.79724 32.4183 8.23885 31.1091 7.93319 29.7314C7.83119 29.283 7.78869 28.6838 7.78444 27.6191C7.77806 26.2506 7.79719 26.0572 8.01819 25.1966C8.58344 23.01 9.52694 21.378 11.0824 19.9075C12.3778 18.6676 13.97 17.7815 15.7064 17.3341C16.7774 17.0557 17.3108 17.0026 18.6559 17.0345C19.7397 17.06 20.0776 17.1025 20.9084 17.3193ZM17.2471 23.5243C15.4217 24.0002 14.0936 25.7619 14.1127 27.6786C14.1339 29.7122 15.6809 31.4887 17.6997 31.799C19.0873 32.0115 20.3432 31.5992 21.3398 30.6005C22.0283 29.912 22.3981 29.198 22.5383 28.2779C22.6334 27.6735 22.5965 27.0558 22.4303 26.4671C22.264 25.8783 21.9723 25.3326 21.5752 24.8672C21.1781 24.4019 20.685 24.028 20.1297 23.7712C19.5745 23.5144 18.9702 23.3809 18.3584 23.3797C18.0546 23.3798 17.5552 23.4456 17.2471 23.5243Z" fill="#EF7601"/>
</svg>
