<svg width="299" height="99" viewBox="0 0 299 99" fill="none" xmlns="http://www.w3.org/2000/svg">
<rect x="0.98909" y="3.49397" width="296.727" height="87.0399" rx="43.52" fill="#FFE9C4" stroke="#EF7601" stroke-width="1.97818"/>
<path d="M92.9248 51.9746C95.6448 51.9746 98.0214 51.9127 100.055 51.7891C102.101 51.6517 104.238 51.3907 106.463 51.0061L106.855 54.7358C104.574 55.1479 102.41 55.4226 100.364 55.56C98.3305 55.6836 95.8509 55.7523 92.9248 55.7661H90.3491V51.9746H92.9248ZM103.558 44.9685H94.7794V53.52H90.3491V41.3212H99.1479V34.954H90.2873V31.2655H103.558V44.9685ZM121.279 64.6267H116.951V27.4122H121.279V64.6267ZM111.223 44.0824H105.206V40.3734H111.223V44.0824ZM113.613 62.7927H109.327V28.1952H113.613V62.7927ZM161.786 46.8024H157.418V27.4534H161.786V46.8024ZM154.203 46.6376H149.938V28.1334H154.203V46.6376ZM151.318 39.1576H144.889V35.4485H151.318V39.1576ZM161.786 57.8885H141.221V62.8339H136.626V54.4885H157.212V51.8921H136.564V48.3685H161.786V57.8885ZM163.126 64.3382H136.626V60.7733H163.126V64.3382ZM135.699 33.9031H141.839V29.5552H146.084V45.3806H131.372V29.5552H135.699V33.9031ZM141.839 41.8364V37.3443H135.699V41.8364H141.839ZM186.134 57.1055L196.664 46.9673C197.818 45.8133 198.711 44.8723 199.343 44.1443C199.975 43.4024 200.455 42.6675 200.785 41.9394C201.115 41.2113 201.28 40.442 201.28 39.6315C201.28 38.7386 201.053 37.9487 200.6 37.2618C200.146 36.575 199.535 36.0461 198.766 35.6752C197.996 35.2905 197.117 35.0982 196.128 35.0982C195.139 35.0982 194.26 35.3043 193.491 35.7164C192.721 36.1148 192.131 36.6917 191.718 37.4473C191.306 38.2029 191.1 39.0752 191.1 40.0643H186.011C186.011 38.2097 186.443 36.5818 187.309 35.1806C188.174 33.7657 189.376 32.6736 190.915 31.9043C192.467 31.135 194.232 30.7503 196.211 30.7503C198.216 30.7503 199.988 31.1212 201.527 31.8631C203.066 32.6049 204.261 33.6283 205.112 34.9334C205.978 36.2384 206.411 37.722 206.411 39.3843C206.411 40.5382 206.191 41.6509 205.751 42.7224C205.312 43.794 204.556 44.9754 203.485 46.2667C202.427 47.558 200.909 49.1378 198.931 51.0061L193.614 56.2812V56.5079H206.864V61H186.155L186.134 57.1055Z" fill="#EF7601"/>
</svg>
