<svg width="299" height="99" viewBox="0 0 299 99" fill="none" xmlns="http://www.w3.org/2000/svg">
<rect x="0.98909" y="3.49397" width="296.727" height="87.0399" rx="43.52" fill="#FDF8DE" stroke="#F7B000" stroke-width="1.97818"/>
<path d="M91.9248 51.9746C94.6448 51.9746 97.0214 51.9127 99.0545 51.7891C101.101 51.6517 103.238 51.3907 105.463 51.0061L105.855 54.7358C103.574 55.1479 101.41 55.4226 99.3636 55.56C97.3305 55.6836 94.8509 55.7523 91.9248 55.7661H89.3491V51.9746H91.9248ZM102.558 44.9685H93.7794V53.52H89.3491V41.3212H98.1479V34.954H89.2873V31.2655H102.558V44.9685ZM120.279 64.6267H115.951V27.4122H120.279V64.6267ZM110.223 44.0824H104.206V40.3734H110.223V44.0824ZM112.613 62.7927H108.327V28.1952H112.613V62.7927ZM160.786 46.8024H156.418V27.4534H160.786V46.8024ZM153.203 46.6376H148.938V28.1334H153.203V46.6376ZM150.318 39.1576H143.889V35.4485H150.318V39.1576ZM160.786 57.8885H140.221V62.8339H135.626V54.4885H156.212V51.8921H135.564V48.3685H160.786V57.8885ZM162.126 64.3382H135.626V60.7733H162.126V64.3382ZM134.699 33.9031H140.839V29.5552H145.084V45.3806H130.372V29.5552H134.699V33.9031ZM140.839 41.8364V37.3443H134.699V41.8364H140.839ZM195.973 61.4121C193.871 61.4121 191.989 61.0549 190.327 60.3406C188.665 59.6263 187.36 58.6234 186.412 57.3321C185.478 56.0271 184.983 54.5503 184.928 52.9018H190.348C190.402 53.6711 190.677 54.358 191.172 54.9624C191.666 55.5669 192.333 56.0408 193.171 56.3842C194.009 56.7139 194.936 56.8788 195.952 56.8788C197.038 56.8788 198.013 56.6933 198.878 56.3224C199.758 55.9378 200.438 55.4158 200.918 54.7564C201.399 54.0832 201.633 53.3139 201.619 52.4485C201.633 51.5281 201.392 50.7245 200.898 50.0376C200.417 49.337 199.703 48.7944 198.755 48.4097C197.821 48.0113 196.715 47.8121 195.437 47.8121H192.779V43.6703H195.437C196.495 43.6703 197.429 43.4917 198.24 43.1346C199.064 42.7637 199.696 42.2485 200.135 41.5891C200.589 40.9297 200.815 40.1742 200.815 39.3224C200.815 38.4845 200.616 37.7495 200.218 37.1176C199.833 36.4719 199.277 35.9774 198.549 35.634C197.834 35.2768 196.996 35.0982 196.035 35.0982C195.101 35.0982 194.228 35.2699 193.418 35.6134C192.621 35.9431 191.975 36.417 191.481 37.0352C191 37.6396 190.739 38.3608 190.698 39.1988H185.526C185.594 37.5503 186.089 36.0873 187.009 34.8097C187.944 33.5321 189.2 32.5362 190.78 31.8218C192.36 31.1075 194.118 30.7503 196.055 30.7503C198.034 30.7503 199.771 31.1144 201.269 31.8425C202.78 32.5705 203.948 33.5665 204.772 34.8303C205.61 36.0804 206.015 37.4748 205.988 39.0134C206.015 40.0986 205.802 41.0946 205.349 42.0012C204.895 42.8942 204.25 43.636 203.412 44.2267C202.574 44.8174 201.612 45.2295 200.527 45.463V45.6897C201.928 45.8683 203.123 46.2804 204.112 46.9261C205.101 47.558 205.857 48.3685 206.379 49.3576C206.901 50.3329 207.148 51.4525 207.121 52.7164C207.148 54.3511 206.674 55.8348 205.699 57.1673C204.737 58.4861 203.405 59.5232 201.701 60.2788C200.012 61.0343 198.102 61.4121 195.973 61.4121Z" fill="#F7B000"/>
</svg>
