<svg width="299" height="99" viewBox="0 0 299 99" fill="none" xmlns="http://www.w3.org/2000/svg">
<rect x="0.98909" y="3.49397" width="296.727" height="87.0399" rx="43.52" fill="#DCECF9" stroke="#308CD8" stroke-width="1.97818"/>
<path d="M92.9248 54.9746C95.6448 54.9746 98.0214 54.9127 100.055 54.7891C102.101 54.6517 104.238 54.3907 106.463 54.0061L106.855 57.7358C104.574 58.1479 102.41 58.4226 100.364 58.56C98.3305 58.6836 95.8509 58.7523 92.9248 58.7661H90.3491V54.9746H92.9248ZM103.558 47.9685H94.7794V56.52H90.3491V44.3212H99.1479V37.954H90.2873V34.2655H103.558V47.9685ZM121.279 67.6267H116.951V30.4122H121.279V67.6267ZM111.223 47.0824H105.206V43.3734H111.223V47.0824ZM113.613 65.7927H109.327V31.1952H113.613V65.7927ZM161.786 49.8024H157.418V30.4534H161.786V49.8024ZM154.203 49.6376H149.938V31.1334H154.203V49.6376ZM151.318 42.1576H144.889V38.4485H151.318V42.1576ZM161.786 60.8885H141.221V65.8339H136.626V57.4885H157.212V54.8921H136.564V51.3685H161.786V60.8885ZM163.126 67.3382H136.626V63.7733H163.126V67.3382ZM135.699 36.9031H141.839V32.5552H146.084V48.3806H131.372V32.5552H135.699V36.9031ZM141.839 44.8364V40.3443H135.699V44.8364H141.839ZM196.726 64.4121C194.775 64.4121 193.003 64.0481 191.409 63.32C189.83 62.5782 188.586 61.5616 187.68 60.2703C186.773 58.979 186.285 57.5228 186.217 55.9018H191.43C191.512 56.6986 191.794 57.4129 192.275 58.0449C192.756 58.6768 193.388 59.1713 194.171 59.5285C194.954 59.8857 195.805 60.0642 196.726 60.0642C197.825 60.0642 198.807 59.817 199.672 59.3224C200.538 58.8279 201.218 58.1479 201.712 57.2824C202.207 56.417 202.454 55.4348 202.454 54.3358C202.454 53.2093 202.2 52.2065 201.692 51.3273C201.197 50.4481 200.503 49.7612 199.611 49.2667C198.718 48.7584 197.701 48.5043 196.561 48.5043C195.379 48.4905 194.377 48.6897 193.552 49.1018C192.728 49.514 192.082 50.1665 191.615 51.0594H186.649L188.442 34.1625H206.06V38.6546H192.872L191.966 46.5879H192.213C192.817 45.9148 193.635 45.3653 194.665 44.9394C195.709 44.5136 196.829 44.3006 198.024 44.3006C199.851 44.3006 201.499 44.7265 202.969 45.5782C204.439 46.4162 205.586 47.5907 206.411 49.1018C207.249 50.5992 207.668 52.2958 207.668 54.1915C207.668 56.156 207.2 57.9143 206.266 59.4667C205.332 61.019 204.034 62.2347 202.372 63.1139C200.723 63.9794 198.841 64.4121 196.726 64.4121Z" fill="#0469D1"/>
</svg>
