<svg width="299" height="99" viewBox="0 0 299 99" fill="none" xmlns="http://www.w3.org/2000/svg">
<rect x="0.98909" y="3.49397" width="296.727" height="87.0399" rx="43.52" fill="#E5F5E5" stroke="#38A83E" stroke-width="1.97818"/>
<path d="M91.9248 54.9746C94.6448 54.9746 97.0214 54.9127 99.0545 54.7891C101.101 54.6517 103.238 54.3907 105.463 54.0061L105.855 57.7358C103.574 58.1479 101.41 58.4226 99.3636 58.56C97.3305 58.6836 94.8509 58.7523 91.9248 58.7661H89.3491V54.9746H91.9248ZM102.558 47.9685H93.7794V56.52H89.3491V44.3212H98.1479V37.954H89.2873V34.2655H102.558V47.9685ZM120.279 67.6267H115.951V30.4122H120.279V67.6267ZM110.223 47.0824H104.206V43.3734H110.223V47.0824ZM112.613 65.7927H108.327V31.1952H112.613V65.7927ZM160.786 49.8024H156.418V30.4534H160.786V49.8024ZM153.203 49.6376H148.938V31.1334H153.203V49.6376ZM150.318 42.1576H143.889V38.4485H150.318V42.1576ZM160.786 60.8885H140.221V65.8339H135.626V57.4885H156.212V54.8921H135.564V51.3685H160.786V60.8885ZM162.126 67.3382H135.626V63.7733H162.126V67.3382ZM134.699 36.9031H140.839V32.5552H145.084V48.3806H130.372V32.5552H134.699V36.9031ZM140.839 44.8364V40.3443H134.699V44.8364H140.839ZM184.578 54.1709L197.477 34.1625H201.021V40.2618H198.817L190.08 53.8V54.0473H208.089V58.4364H184.578V54.1709ZM199.064 57.1588L199.126 55.2218V34.1625H204.195V64H199.064V57.1588Z" fill="#38A83E"/>
</svg>
