<svg width="67" height="82" viewBox="0 0 67 82" fill="none" xmlns="http://www.w3.org/2000/svg">
<path fill-rule="evenodd" clip-rule="evenodd" d="M31.0489 0.0436902C27.6658 0.426212 25.5532 0.894192 22.9265 1.84236C12.1066 5.74897 3.65257 15.7352 0.969942 27.7806C-1.25068 37.7465 0.351448 47.6717 5.67572 56.9133C10.0089 64.4295 17.0955 71.9171 25.7582 78.1189C30.9148 81.8139 32.625 82.465 35.2293 81.7366C37.4239 81.118 44.4024 76.0923 49.3802 71.5428C50.1962 70.794 51.8654 69.1215 53.0874 67.8233C60.4274 60.0142 64.7904 52.0382 66.3627 43.5454C67.3108 38.3293 67.1999 32.9495 66.0379 27.7852C64.8759 22.621 62.6912 17.7979 59.6375 13.6558C54.3449 6.47359 46.7737 1.72675 38.4261 0.357033C36.9023 0.104732 32.2486 -0.0905995 31.0489 0.0436902ZM36.742 8.33709C48.3071 9.99333 57.3126 19.4709 59.2351 32.0128C61.0087 43.5739 55.934 54.8827 44.0783 65.809C40.9523 68.686 34.2457 73.6833 33.5043 73.6833C33.2956 73.6833 31.2501 72.3607 29.6331 71.1846C17.8742 62.6227 10.4709 52.9172 8.16088 43.0327C7.18842 38.8697 7.21823 33.9864 8.24657 29.5711C11.4881 15.6783 23.8207 6.48552 36.742 8.33709ZM31.116 20.5412C28.8365 20.9579 26.6765 21.9461 24.8056 23.4281C22.9348 24.9102 21.4039 26.8457 20.3333 29.0828C19.5563 30.645 19.0438 32.3475 18.8206 34.1085C18.5523 35.7367 18.5523 37.4042 18.8206 39.0324C19.6477 45.0104 23.5376 50.0401 28.8693 52.0219C29.9684 52.4289 32.3157 52.848 33.508 52.848C34.7003 52.848 37.0476 52.4289 38.1467 52.0219C41.813 50.6587 44.9688 47.7165 46.6827 44.0581C47.4597 42.496 47.9721 40.7934 48.1954 39.0324C48.4636 37.4042 48.4636 35.7367 48.1954 34.1085C47.8403 31.5879 46.9461 29.1943 45.5853 27.122C44.2246 25.0496 42.4356 23.3568 40.3636 22.1811C38.9333 21.3325 37.3745 20.7728 35.7621 20.529C34.2238 20.2481 32.6531 20.2522 31.116 20.5412ZM35.3411 28.6759C36.6824 29.0543 37.6735 29.6932 38.7391 30.8571C39.842 32.0575 40.4083 33.14 40.7362 34.6538C41.3547 37.5308 40.6617 40.1882 38.7391 42.2839C37.2376 43.9238 35.5423 44.7092 33.508 44.7092C31.4737 44.7092 29.7784 43.9238 28.2769 42.2839C26.7753 40.6439 26.0562 38.7924 26.0562 36.5705C26.0562 34.3486 26.7753 32.497 28.2769 30.8571C29.7821 29.209 31.3805 28.4643 33.4409 28.4439C34.0802 28.4442 34.7175 28.522 35.3411 28.6759Z" fill="#ADADAD"/>
</svg>
