<svg width="100" height="90" viewBox="0 0 100 90" fill="none" xmlns="http://www.w3.org/2000/svg">
<path fill-rule="evenodd" clip-rule="evenodd" d="M18.7 4.79522C10.725 7.46022 3.84 9.82522 3.4 10.0502C2.16073 10.7466 1.1644 11.8057 0.545 13.0852L0 14.2002V83.0002L0.63 84.3302C1.43 86.0202 2.58 87.1702 4.27 87.9702C5.46 88.5352 5.795 88.6002 7.4 88.6002L9.2 88.5952L22.055 84.3002L34.905 80.0052L49.095 84.7352L63.285 89.4602L64.035 87.1852C64.45 85.9302 64.84 84.9702 64.91 85.0552C64.98 85.1352 65.37 86.1602 65.785 87.3302L66.53 89.4602L81.065 84.6102C89.06 81.9402 95.96 79.5752 96.4 79.3502C97.525 78.7702 98.615 77.6152 99.255 76.3152L99.8 75.2002V6.40022L99.17 5.07021C98.4428 3.45247 97.1477 2.15744 95.53 1.43021C94.34 0.865215 94.005 0.800215 92.4 0.800215L90.6 0.805215L77.75 5.10021L64.895 9.39522L50.85 4.72522C46.1141 3.14114 41.3724 1.57446 36.625 0.0252154C36.53 0.0102154 36.15 0.900215 35.775 2.00022C35.405 3.10022 35.045 4.13522 34.975 4.30022C34.905 4.47522 34.535 3.65021 34.08 2.32021C33.829 1.53856 33.5538 0.764862 33.255 0.000214847C33.225 -0.0247852 26.675 2.13522 18.7 4.79522ZM29.9 41.3852V71.0652L20.15 74.3152L10.15 77.6502C9.95 77.7252 9.9 71.7202 9.9 48.0402V18.3352L19.75 15.0302C25.17 13.2152 29.67 11.7252 29.75 11.7152C29.835 11.7052 29.9 25.0602 29.9 41.3852ZM50.15 15.0852L59.9 18.3352V48.0402C59.9 71.7202 59.85 77.7252 59.65 77.6502L49.65 74.3152L39.9 71.0652V41.3602C39.9 17.6802 39.95 11.6752 40.15 11.7502L50.15 15.0852ZM89.9 41.3852V71.0652L80.15 74.3152C76.8153 75.4229 73.482 76.5345 70.15 77.6502C69.95 77.7252 69.9 71.7202 69.9 48.0402V18.3352L79.75 15.0302C85.165 13.2152 89.665 11.7252 89.75 11.7152C89.835 11.7052 89.9 25.0602 89.9 41.3852Z" fill="#10161F"/>
</svg>
