<svg width="75" height="81" viewBox="0 0 75 81" fill="none" xmlns="http://www.w3.org/2000/svg">
<path fill-rule="evenodd" clip-rule="evenodd" d="M18.9858 0.336159C18.1483 0.746963 17.4622 1.41355 17.026 2.24015C16.5246 3.17967 16.5329 4.96726 17.0343 5.92341C17.403 6.62182 18.6336 7.81077 18.9899 7.81077C19.3877 7.81077 20.0589 8.50086 20.0589 8.91658C20.0589 9.15354 19.2178 10.6917 18.066 12.5583C16.9721 14.3375 15.9363 16.1542 15.7581 16.599C15.0372 18.4407 15.004 21.0264 15.6835 23.0552C16.3713 25.113 18.298 27.283 20.3366 28.289C21.331 28.7837 21.6169 28.8461 22.8019 28.8461C24.0076 28.8461 24.2272 28.7962 24.9564 28.3431C25.4578 28.0313 25.9591 27.5283 26.2699 27.0253C26.7215 26.2936 26.7712 26.0733 26.7712 24.8552C26.7712 23.6372 26.7215 23.4168 26.2699 22.681C25.9241 22.1175 25.4387 21.6535 24.8611 21.3341C23.556 20.5775 23.3239 20.3322 23.4482 19.8333C23.5062 19.6047 24.2355 18.3201 25.0642 16.9815C28.209 11.9097 28.2421 11.8183 28.2421 8.97478C28.2421 7.18719 28.1883 6.75485 27.8568 5.89847C26.8997 3.44989 25.4164 1.79949 23.1458 0.652104C22.0105 0.0784134 21.7039 -0.00472982 20.7426 0.00358454C20.1393 -0.0222203 19.5382 0.0915723 18.9858 0.336159ZM35.5594 0.336159C34.7219 0.746963 34.0358 1.41355 33.5996 2.24015C33.0982 3.17967 33.1065 4.96726 33.6078 5.92341C33.9766 6.62182 35.2072 7.81077 35.5635 7.81077C35.9613 7.81077 36.6325 8.50086 36.6325 8.91658C36.6325 9.15354 35.7914 10.6917 34.6395 12.5583C33.5457 14.3375 32.5098 16.1542 32.3317 16.599C31.6107 18.4407 31.5776 21.0264 32.2571 23.0552C32.9449 25.113 34.8716 27.283 36.9101 28.289C37.9045 28.7837 38.1904 28.8461 39.3755 28.8461C40.5812 28.8461 40.8008 28.7962 41.53 28.3431C42.0314 28.0313 42.5327 27.5283 42.8435 27.0253C43.2951 26.2936 43.3448 26.0733 43.3448 24.8552C43.3448 23.6372 43.2951 23.4168 42.8435 22.681C42.4976 22.1175 42.0123 21.6535 41.4347 21.3341C40.1295 20.5775 39.8975 20.3322 40.0218 19.8333C40.0798 19.6047 40.8091 18.3201 41.6377 16.9815C44.7826 11.9097 44.8157 11.8183 44.8157 8.97478C44.8157 7.18719 44.7619 6.75485 44.4304 5.89847C43.4733 3.44989 41.9899 1.79949 39.7194 0.652104C38.5841 0.0784134 38.2775 -0.00472982 37.3162 0.00358454C36.7129 -0.0222203 36.1118 0.0915723 35.5594 0.336159ZM52.133 0.336159C51.2955 0.746963 50.6093 1.41355 50.1731 2.24015C49.6718 3.17967 49.6801 4.96726 50.1814 5.92341C50.5502 6.62182 51.7808 7.81077 52.1371 7.81077C52.5349 7.81077 53.2061 8.50086 53.2061 8.91658C53.2061 9.15354 52.365 10.6917 51.2131 12.5583C50.1193 14.3375 49.0834 16.1542 48.9053 16.599C48.1843 18.4407 48.1512 21.0264 48.8307 23.0552C49.5185 25.113 51.4452 27.283 53.4837 28.289C54.4781 28.7837 54.764 28.8461 55.949 28.8461C57.1548 28.8461 57.3744 28.7962 58.1036 28.3431C58.6049 28.0313 59.1063 27.5283 59.4171 27.0253C59.8687 26.2936 59.9184 26.0733 59.9184 24.8552C59.9184 23.6372 59.8687 23.4168 59.4171 22.681C59.0712 22.1175 58.5859 21.6535 58.0083 21.3341C56.7031 20.5775 56.4711 20.3322 56.5954 19.8333C56.6534 19.6047 57.3826 18.3201 58.2113 16.9815C61.3562 11.9097 61.3893 11.8183 61.3893 8.97478C61.3893 7.18719 61.3354 6.75485 61.004 5.89847C60.0468 3.44989 58.5635 1.79949 56.2929 0.652104C55.1576 0.0784134 54.851 -0.00472982 53.8898 0.00358454C53.2865 -0.0222203 52.6854 0.0915723 52.133 0.336159ZM2.79342 31.3529C1.78243 31.6647 0.626425 32.812 0.270093 33.8597C-0.044805 34.7867 -0.0945257 39.1351 0.174795 42.2322C0.610961 47.4313 2.2638 52.4537 4.99894 56.8911C7.73408 61.3286 11.4743 65.0558 15.9156 67.7698C17.5149 68.7467 20.2951 70.1186 21.4263 70.4886C22.1306 70.7214 22.1472 70.7754 21.7867 71.6276C21.6022 72.1783 21.484 72.7491 21.4346 73.3279C21.1487 76.7119 23.5601 79.9004 27.0323 80.7194C28.6068 81.0935 45.9842 81.0935 47.5587 80.7194C48.9467 80.391 50.0447 79.7799 51.0515 78.7655C52.0708 77.7429 52.6343 76.795 52.9575 75.552C53.301 74.3587 53.2677 73.088 52.8622 71.9145C52.7293 71.5422 52.6322 71.158 52.5722 70.7671C52.6012 70.7463 53.1481 70.5177 53.7862 70.2558C63.5314 66.2607 70.8487 57.938 73.4466 47.886C74.2131 44.9178 74.4327 43.1302 74.5363 38.9065C74.6523 34.1881 74.5363 33.5645 73.3306 32.3548C71.9674 30.9829 75.0542 31.091 37.225 31.1035C8.41601 31.1118 3.45636 31.1492 2.79342 31.3529ZM66.2992 40.1994C66.2992 41.5089 65.9843 43.708 65.5368 45.5247C64.0121 51.7355 59.819 57.4226 54.2917 60.7691C52.6385 61.7668 51.3126 62.3696 48.9135 63.201C46.5767 64.0075 45.4745 64.6311 44.5547 65.6579C43.6307 66.6931 43.2578 67.749 43.2661 69.337C43.2702 70.2766 43.3697 70.8295 43.6804 71.5819C43.9042 72.1307 44.0906 72.6004 44.0906 72.6212C44.0906 72.642 41.0328 72.6628 37.2955 72.6628C33.5581 72.6628 30.5003 72.642 30.5003 72.6212C30.5003 72.6004 30.6868 72.1307 30.9105 71.5819C31.4243 70.3348 31.4781 68.5014 31.0389 67.2709C30.4257 65.5415 28.6606 64.178 25.8597 63.2592C20.0714 61.3677 15.7498 58.1002 12.3812 53.07C10.0236 49.4985 8.63544 45.3717 8.35386 41.0973L8.24198 39.4053H66.2992V40.1994Z" fill="#E6725B"/>
</svg>
