<svg width="58" height="63" viewBox="0 0 58 63" fill="none" xmlns="http://www.w3.org/2000/svg">
<path fill-rule="evenodd" clip-rule="evenodd" d="M14.7667 0.261457C14.1154 0.580971 13.5817 1.09943 13.2424 1.74234C12.8525 2.47308 12.8589 3.86342 13.2489 4.6071C13.5357 5.1503 14.4928 6.07504 14.77 6.07504C15.0793 6.07504 15.6014 6.61178 15.6014 6.93512C15.6014 7.11942 14.9472 8.31576 14.0513 9.76754C13.2005 11.1514 12.3949 12.5644 12.2563 12.9104C11.6956 14.3427 11.6698 16.3539 12.1983 17.9318C12.7333 19.5323 14.2318 21.2201 15.8173 22.0026C16.5907 22.3874 16.8131 22.4359 17.7348 22.4359C18.6726 22.4359 18.8434 22.3971 19.4106 22.0446C19.8005 21.8021 20.1904 21.4109 20.4321 21.0196C20.7834 20.4506 20.8221 20.2792 20.8221 19.3318C20.8221 18.3845 20.7834 18.2131 20.4321 17.6408C20.1632 17.2025 19.7857 16.8416 19.3364 16.5932C18.3213 16.0047 18.1408 15.8139 18.2375 15.4259C18.2826 15.2481 18.8498 14.249 19.4944 13.2078C21.9403 9.26314 21.9661 9.192 21.9661 6.98038C21.9661 5.59004 21.9242 5.25377 21.6664 4.5877C20.922 2.68325 19.7683 1.3996 18.0023 0.507192C17.1193 0.0609882 16.8808 -0.00367875 16.1331 0.00278798C15.6639 -0.0172825 15.1964 0.0712229 14.7667 0.261457ZM27.6573 0.261457C27.0059 0.580971 26.4723 1.09943 26.133 1.74234C25.743 2.47308 25.7495 3.86342 26.1394 4.6071C26.4262 5.1503 27.3834 6.07504 27.6605 6.07504C27.9699 6.07504 28.492 6.61178 28.492 6.93512C28.492 7.11942 27.8378 8.31576 26.9419 9.76754C26.0911 11.1514 25.2854 12.5644 25.1469 12.9104C24.5861 14.3427 24.5603 16.3539 25.0889 17.9318C25.6238 19.5323 27.1223 21.2201 28.7079 22.0026C29.4813 22.3874 29.7037 22.4359 30.6253 22.4359C31.5631 22.4359 31.7339 22.3971 32.3011 22.0446C32.6911 21.8021 33.081 21.4109 33.3227 21.0196C33.674 20.4506 33.7126 20.2792 33.7126 19.3318C33.7126 18.3845 33.674 18.2131 33.3227 17.6408C33.0537 17.2025 32.6762 16.8416 32.227 16.5932C31.2119 16.0047 31.0314 15.8139 31.1281 15.4259C31.1732 15.2481 31.7404 14.249 32.3849 13.2078C34.8309 9.26314 34.8567 9.192 34.8567 6.98038C34.8567 5.59004 34.8148 5.25377 34.557 4.5877C33.8125 2.68325 32.6588 1.3996 30.8928 0.507192C30.0098 0.0609882 29.7713 -0.00367875 29.0237 0.00278798C28.5545 -0.0172825 28.087 0.0712229 27.6573 0.261457ZM40.5479 0.261457C39.8965 0.580971 39.3628 1.09943 39.0235 1.74234C38.6336 2.47308 38.64 3.86342 39.03 4.6071C39.3168 5.1503 40.2739 6.07504 40.5511 6.07504C40.8605 6.07504 41.3825 6.61178 41.3825 6.93512C41.3825 7.11942 40.7283 8.31576 39.8324 9.76754C38.9817 11.1514 38.176 12.5644 38.0374 12.9104C37.4767 14.3427 37.4509 16.3539 37.9794 17.9318C38.5144 19.5323 40.0129 21.2201 41.5984 22.0026C42.3719 22.3874 42.5942 22.4359 43.5159 22.4359C44.4537 22.4359 44.6245 22.3971 45.1917 22.0446C45.5816 21.8021 45.9716 21.4109 46.2133 21.0196C46.5645 20.4506 46.6032 20.2792 46.6032 19.3318C46.6032 18.3845 46.5645 18.2131 46.2133 17.6408C45.9443 17.2025 45.5668 16.8416 45.1176 16.5932C44.1024 16.0047 43.922 15.8139 44.0186 15.4259C44.0638 15.2481 44.6309 14.249 45.2755 13.2078C47.7215 9.26314 47.7472 9.192 47.7472 6.98038C47.7472 5.59004 47.7053 5.25377 47.4475 4.5877C46.7031 2.68325 45.5494 1.3996 43.7834 0.507192C42.9004 0.0609882 42.6619 -0.00367875 41.9142 0.00278798C41.445 -0.0172825 40.9775 0.0712229 40.5479 0.261457ZM2.17266 24.3856C1.38634 24.6281 0.487219 25.5205 0.210072 26.3353C-0.0348483 27.0563 -0.07352 30.4384 0.135952 32.8473C0.475192 36.891 1.76073 40.7973 3.88806 44.2487C6.01539 47.7 8.92446 50.599 12.3788 52.7098C13.6227 53.4697 15.7851 54.5367 16.6649 54.8244C17.2127 55.0055 17.2256 55.0475 16.9452 55.7104C16.8017 56.1387 16.7098 56.5826 16.6713 57.0328C16.449 59.6648 18.3245 62.1448 21.0251 62.7817C22.2497 63.0728 35.7655 63.0728 36.9901 62.7817C38.0696 62.5263 38.9236 62.051 39.7067 61.2621C40.4995 60.4667 40.9378 59.7295 41.1892 58.7627C41.4564 57.8346 41.4305 56.8462 41.115 55.9335C41.0117 55.6439 40.9362 55.3451 40.8895 55.0411C40.912 55.0249 41.3374 54.8471 41.8337 54.6434C49.4133 51.5361 55.1045 45.0629 57.1251 37.2447C57.7213 34.936 57.8921 33.5457 57.9727 30.2606C58.0629 26.5907 57.9727 26.1057 57.0349 25.1648C55.9746 24.0978 58.3755 24.1819 28.9528 24.1916C6.54578 24.198 2.68828 24.2271 2.17266 24.3856ZM51.5661 31.2662C51.5661 32.2847 51.3211 33.9951 50.9731 35.4081C49.7872 40.2387 46.5258 44.662 42.2268 47.2648C40.941 48.0408 39.9098 48.5097 38.0439 49.1564C36.2263 49.7836 35.3691 50.2686 34.6536 51.0673C33.935 51.8724 33.645 52.6937 33.6514 53.9288C33.6546 54.6595 33.732 55.0896 33.9737 55.6748C34.1477 56.1016 34.2927 56.467 34.2927 56.4832C34.2927 56.4993 31.9144 56.5155 29.0076 56.5155C26.1008 56.5155 23.7225 56.4993 23.7225 56.4832C23.7225 56.467 23.8675 56.1016 24.0415 55.6748C24.4411 54.7048 24.483 53.2789 24.1414 52.3218C23.6644 50.9767 22.2916 49.9162 20.1131 49.2016C15.6111 47.7304 12.2499 45.189 9.62985 41.2767C7.79614 38.4989 6.71645 35.2891 6.49744 31.9646L6.41043 30.6486H51.5661V31.2662Z" fill="#EF7601"/>
</svg>
