<svg width="91" height="90" viewBox="0 0 91 90" fill="none" xmlns="http://www.w3.org/2000/svg">
<path fill-rule="evenodd" clip-rule="evenodd" d="M41.3402 0.181039C32.8019 0.923036 24.3776 4.24628 17.2837 9.66511C15.2926 11.1896 11.3288 15.1019 9.78424 17.0671C1.58315 27.527 -1.62894 40.4288 0.781271 53.2496C2.10256 60.2918 5.15062 66.9203 9.78424 72.8293C11.3288 74.7945 15.2926 78.7069 17.2837 80.2313C28.4052 88.7261 42.1284 91.7705 55.7376 88.7531C67.0688 86.2393 77.3885 79.1116 83.7352 69.4117C87.4075 63.804 89.5807 58.0478 90.6651 51.0641C91.1116 48.1815 91.1116 41.7149 90.6651 38.8324C89.3666 30.477 86.4006 23.5967 81.2794 17.0671C79.7349 15.1019 75.771 11.1896 73.78 9.66511C64.3624 2.47448 53.0313 -0.83977 41.3402 0.181039ZM49.3226 9.16146C56.3381 9.93567 62.9866 12.66 68.4949 17.0176C70.1077 18.3038 73.174 21.3887 74.3541 22.9131C75.8439 24.8423 77.2336 27.0818 78.3362 29.3393C80.7344 34.2098 81.9794 39.5547 81.977 44.97C81.9747 50.3853 80.725 55.7291 78.3225 60.5976C77.2791 62.7247 74.8689 66.5516 74.2538 67.0597C74.0124 67.2576 73.7253 67.1317 72.3722 66.2503C66.7043 62.5583 59.4555 59.9276 52.0016 58.8618C48.9626 58.4301 42.1011 58.4301 39.0621 58.8618C31.6082 59.9276 24.3594 62.5583 18.6915 66.2503C17.3383 67.1317 17.0513 67.2576 16.8098 67.0597C16.1947 66.5516 13.7845 62.7247 12.7412 60.5976C6.71339 48.267 8.22603 33.8767 16.7096 22.9131C17.8896 21.3887 20.9559 18.3038 22.5688 17.0176C28.0258 12.7155 34.5889 9.99831 41.5224 9.17045C44.1175 8.94935 46.7269 8.94634 49.3226 9.16146ZM42.6068 18.2408C39.8194 18.7013 37.178 19.7933 34.8902 21.4311C32.6024 23.0688 30.7304 25.2078 29.4213 27.6799C28.4711 29.4062 27.8444 31.2876 27.5715 33.2337C27.2434 35.033 27.2434 36.8756 27.5715 38.675C28.5829 45.281 33.3396 50.8392 39.8594 53.0292C41.2035 53.4789 44.0739 53.9421 45.5318 53.9421C46.9898 53.9421 49.8602 53.4789 51.2043 53.0292C55.6875 51.5228 59.5466 48.2715 61.6424 44.2287C62.5926 42.5024 63.2192 40.621 63.4922 38.675C63.8203 36.8756 63.8203 35.033 63.4922 33.2337C63.058 30.4483 61.9646 27.8032 60.3005 25.513C58.6365 23.2229 56.4489 21.3523 53.9152 20.0531C52.1661 19.1153 50.26 18.4967 48.2883 18.2273C46.4071 17.9169 44.4864 17.9215 42.6068 18.2408ZM47.7735 27.2302C49.4137 27.6484 50.6256 28.3545 51.9287 29.6406C53.2773 30.9672 53.9698 32.1634 54.3708 33.8362C55.1271 37.0156 54.2797 39.9521 51.9287 42.268C50.0926 44.0803 48.0195 44.9482 45.5318 44.9482C43.0442 44.9482 40.9711 44.0803 39.135 42.268C37.2989 40.4558 36.4195 38.4096 36.4195 35.9543C36.4195 33.499 37.2989 31.4529 39.135 29.6406C40.9757 27.8193 42.9303 26.9964 45.4498 26.9739C46.2316 26.9743 47.0109 27.0602 47.7735 27.2302ZM51.4548 67.8512C55.8424 68.5572 59.747 69.7804 63.6653 71.6961C65.465 72.573 67.2191 73.5983 67.2191 73.7692C67.2191 74.057 63.5742 76.265 61.3599 77.3218C56.4285 79.6901 51.0161 80.9208 45.5318 80.9208C40.0476 80.9208 34.6352 79.6901 29.7038 77.3218C27.5122 76.2785 23.8445 74.057 23.8445 73.7782C23.8445 73.6073 24.1133 73.4364 26.0588 72.3752C30.1821 70.1267 35.6723 68.3459 40.1556 67.8062C41.0577 67.6983 42.0008 67.5769 42.2514 67.5364C43.2173 67.3745 49.8921 67.6039 51.4548 67.8512Z" fill="#909090"/>
</svg>
