<svg width="99" height="74" viewBox="0 0 99 74" fill="none" xmlns="http://www.w3.org/2000/svg">
<path fill-rule="evenodd" clip-rule="evenodd" d="M3.33135 0.298933C1.5345 0.851555 0 2.97816 0 4.92221C0 6.92053 1.52955 8.9978 3.4155 9.55536C3.9699 9.72312 4.5441 9.85634 4.68765 9.85634C4.90545 9.85634 4.95 15.1507 4.95 39.8213C4.95 73.5214 4.82625 70.8866 6.4647 72.5198C7.3557 73.403 8.7318 74 9.9 74C11.0731 74 12.4443 73.4079 13.3501 72.505C14.9341 70.926 14.85 72.1941 14.85 49.5909V29.5928H59.4V42.2884C59.4 56.6565 59.3505 56.1582 60.9147 57.7174C62.4046 59.2026 62.3601 59.1976 73.9876 59.1976H84.15V64.4919C84.15 70.6201 84.2391 71.0987 85.6647 72.5198C86.5557 73.403 87.9318 74 89.1 74C91.0899 74 93.1936 72.4605 93.748 70.5954C94.0104 69.7122 94.05 65.8834 94.05 39.7226C94.05 15.1359 94.0945 9.85634 94.3123 9.85634C94.4559 9.85634 95.0301 9.72312 95.5845 9.55536C97.4556 9.00273 99 6.90573 99 4.92221C99 2.93869 97.4556 0.841685 95.5845 0.289063C94.6885 0.0226199 89.293 -0.0119194 49.4158 0.00288298C10.692 0.0127512 4.12335 0.0571605 3.33135 0.298933ZM59.4 14.7905V19.7246H14.85V9.85634H59.4V14.7905ZM84.15 14.7905V19.7246H69.3V9.85634H84.15V14.7905ZM84.15 39.4611V49.3294H69.3V29.5928H84.15V39.4611Z" fill="#EF7601"/>
</svg>
