<svg width="97" height="96" viewBox="0 0 97 96" fill="none" xmlns="http://www.w3.org/2000/svg">
<path fill-rule="evenodd" clip-rule="evenodd" d="M44.0754 0.192973C34.9758 0.983882 25.9976 4.5262 18.4373 10.3022C16.3154 11.9272 12.0909 16.0974 10.4448 18.1922C4.49174 25.7849 1.01992 34.4513 0.194456 43.7889C0.0682079 45.2269 -0.00462734 53.8406 0.000228358 66.7971C0.00508405 85.7358 0.0342179 87.6101 0.340127 88.7653C1.24814 92.1973 4.42377 95.0734 7.949 95.6582C8.82302 95.802 15.9803 95.8451 31.2563 95.7972C55.258 95.7205 54.1558 95.7684 59.4194 94.6036C71.4955 91.9289 82.4936 84.3266 89.2576 73.9872C93.1713 68.0099 95.4874 61.8743 96.6431 54.4302C97.119 51.3576 97.119 44.4647 96.6431 41.3922C95.2592 32.4861 92.0982 25.1522 86.6404 18.1922C84.9943 16.0974 80.7698 11.9272 78.6479 10.3022C68.6112 2.6376 56.5351 -0.895127 44.0754 0.192973ZM52.5825 9.76538C60.0593 10.5906 67.1449 13.4946 73.0153 18.1394C74.7342 19.5103 78.0021 22.7986 79.2597 24.4236C84.4922 31.1678 87.3467 39.4163 87.3882 47.9112C87.3468 56.7027 84.2841 65.2201 78.7013 72.0699C77.3126 73.7667 73.9816 76.9927 72.3355 78.2342C66.5886 82.5565 59.7621 85.26 52.5825 86.057C51.3686 86.1864 43.3422 86.2583 30.1978 86.2583H9.69705V66.0206C9.69705 53.0976 9.76988 45.1166 9.90099 43.9231C10.7036 36.8344 13.4427 30.0944 17.8255 24.4236C19.0831 22.7986 22.351 19.5103 24.0699 18.1394C29.8857 13.5537 36.8802 10.6574 44.2696 9.77496C47.0353 9.53929 49.8163 9.53608 52.5825 9.76538ZM32.3877 38.6264C30.6251 39.1632 29.1198 41.2292 29.1198 43.1178C29.1198 45.0591 30.6202 47.0771 32.4702 47.6188C33.9609 48.055 63.1243 48.055 64.615 47.6188C66.4504 47.0819 67.9654 45.0447 67.9654 43.1178C67.9654 41.1909 66.4504 39.1537 64.615 38.6168C63.1728 38.1902 33.7861 38.2046 32.3877 38.6264ZM32.3877 57.8C31.7138 58.0345 31.105 58.422 30.6105 58.9312C30.1449 59.3613 29.7737 59.8811 29.5197 60.4584C29.2658 61.0358 29.1345 61.6585 29.1341 62.2879C29.1336 62.9174 29.264 63.5402 29.5171 64.118C29.7702 64.6957 30.1407 65.216 30.6057 65.6467C32.0332 67.0512 32.2663 67.0848 41.2591 67.0848C50.2712 67.0848 50.4849 67.056 51.927 65.6324C52.8156 64.7552 53.3983 63.4274 53.3983 62.2914C53.3983 60.3644 51.8833 58.3272 50.0479 57.7904C48.63 57.3733 33.7619 57.3829 32.3877 57.8Z" fill="#909090"/>
</svg>
